<?xml version="1.0" encoding="utf-8"?>
<!-- Generator: Adobe Illustrator 16.0.0, SVG Export Plug-In . SVG Version: 6.00 Build 0)  -->
<!DOCTYPE svg PUBLIC "-//W3C//DTD SVG 1.1//EN" "http://www.w3.org/Graphics/SVG/1.1/DTD/svg11.dtd">
<svg version="1.1" id="Layer_1" xmlns="http://www.w3.org/2000/svg" xmlns:xlink="http://www.w3.org/1999/xlink" x="0px" y="0px"
	 width="512px" height="512px" viewBox="0 0 512 512" enable-background="new 0 0 512 512" xml:space="preserve">
<g>
	<g>
		<g>
			<path fill="#EFB886" d="M401.643,358.845c-13.349-14.569-28.058-39.013-22.326-72.723l0.251-1.479l19.241,3.273l-0.252,1.479
				c-4.271,25.131,6.447,43.711,16.19,54.872l0.856,0.981l-12.821,14.839L401.643,358.845z"/>
			<g>
				<path d="M380.795,286.373l16.283,2.771c-4.426,26.043,6.99,45.171,16.539,56.109l-10.868,12.578
					C390.596,344.566,375.036,320.246,380.795,286.373 M378.34,282.912l-0.503,2.958c-2.655,15.62-1.167,30.778,4.425,45.054
					c4.079,10.416,10.229,20.15,18.275,28.934l2.277,2.486l2.204-2.552l10.868-12.578l1.704-1.971l-1.714-1.963
					c-9.529-10.917-20.014-29.083-15.841-53.634l0.502-2.957l-2.957-0.503l-16.283-2.771L378.34,282.912L378.34,282.912z"/>
			</g>
		</g>
		<g>
			<path fill="#B77E53" d="M385.971,287.253c-3.806,30.414,9.541,52.725,20.925,65.778l-4.146,4.8
				c-12.153-13.265-27.713-37.585-21.954-71.458L385.971,287.253z"/>
		</g>
	</g>
	<g>
		<g>
			<path fill="#EFB886" d="M227.356,341.003l1.028-0.8c11.692-9.1,25.755-25.296,26.353-50.78l0.035-1.499l19.511,0.453l-0.034,1.5
				c-0.799,34.184-19.897,55.376-35.778,67.134l-1.355,1.004L227.356,341.003z"/>
			<g>
				<path d="M256.236,289.458l16.513,0.384c-0.803,34.351-20.713,55.259-35.171,65.964l-8.272-14.419
					C240.765,332.469,255.617,315.868,256.236,289.458 M253.308,286.389l-0.07,2.999c-0.584,24.896-14.338,40.731-25.774,49.632
					l-2.057,1.6l1.297,2.261l8.272,14.419l1.678,2.924l2.709-2.006c9.574-7.089,17.465-15.473,23.455-24.92
					c8.209-12.947,12.56-27.545,12.93-43.385l0.07-3l-3-0.069l-16.512-0.384L253.308,286.389L253.308,286.389z"/>
			</g>
		</g>
		<g>
			<path fill="#B77E53" d="M267.5,289.72c-2.061,30.581-19.415,49.939-33.078,60.584l3.156,5.502
				c14.458-10.705,34.368-31.613,35.171-65.964L267.5,289.72z"/>
		</g>
	</g>
	<g>
		<path fill="#FFFFFF" d="M257.502,319.28c-11.848-0.001-21.104-4.412-21.492-4.6c-0.362-0.176-0.639-0.489-0.768-0.871
			s-0.099-0.8,0.084-1.159l11.756-23.148c0.264-0.52,0.791-0.82,1.338-0.82c0.22,0,0.444,0.048,0.655,0.151
			c0.82,0.398,20.171,9.92,28.175,23.745c0.204,0.352,0.256,0.771,0.146,1.161c-0.11,0.39-0.375,0.719-0.732,0.911
			c-5.704,3.072-12.15,4.63-19.159,4.63C257.503,319.28,257.503,319.28,257.502,319.28z"/>
		<path d="M248.419,290.182c0,0,19.667,9.561,27.533,23.148c-6.199,3.338-12.629,4.45-18.45,4.45c-11.641,0-20.839-4.45-20.839-4.45
			L248.419,290.182 M248.421,287.181c-1.095,0-2.148,0.602-2.677,1.643l-11.756,23.148c-0.365,0.719-0.425,1.554-0.168,2.316
			c0.257,0.764,0.811,1.392,1.536,1.742c0.401,0.194,9.958,4.75,22.146,4.75c7.261,0,13.947-1.618,19.872-4.809
			c0.715-0.385,1.243-1.043,1.465-1.824c0.221-0.78,0.116-1.618-0.29-2.32c-8.231-14.219-27.981-23.937-28.818-24.344
			C249.309,287.278,248.861,287.181,248.421,287.181L248.421,287.181z"/>
	</g>
	<g>
		<path fill="#FFFFFF" d="M389.458,319.28c-7.01,0-13.457-1.558-19.161-4.63c-0.357-0.192-0.622-0.521-0.732-0.911
			c-0.11-0.391-0.059-0.81,0.146-1.161c8.004-13.825,27.355-23.347,28.175-23.745c0.212-0.103,0.435-0.151,0.655-0.151
			c0.547,0,1.074,0.301,1.339,0.82l11.756,23.148c0.182,0.359,0.212,0.777,0.084,1.159c-0.129,0.382-0.406,0.695-0.769,0.871
			C410.562,314.868,401.306,319.28,389.458,319.28z"/>
		<path d="M398.541,290.182l11.756,23.148c0,0-9.198,4.45-20.839,4.45c-5.821,0-12.251-1.112-18.45-4.45
			C378.874,299.742,398.541,290.182,398.541,290.182 M398.539,287.181c-0.44,0-0.888,0.098-1.31,0.303
			c-0.837,0.407-20.587,10.125-28.818,24.344c-0.406,0.702-0.511,1.54-0.29,2.32c0.222,0.781,0.75,1.439,1.465,1.824
			c5.925,3.19,12.611,4.809,19.872,4.809c12.188,0,21.744-4.556,22.146-4.75c0.726-0.351,1.278-0.979,1.536-1.742
			c0.258-0.763,0.197-1.598-0.168-2.316l-11.756-23.148C400.688,287.783,399.634,287.181,398.539,287.181L398.539,287.181z"/>
	</g>
	<g>
		<g>
			<g>
				<path fill="#AAAAAA" d="M278.008,310.831c-0.185,0-0.369-0.034-0.544-0.103l-49.773-19.369c-0.772-0.3-1.154-1.169-0.854-1.941
					c3.215-8.262,12.069-13.6,22.557-13.6c4.076,0,8.147,0.78,12.099,2.318c6.966,2.71,12.671,7.466,16.063,13.391
					c3.452,6.029,4.109,12.545,1.851,18.348c-0.144,0.371-0.43,0.669-0.794,0.829C278.42,310.789,278.214,310.831,278.008,310.831z"
					/>
				<path d="M249.393,277.318c3.756,0,7.692,0.712,11.555,2.216c13.745,5.348,21.382,18.689,17.06,29.797l-49.773-19.369
					C231.342,281.977,239.784,277.318,249.393,277.318 M249.393,274.318c-11.111,0-20.514,5.714-23.955,14.556
					c-0.601,1.544,0.164,3.283,1.708,3.884l49.773,19.369c0.351,0.136,0.719,0.204,1.088,0.204c0.412,0,0.823-0.085,1.208-0.254
					c0.728-0.32,1.299-0.917,1.588-1.658c2.426-6.233,1.734-13.207-1.947-19.637c-3.562-6.222-9.535-11.21-16.82-14.044
					C257.91,275.133,253.656,274.318,249.393,274.318L249.393,274.318z"/>
			</g>
		</g>
	</g>
	<g>
		<path fill="#AAAAAA" d="M403.596,370.842c-10.892,0-19.752-8.86-19.752-19.752c0-10.891,8.86-19.751,19.752-19.751
			s19.752,8.86,19.752,19.751C423.348,361.981,414.487,370.842,403.596,370.842z"/>
		<g>
			<path d="M403.596,332.839c10.08,0,18.252,8.171,18.252,18.251s-8.172,18.252-18.252,18.252s-18.252-8.172-18.252-18.252
				S393.516,332.839,403.596,332.839 M403.596,329.839c-11.719,0-21.252,9.533-21.252,21.251c0,11.719,9.533,21.252,21.252,21.252
				s21.252-9.533,21.252-21.252C424.848,339.372,415.314,329.839,403.596,329.839L403.596,329.839z"/>
		</g>
	</g>
	<path fill="#7F7F7F" d="M421.848,351.09c0-0.033-0.004-0.067-0.004-0.102c-5.883,8.953-16.234,9.57-22.869,5.59
		c-7.067-4.238-8.847-12.208-7.813-18.822c-3.572,3.332-5.818,8.064-5.818,13.334c0,10.08,8.172,18.252,18.252,18.252
		S421.848,361.17,421.848,351.09z"/>
	<g>
		<g>
			<g>
				<path fill="#AAAAAA" d="M368.945,310.831c-0.206,0-0.412-0.042-0.604-0.127c-0.364-0.16-0.65-0.458-0.794-0.829
					c-2.259-5.803-1.602-12.318,1.851-18.348c3.392-5.925,9.097-10.681,16.063-13.391c3.952-1.538,8.022-2.318,12.1-2.318
					c10.487,0,19.342,5.338,22.556,13.6c0.301,0.772-0.081,1.642-0.854,1.941l-49.773,19.369
					C369.314,310.797,369.13,310.831,368.945,310.831z"/>
				<path d="M397.561,277.318c9.608,0,18.051,4.658,21.158,12.644l-49.773,19.369c-4.322-11.107,3.314-24.449,17.06-29.797
					C389.868,278.03,393.804,277.318,397.561,277.318 M397.561,274.318L397.561,274.318c-4.264,0-8.518,0.814-12.644,2.42
					c-7.285,2.834-13.259,7.822-16.82,14.044c-3.682,6.43-4.373,13.403-1.947,19.637c0.289,0.741,0.86,1.338,1.588,1.658
					c0.385,0.169,0.796,0.254,1.208,0.254c0.369,0,0.737-0.068,1.088-0.204l49.773-19.369c1.544-0.601,2.309-2.34,1.708-3.884
					C418.074,280.032,408.671,274.318,397.561,274.318L397.561,274.318z"/>
			</g>
		</g>
	</g>
	<g>
		<path d="M271.584,361.342c-3.584,0-6.5-2.916-6.5-6.5v-67.354c0-3.584,2.916-6.5,6.5-6.5l102.961-0.973
			c3.598,0,6.514,2.916,6.514,6.5v68.326c0,3.584-2.916,6.5-6.5,6.5H271.584z"/>
		<g>
			<path d="M374.559,281.516c2.762,0,5,2.238,5,5v68.326c0,2.762-2.238,5-5,5H271.584c-2.762,0-5-2.238-5-5v-67.354
				c0-2.762,2.238-5,5-5L374.559,281.516 M374.559,278.516c-0.01,0-0.019,0-0.028,0l-102.975,0.973c-4.383,0-7.972,3.589-7.972,8
				v67.354c0,4.411,3.589,8,8,8h102.975c4.411,0,8-3.589,8-8v-68.326C382.559,282.104,378.97,278.516,374.559,278.516
				L374.559,278.516z"/>
		</g>
	</g>
	<ellipse fill="#D3D3D3" cx="326.844" cy="396.823" rx="83.453" ry="13.358"/>
	<g>
		<path d="M337.109,400.627c-0.828,0-1.5-0.672-1.5-1.5v-19.931c0-6.913-5.625-12.538-12.538-12.538s-12.538,5.625-12.538,12.538
			v19.931c0,0.828-0.672,1.5-1.5,1.5h-42.449c-0.828,0-1.5-0.672-1.5-1.5v-47.024c0-0.828,0.672-1.5,1.5-1.5h112.975
			c0.828,0,1.5,0.672,1.5,1.5v47.024c0,0.828-0.672,1.5-1.5,1.5H337.109z"/>
		<path d="M379.559,352.103v47.024h-42.449v-19.931c0-7.753-6.285-14.038-14.038-14.038s-14.038,6.285-14.038,14.038v19.931h-42.449
			v-47.024H379.559 M379.559,349.103H266.584c-1.657,0-3,1.343-3,3v47.024c0,1.657,1.343,3,3,3h42.449c1.657,0,3-1.343,3-3v-19.931
			c0-6.087,4.951-11.038,11.038-11.038s11.038,4.951,11.038,11.038v19.931c0,1.657,1.343,3,3,3h42.449c1.657,0,3-1.343,3-3v-47.024
			C382.559,350.445,381.216,349.103,379.559,349.103L379.559,349.103z"/>
	</g>
	<g>
		<path fill="#FFFFFF" d="M260.584,392.842c-0.438,0-0.854-0.191-1.138-0.522c-0.285-0.332-0.411-0.771-0.345-1.204l6-39.239
			c0.111-0.732,0.741-1.273,1.482-1.273h112.975c0.741,0,1.371,0.541,1.482,1.273l6,39.239c0.066,0.433-0.06,0.872-0.345,1.204
			c-0.284,0.331-0.7,0.522-1.138,0.522H260.584z"/>
		<g>
			<path d="M379.559,352.103l6,39.239H260.584l6-39.239H379.559 M379.559,349.103H266.584c-1.481,0-2.741,1.082-2.966,2.547
				l-6,39.239c-0.132,0.864,0.12,1.744,0.689,2.407c0.57,0.664,1.401,1.046,2.276,1.046h124.975c0.875,0,1.706-0.382,2.276-1.046
				c0.569-0.663,0.821-1.543,0.689-2.407l-6-39.239C382.3,350.185,381.04,349.103,379.559,349.103L379.559,349.103z"/>
		</g>
	</g>
	<g>
		<polygon fill="#D1D1D1" points="379.559,352.103 369.671,352.103 374.62,391.342 385.559,391.342 		"/>
	</g>
	<g>
		<path fill="#E5E5E5" d="M323.68,233.174c-8.682,0-15.744-7.063-15.744-15.744s7.063-15.744,15.744-15.744
			s15.744,7.063,15.744,15.744S332.361,233.174,323.68,233.174z"/>
		<path d="M323.68,203.186c7.866,0,14.244,6.378,14.244,14.244s-6.378,14.244-14.244,14.244s-14.244-6.378-14.244-14.244
			S315.813,203.186,323.68,203.186 M323.68,200.186c-9.509,0-17.244,7.736-17.244,17.244s7.735,17.244,17.244,17.244
			s17.244-7.736,17.244-17.244S333.188,200.186,323.68,200.186L323.68,200.186z"/>
	</g>
	<g>
		<path fill="#AAAAAA" d="M266.584,329.351c-0.828,0-1.5-0.672-1.5-1.5v-37.669c0-0.828,0.672-1.5,1.5-1.5h112.975
			c0.828,0,1.5,0.672,1.5,1.5v37.669c0,0.828-0.672,1.5-1.5,1.5H266.584z"/>
		<g>
			<path d="M379.559,290.182v37.669H266.584v-37.669H379.559 M379.559,287.182H266.584c-1.657,0-3,1.343-3,3v37.669
				c0,1.657,1.343,3,3,3h112.975c1.657,0,3-1.343,3-3v-37.669C382.559,288.524,381.216,287.182,379.559,287.182L379.559,287.182z"/>
		</g>
	</g>
	<path fill="#EFB886" stroke="#000000" stroke-width="3" stroke-linecap="round" stroke-miterlimit="10" d="M311.752,276.413
		c0,0,12.262,6.131,26.303,0"/>
	<g>
		<path fill="#EFB886" d="M323.68,329.351c-43.79,0-79.416-48.415-79.416-107.926c0-40.283,35.626-73.056,79.416-73.056
			s79.416,32.772,79.416,73.056C403.096,280.936,367.47,329.351,323.68,329.351z"/>
		<path d="M323.68,149.869c43.031,0,77.916,32.037,77.916,71.556c0,58.777-34.885,106.426-77.916,106.426
			c-43.032,0-77.916-47.648-77.916-106.426C245.764,181.906,280.647,149.869,323.68,149.869 M323.68,146.869
			c-44.617,0-80.916,33.445-80.916,74.556c0,29.06,8.311,56.415,23.4,77.026c15.296,20.894,35.722,32.399,57.516,32.399
			c21.793,0,42.219-11.506,57.516-32.399c15.09-20.611,23.4-47.967,23.4-77.026C404.596,180.314,368.297,146.869,323.68,146.869
			L323.68,146.869z"/>
	</g>
	<g>
		<path fill="#B77E53" d="M323.68,149.869c31.328,0,56.725,32.037,56.725,71.556c0,58.777-25.396,106.426-56.725,106.426
			c43.031,0,77.916-47.648,77.916-106.426C401.596,181.906,366.711,149.869,323.68,149.869z"/>
	</g>
	<circle cx="286.897" cy="246.015" r="7.155"/>
	<circle cx="360.451" cy="246.015" r="7.155"/>
	<g>
		<path fill="#AAAAAA" d="M322.687,390.069c-0.146,0-0.292-0.021-0.434-0.064l-16.566-5c-0.684-0.206-1.128-0.866-1.06-1.578
			l3-31.467c0.073-0.77,0.72-1.357,1.493-1.357h27.25c0.773,0,1.42,0.588,1.493,1.357l3,31.467c0.068,0.713-0.377,1.374-1.063,1.579
			l-16.684,5C322.977,390.048,322.832,390.069,322.687,390.069z"/>
		<g>
			<path d="M336.37,352.103l3,31.467l-16.684,5l-16.566-5l3-31.467H336.37 M336.37,349.103h-27.25c-1.547,0-2.84,1.176-2.986,2.715
				l-3,31.467c-0.136,1.423,0.751,2.744,2.119,3.157l16.566,5c0.283,0.085,0.575,0.128,0.867,0.128c0.29,0,0.58-0.042,0.861-0.126
				l16.684-5c1.371-0.411,2.261-1.733,2.125-3.159l-3-31.467C339.21,350.278,337.917,349.103,336.37,349.103L336.37,349.103z"/>
		</g>
	</g>
	<g>
		<path fill="#AAAAAA" d="M266.584,353.603c-0.828,0-1.5-0.672-1.5-1.5v-10.177c0-0.828,0.672-1.5,1.5-1.5h112.975
			c0.828,0,1.5,0.672,1.5,1.5v10.177c0,0.828-0.672,1.5-1.5,1.5H266.584z"/>
		<g>
			<path d="M379.559,341.926v10.177H266.584v-10.177H379.559 M379.559,338.926H266.584c-1.657,0-3,1.343-3,3v10.177
				c0,1.657,1.343,3,3,3h112.975c1.657,0,3-1.343,3-3v-10.177C382.559,340.269,381.216,338.926,379.559,338.926L379.559,338.926z"/>
		</g>
	</g>
	<g>
		<path fill="#AAAAAA" d="M261.689,400.627c-0.828,0-1.5-0.672-1.5-1.5c0-15.354,12.49-27.844,27.844-27.844
			s27.844,12.49,27.844,27.844c0,0.828-0.672,1.5-1.5,1.5H261.689z"/>
		<g>
			<path d="M288.033,372.783c14.549,0,26.344,11.795,26.344,26.344h-52.688C261.689,384.578,273.484,372.783,288.033,372.783
				 M288.033,369.783c-16.181,0-29.344,13.163-29.344,29.344c0,1.657,1.343,3,3,3h52.688c1.657,0,3-1.343,3-3
				C317.377,382.946,304.214,369.783,288.033,369.783L288.033,369.783z"/>
		</g>
	</g>
	<g>
		<path fill="#AAAAAA" d="M331.939,400.627c-0.828,0-1.5-0.672-1.5-1.5c0-15.354,12.49-27.844,27.844-27.844
			s27.844,12.49,27.844,27.844c0,0.828-0.672,1.5-1.5,1.5H331.939z"/>
		<g>
			<path d="M358.283,372.783c14.549,0,26.344,11.795,26.344,26.344h-52.688C331.939,384.578,343.734,372.783,358.283,372.783
				 M358.283,369.783c-16.181,0-29.344,13.163-29.344,29.344c0,1.657,1.343,3,3,3h52.688c1.657,0,3-1.343,3-3
				C387.627,382.946,374.464,369.783,358.283,369.783L358.283,369.783z"/>
		</g>
	</g>
	<g>
		<path fill="#7F7F7F" d="M288.033,372.783c-1.497,0-2.962,0.131-4.391,0.371c12.458,2.092,21.953,12.92,21.953,25.973h8.781
			C314.377,384.578,302.582,372.783,288.033,372.783z"/>
	</g>
	<g>
		<path fill="#7F7F7F" d="M358.283,372.783c-1.497,0-2.962,0.131-4.391,0.371c12.458,2.092,21.953,12.92,21.953,25.973h8.781
			C384.627,384.578,372.832,372.783,358.283,372.783z"/>
	</g>
	<g>
		<path fill="#D1D1D1" d="M387.847,250.019L387.847,250.019c-0.006,0.055-0.017,0.105-0.022,0.16
			c-0.151,1.273-0.356,2.488-0.595,3.666c-0.083,0.41-0.161,0.824-0.255,1.223c0,0-0.001,0.006-0.002,0.008
			c-0.053,0.227-0.106,0.453-0.163,0.676c0,0-0.001,0.002-0.001,0.004c-0.072,0.286-0.159,0.557-0.236,0.838
			c-0.135,0.484-0.26,0.979-0.411,1.447c0,0,0,0.002-0.001,0.004c-0.21,0.65-0.445,1.273-0.687,1.891
			c-0.389,0.997-0.811,1.958-1.275,2.872l-0.001,0.001c-0.322,0.633-0.66,1.248-1.019,1.843c-0.001,0.001-0.002,0.003-0.003,0.005
			c-0.063,0.104-0.132,0.204-0.196,0.308c-0.006,0.009-0.011,0.017-0.016,0.024c-0.304,0.486-0.619,0.961-0.946,1.423l0,0
			c-0.346,0.488-0.712,0.954-1.084,1.415c-0.113,0.14-0.22,0.286-0.335,0.424c-0.004,0.004-0.007,0.008-0.011,0.013
			c-0.336,0.399-0.691,0.779-1.047,1.158c-0.183,0.192-0.356,0.396-0.543,0.583h-0.001c-0.254,0.256-0.521,0.496-0.785,0.742
			c-0.249,0.232-0.496,0.467-0.753,0.691c-0.006,0.005-0.012,0.01-0.018,0.016c-0.144,0.125-0.286,0.25-0.433,0.373l-0.002,0.002
			c-0.143,0.119-0.296,0.229-0.44,0.346c-0.456,0.367-0.916,0.73-1.396,1.074c-0.003,0.002-0.006,0.004-0.009,0.006
			c-0.244,0.175-0.5,0.338-0.751,0.508c-0.41,0.276-0.82,0.553-1.246,0.813c-0.001,0.001-0.002,0.001-0.002,0.001
			c-0.458,0.281-0.925,0.552-1.399,0.814c-0.002,0.001-0.004,0.002-0.006,0.004c-0.143,0.078-0.281,0.16-0.425,0.238
			c-0.003,0.001-0.005,0.002-0.008,0.004c-0.604,0.323-1.224,0.633-1.855,0.93c-0.002,0.001-0.004,0.002-0.006,0.003
			c-0.183,0.085-0.369,0.166-0.554,0.249l-0.001,0.001c-0.013,0.006-0.025,0.011-0.038,0.017c-1.378,0.621-2.81,1.188-4.304,1.695
			c-0.014,0.004-0.027,0.009-0.041,0.014c-0.49,0.165-0.991,0.319-1.493,0.473c-0.385,0.118-0.769,0.236-1.161,0.349
			c-0.002,0.001-0.004,0.001-0.006,0.002c-0.553,0.157-1.112,0.309-1.678,0.454c-0.02,0.005-0.038,0.01-0.057,0.015
			c-1.941,0.495-3.958,0.919-6.044,1.278c-0.004,0-0.009,0.001-0.013,0.002c-0.718,0.123-1.443,0.24-2.177,0.35
			c-0.006,0.001-0.012,0.002-0.018,0.003c-0.091,0.013-0.18,0.028-0.271,0.042c-0.004,0.001-0.008,0.002-0.012,0.002
			c-0.007,0-0.014,0.002-0.021,0.003h-0.001c3.002,21.526-1.687,34.422-10.865,43.777c31.665-9.646,56.064-45.609,60.247-90.216
			c0-0.053,0.003-0.104,0.003-0.158c-2.318-0.6-4.632-1.163-6.939-1.693c-2.31-0.531-4.613-1.027-6.91-1.495
			c0.706,3.823,1.094,7.758,1.094,11.786C388.206,245.815,388.081,247.976,387.847,250.019z"/>
	</g>
	<g>
		<path fill="#DB5526" d="M323.68,334.339c-37.859,0-63.289-14.234-74.464-27.556c-0.397-0.474-0.463-1.143-0.166-1.685
			c0.266-0.485,0.772-0.779,1.315-0.779c0.064,0,0.13,0.004,0.195,0.013c0.029,0.004,2.967,0.384,6.517,0.384
			c2.538,0,4.733-0.188,6.532-0.552c-5.872-2.029-16.443-6.819-24.709-16.836c-0.478-0.579-0.454-1.422,0.056-1.974
			c8.471-9.163,8.202-28.948,7.28-39.97c-0.628-3.771-1.11-7.602-1.434-11.387c-0.069-0.815,0.527-1.535,1.34-1.62
			c1.707-0.176,6.47-0.738,13.814-2.135c0.094-0.018,0.188-0.026,0.28-0.026c0.393,0,0.774,0.154,1.058,0.437
			c0.352,0.35,0.508,0.85,0.417,1.336c-0.71,3.84-1.07,7.718-1.07,11.527c0,35.123,29.815,38.032,63.032,38.032
			s63.032-2.909,63.032-38.032c0-3.8-0.359-7.673-1.068-11.514c-0.091-0.49,0.068-0.993,0.424-1.343
			c0.283-0.278,0.661-0.43,1.051-0.43c0.1,0,0.199,0.01,0.299,0.03c4.213,0.857,8.396,1.809,12.453,2.833
			c0.272-0.451,0.763-0.723,1.283-0.723c0.137,0,0.276,0.019,0.415,0.059c0.742,0.214,1.201,0.957,1.06,1.716
			c-0.002,0.008-0.059,0.317-0.15,0.867c-0.001,0.016-0.002,0.033-0.004,0.049c-0.287,3.093-0.681,6.217-1.169,9.286
			c-1.032,11.321-1.461,31.65,7.189,41.008c0.51,0.552,0.533,1.395,0.056,1.974c-8.266,10.017-18.837,14.807-24.709,16.836
			c1.799,0.364,3.994,0.552,6.532,0.552c3.549,0,6.487-0.38,6.517-0.384c0.065-0.009,0.131-0.013,0.195-0.013
			c0.542,0,1.05,0.294,1.315,0.779c0.297,0.542,0.231,1.211-0.166,1.685c-11.175,13.321-36.604,27.556-74.464,27.556H323.68z"/>
		<g>
			<path d="M260.237,231.717c-0.708,3.827-1.096,7.768-1.096,11.8c0,35.64,28.892,39.532,64.532,39.532s64.532-3.893,64.532-39.532
				c0-4.028-0.388-7.963-1.094-11.786c4.521,0.92,9.072,1.96,13.641,3.138l0.395-0.998c0,0-0.07,0.377-0.181,1.05
				c0.003,0.001,0.005,0.001,0.008,0.002c-0.29,3.124-0.681,6.204-1.165,9.238c-1.129,12.335-1.355,32.55,7.577,42.213
				c-11.646,14.113-28.274,17.608-28.274,17.608c2.714,1.796,7.364,2.234,11.255,2.234c3.7,0,6.712-0.396,6.712-0.396
				c-11.324,13.5-36.624,27.02-73.314,27.02h-0.085c-36.69,0-61.99-13.52-73.314-27.02c0,0,3.011,0.396,6.712,0.396
				c3.89,0,8.542-0.438,11.255-2.234c0,0-16.629-3.495-28.274-17.608c8.686-9.396,8.711-28.771,7.668-41.175
				c-0.619-3.707-1.101-7.485-1.429-11.328C247.845,233.71,252.725,233.146,260.237,231.717 M260.237,228.717
				c-0.187,0-0.374,0.018-0.561,0.053c-7.288,1.386-12.001,1.942-13.688,2.117c-1.627,0.168-2.82,1.609-2.681,3.239
				c0.325,3.805,0.809,7.654,1.438,11.445c0.897,10.787,1.174,30.041-6.892,38.767c-1.019,1.102-1.066,2.788-0.111,3.945
				c6.189,7.501,13.646,12.152,19.576,14.933c-0.08,0-0.161,0.001-0.242,0.001c-3.464,0-6.292-0.367-6.32-0.371
				c-0.131-0.017-0.263-0.025-0.393-0.025c-1.084,0-2.098,0.589-2.629,1.557c-0.595,1.085-0.464,2.424,0.332,3.371
				c11.391,13.581,37.237,28.092,75.613,28.092h0.085c38.376,0,64.222-14.511,75.613-28.092c0.795-0.947,0.927-2.286,0.331-3.371
				c-0.531-0.968-1.545-1.557-2.629-1.557c-0.13,0-0.261,0.009-0.393,0.025c-0.026,0.004-2.88,0.371-6.32,0.371
				c-0.081,0-0.162-0.001-0.242-0.001c5.93-2.78,13.387-7.432,19.575-14.933c0.956-1.157,0.908-2.844-0.11-3.945
				c-8.244-8.919-7.808-28.722-6.802-39.804c0.49-3.085,0.885-6.225,1.174-9.333c0-0.001,0-0.003,0-0.005
				c0.081-0.484,0.132-0.759,0.135-0.774c0.282-1.519-0.635-3.004-2.119-3.432c-0.276-0.079-0.556-0.117-0.831-0.117
				c-0.632,0-1.242,0.201-1.746,0.561c-3.819-0.951-7.741-1.836-11.69-2.64c-0.198-0.041-0.398-0.06-0.598-0.06
				c-0.778,0-1.535,0.303-2.102,0.859c-0.712,0.699-1.029,1.705-0.849,2.686c0.692,3.75,1.044,7.533,1.044,11.241
				c0,30.71-21.626,36.532-61.532,36.532s-61.532-5.822-61.532-36.532c0-3.717,0.352-7.503,1.046-11.254
				c0.18-0.974-0.132-1.974-0.834-2.672C261.786,229.025,261.022,228.717,260.237,228.717L260.237,228.717z"/>
		</g>
	</g>
	<g>
		<path fill="#DB5526" d="M284.234,322.827c-0.259,0-0.518-0.066-0.749-0.2c-0.48-0.277-0.77-0.797-0.75-1.352
			c1.171-34.132,14.218-54.528,26.154-54.528c2.365,0,4.623,0.76,6.711,2.258c4.703,3.372,7.008,7.589,6.853,12.533
			c-0.54,17.137-31.269,37.211-37.423,41.061C284.787,322.751,284.511,322.827,284.234,322.827z"/>
		<g>
			<path d="M308.891,268.247c2.012,0,3.982,0.647,5.836,1.977c19.798,14.195-12.289,39.716-30.492,51.104
				C285.379,287.969,297.777,268.247,308.891,268.247 M308.89,265.247c-6.841,0-13.671,5.712-18.739,15.67
				c-5.283,10.38-8.366,24.318-8.914,40.308c-0.038,1.108,0.539,2.147,1.5,2.701c0.464,0.268,0.981,0.401,1.498,0.401
				c0.553,0,1.105-0.152,1.591-0.457c8.806-5.508,37.577-24.837,38.127-42.285c0.173-5.476-2.343-10.118-7.478-13.8
				C314.127,266.102,311.574,265.247,308.89,265.247L308.89,265.247z"/>
		</g>
	</g>
	<path fill="#AF3C19" d="M314.727,270.224c-1.72-1.234-3.543-1.861-5.404-1.945c8.718,18.541-25.088,53.049-25.088,53.049
		C302.438,309.939,334.524,284.419,314.727,270.224z"/>
	<g>
		<path fill="#AAAAAA" d="M242.798,213.285c-0.829,0-1.5-0.671-1.5-1.5c0-46.927,37.505-85.105,83.605-85.105
			s83.605,38.178,83.605,85.105c0,0.829-0.672,1.5-1.5,1.5H242.798z"/>
		<g>
			<path d="M324.903,128.18c45.346,0,82.105,37.432,82.105,83.605H242.798C242.798,165.611,279.558,128.18,324.903,128.18
				 M324.903,125.18c-46.928,0-85.105,38.851-85.105,86.605c0,1.657,1.343,3,3,3h164.211c1.657,0,3-1.343,3-3
				C410.009,164.031,371.831,125.18,324.903,125.18L324.903,125.18z"/>
		</g>
	</g>
	<g>
		<path fill="#7F7F7F" d="M324.903,128.18c-3.228,0-6.404,0.21-9.534,0.579c40.851,4.813,72.57,40.139,72.57,83.026h19.069
			C407.009,165.611,370.249,128.18,324.903,128.18z"/>
	</g>
	<g>
		<path fill="#FFFFFF" d="M375.045,194.469c-9.086,0-17.357-5.707-20.583-14.203c-4.31-11.348,1.416-24.086,12.765-28.396
			c2.515-0.955,5.144-1.438,7.812-1.438c0.565,0,1.128,0.022,1.688,0.065l0.227,0.023c0.304,0.033,0.598,0.157,0.839,0.346
			c0.233,0.045,0.546,0.094,0.958,0.141c0.611,0.068,1.63,0.15,2.986,0.15l0,0c1.1,0,2.201-0.055,3.274-0.162
			c2.937-0.302,5.403-0.929,7.327-1.864c1.188-0.588,2.127-1.271,2.943-2.145c0.953-1.013,1.759-2.375,2.334-3.939l0.322-0.935
			c0.008-0.063,0.018-0.124,0.029-0.182l-0.007-0.002c0,0,0.519-2.432,0.519-2.432l0.945-4.328l0.509-2.232l0.781-2.909
			c0.133-0.493,0.265-0.982,0.413-1.474l0.679-2.128c0.312-1.05,0.722-2.113,1.118-3.142c0.131-0.339,0.261-0.675,0.385-1.005
			c0.188-0.488,0.406-0.966,0.623-1.437l0.414-0.909c0.256-0.56,0.52-1.139,0.859-1.729c1.472-2.933,3.383-5.277,4.721-6.714
			c1.745-1.91,3.632-3.193,5.263-4.245c1.4-0.839,2.752-1.544,4.296-2.246c1.168-0.531,2.084-0.919,2.714-1.175l0.929-0.387
			c0.188-0.079,0.384-0.116,0.577-0.116c0.475,0,0.936,0.225,1.224,0.631c0.406,0.572,0.362,1.348-0.105,1.87l-0.683,0.76
			c-0.445,0.488-1.078,1.203-1.851,2.12c-0.945,1.12-1.762,2.204-2.498,3.313c-0.772,1.265-1.594,2.679-2.05,4.264
			c-0.563,1.905-0.832,3.605-0.851,5.36c0,0.038-0.002,0.075-0.006,0.113c-0.027,0.325-0.017,0.719-0.005,1.137
			c0,0,0.02,0.691,0.022,0.895c0.005,0.314,0.01,0.628,0.038,0.96c0.035,0.349,0.064,0.71,0.094,1.072
			c0.063,0.78,0.124,1.516,0.251,2.297l0.257,1.826c0.057,0.364,0.131,0.758,0.205,1.153l0.462,2.489l0.678,2.925l0.646,2.758
			l0.483,2.026c0.058,0.125,0.099,0.259,0.121,0.399l0.36,2.211c0.58,4.098,0.49,8.326-0.256,12.256
			c-0.757,4.073-2.292,8.209-4.438,11.956c-1.84,3.239-4.239,6.381-7.128,9.333c-2.287,2.331-4.774,4.45-7.604,6.479
			c-3.916,2.789-7.998,5.096-12.483,7.058c-1.419,0.612-2.795,1.146-3.987,1.546c-0.25,0.086-0.494,0.165-0.727,0.234l-0.141,0.043
			c-0.172,0.053-0.321,0.098-0.559,0.152l-0.326,0.077C380.335,193.986,377.71,194.469,375.045,194.469z"/>
		<path d="M423.704,104.819c0,0-0.236,0.264-0.681,0.758c-0.447,0.49-1.094,1.22-1.883,2.156c-0.789,0.936-1.703,2.098-2.601,3.449
			c-0.848,1.387-1.732,2.91-2.241,4.679c-0.522,1.769-0.887,3.636-0.909,5.759c-0.043,0.501-0.015,1.058-0.002,1.603
			c0.021,0.552,0.008,1.075,0.058,1.647c0.114,1.157,0.16,2.263,0.358,3.48c0.084,0.594,0.167,1.191,0.252,1.794
			c0.094,0.604,0.222,1.233,0.332,1.85c0.114,0.615,0.23,1.234,0.346,1.856c0.141,0.613,0.281,1.23,0.424,1.849
			c0.303,1.293,0.607,2.596,0.914,3.903l0.492,2.065l0.062,0.258l0.016,0.065l0.008,0.032c0.001,0.027,0.002,0.037,0.002,0.037
			c0.002,0,0.001-0.147,0.002-0.147s0.001,0.001,0.001,0.005l0.028,0.169l0.113,0.679l0.22,1.369
			c0.521,3.682,0.518,7.707-0.248,11.738c-0.749,4.028-2.268,8.001-4.266,11.49c-1.993,3.509-4.428,6.505-6.898,9.03
			c-2.479,2.527-5.01,4.591-7.406,6.309c-4.811,3.426-9.072,5.53-12.21,6.902c-1.575,0.68-2.879,1.168-3.864,1.499
			c-0.239,0.082-0.465,0.155-0.68,0.22c-0.217,0.064-0.346,0.111-0.603,0.17c-0.2,0.05-0.42,0.096-0.454,0.11
			c-0.041,0.016-0.062,0.023-0.062,0.023c-2.397,0.91-4.859,1.342-7.279,1.342c-8.274,0-16.069-5.042-19.181-13.235
			c-4.022-10.592,1.303-22.438,11.895-26.461c2.396-0.91,4.859-1.341,7.279-1.341c0.526,0,1.051,0.021,1.572,0.061l0.183,0.02
			c0,0,0.022,0.001,0.065,0.005c0.05,0.003-0.045,0.029-0.079,0.054c-0.091,0.034-0.015,0.045,0.012,0.068
			c0.029,0.024,0.086,0.047,0.166,0.068c0.289,0.095,0.85,0.202,1.622,0.29c0.834,0.093,1.919,0.16,3.156,0.16
			c1.052,0,2.213-0.048,3.424-0.169c2.639-0.271,5.441-0.846,7.833-2.008c1.199-0.594,2.341-1.354,3.384-2.47
			c1.042-1.108,1.968-2.601,2.646-4.446l0.242-0.705l0.125-0.358l0.031-0.09c0,0.001,0,0.001,0,0.001
			c0.003,0,0.001-0.198,0.003-0.198c0.001,0,0.001,0.008,0.002,0.026l0.007-0.032l0.014-0.064l0.056-0.26l0.442-2.075
			c0.316-1.448,0.632-2.891,0.944-4.32c0.169-0.743,0.338-1.482,0.506-2.219c0.194-0.725,0.387-1.446,0.579-2.163
			c0.198-0.716,0.376-1.414,0.589-2.12c0.226-0.707,0.449-1.41,0.671-2.105c0.408-1.371,0.987-2.766,1.479-4.076
			c0.254-0.659,0.584-1.324,0.867-1.964c0.295-0.642,0.567-1.268,0.925-1.888c1.241-2.47,2.881-4.682,4.519-6.441
			c1.643-1.797,3.448-3.02,4.979-4.007c1.574-0.942,2.957-1.62,4.103-2.141c1.145-0.521,2.042-0.9,2.659-1.151
			C423.377,104.956,423.704,104.819,423.704,104.819 M423.703,101.819c-0.388,0-0.78,0.076-1.156,0.232l-0.938,0.391
			c-0.552,0.225-1.5,0.623-2.748,1.19c-1.596,0.725-2.994,1.456-4.401,2.297c-0.028,0.018-0.058,0.035-0.085,0.053
			c-1.71,1.103-3.691,2.452-5.566,4.504c-1.375,1.477-3.362,3.914-4.948,7.044c-0.353,0.623-0.621,1.21-0.88,1.779l-0.127,0.277
			c-0.104,0.232-0.193,0.428-0.285,0.626c-0.221,0.48-0.45,0.977-0.656,1.512c-0.132,0.352-0.26,0.683-0.389,1.018
			c-0.403,1.046-0.82,2.128-1.156,3.251l-0.281,0.883l-0.382,1.196c-0.167,0.552-0.303,1.054-0.439,1.562l-0.183,0.669l-0.31,1.159
			l-0.275,1.027c-0.01,0.037-0.019,0.073-0.027,0.11l-0.134,0.586l-0.373,1.634l-0.329,1.508l-0.62,2.837l-0.445,2.09l-0.056,0.257
			l-0.015,0.07v0c-0.015,0.066-0.027,0.134-0.037,0.203l-0.029,0.083l-0.235,0.687c-0.506,1.365-1.199,2.539-2.006,3.398
			c-0.695,0.744-1.498,1.325-2.529,1.836c-1.746,0.848-4.044,1.428-6.809,1.712c-1.017,0.102-2.067,0.154-3.117,0.154
			c-1.004,0-2.007-0.05-2.824-0.141c-0.191-0.022-0.356-0.044-0.495-0.064c-0.384-0.232-0.821-0.38-1.286-0.422l0,0
			c-0.003,0-0.006,0-0.009,0c-0.014-0.001-0.028-0.002-0.043-0.003c-0.005,0-0.01-0.001-0.015-0.001l-0.134-0.014
			c-0.029-0.003-0.059-0.006-0.088-0.008c-0.598-0.046-1.205-0.069-1.804-0.069c-2.851,0-5.658,0.517-8.344,1.536
			c-5.872,2.23-10.524,6.613-13.1,12.342s-2.765,12.117-0.535,17.989c3.445,9.074,12.28,15.17,21.985,15.17
			c2.813,0,5.585-0.504,8.24-1.498c0.078-0.018,0.166-0.039,0.252-0.06c0.266-0.062,0.439-0.114,0.637-0.175l0.123-0.038
			c0.258-0.077,0.52-0.162,0.798-0.257c1.214-0.408,2.63-0.957,4.08-1.583c4.595-2.009,8.765-4.367,12.762-7.213
			c2.909-2.085,5.461-4.259,7.808-6.651c2.982-3.048,5.459-6.294,7.365-9.649c2.223-3.882,3.817-8.181,4.606-12.424
			c0.774-4.078,0.868-8.476,0.27-12.708c-0.003-0.018-0.006-0.036-0.009-0.055l-0.22-1.369l-0.116-0.697l-0.023-0.141
			c-0.034-0.222-0.093-0.435-0.173-0.637l-0.455-1.909l-0.643-2.746l-0.269-1.146l-0.274-1.199l-0.132-0.576l-0.183-0.977
			l-0.152-0.817c-0.035-0.198-0.076-0.417-0.117-0.635c-0.07-0.378-0.143-0.757-0.199-1.126l-0.108-0.774l-0.138-0.979
			c-0.003-0.021-0.006-0.042-0.01-0.062c-0.117-0.723-0.175-1.43-0.236-2.178c-0.03-0.37-0.061-0.74-0.098-1.115
			c-0.02-0.229-0.024-0.502-0.029-0.819c-0.004-0.215-0.008-0.431-0.016-0.65l-0.007-0.263c-0.011-0.357-0.021-0.726,0-0.966
			c0.006-0.075,0.01-0.149,0.011-0.225c0.017-1.612,0.267-3.182,0.786-4.94c0.405-1.407,1.155-2.705,1.895-3.916
			c0.696-1.045,1.47-2.069,2.363-3.128c0.813-0.964,1.431-1.657,1.806-2.068l0.699-0.777c0.936-1.044,1.023-2.598,0.211-3.741
			C425.572,102.27,424.651,101.819,423.703,101.819L423.703,101.819z"/>
	</g>
	<g>
		<path fill="#FFFFFF" d="M277.463,194.469c-2.665,0-5.29-0.483-7.803-1.436l-0.354-0.084c-0.209-0.047-0.358-0.093-0.53-0.146
			l-0.138-0.042c-0.235-0.071-0.479-0.15-0.738-0.239c-1.184-0.397-2.56-0.931-3.973-1.541c-4.491-1.964-8.573-4.272-12.485-7.058
			c-2.834-2.032-5.321-4.15-7.607-6.48c-2.89-2.954-5.29-6.096-7.132-9.34c-2.143-3.742-3.678-7.878-4.436-11.957
			c-0.746-3.924-0.835-8.153-0.259-12.223l0.365-2.239c0.022-0.14,0.063-0.274,0.121-0.399l0.484-2.032l0.913-3.897l0.422-1.842
			l0.45-2.427c0.074-0.395,0.148-0.789,0.208-1.173l0.249-1.774c0.132-0.813,0.192-1.549,0.256-2.329
			c0.029-0.361,0.059-0.723,0.095-1.089c0.027-0.314,0.031-0.628,0.037-0.942c0.003-0.204,0.022-0.895,0.022-0.895
			c0.012-0.417,0.023-0.812-0.005-1.137c-0.003-0.038-0.005-0.075-0.005-0.113c-0.019-1.754-0.288-3.455-0.848-5.35
			c-0.459-1.595-1.28-3.009-2.083-4.321c-0.707-1.062-1.523-2.145-2.467-3.264c-0.773-0.918-1.406-1.632-1.844-2.113l-0.69-0.768
			c-0.468-0.522-0.512-1.298-0.105-1.87c0.289-0.406,0.749-0.631,1.223-0.631c0.194,0,0.39,0.038,0.578,0.116l0.939,0.392
			c0.619,0.251,1.535,0.639,2.704,1.171c1.543,0.701,2.895,1.406,4.252,2.219c1.673,1.079,3.56,2.362,5.315,4.282
			c1.329,1.427,3.24,3.772,4.752,6.78c0.299,0.514,0.563,1.093,0.818,1.653l0.414,0.909c0.217,0.47,0.436,0.949,0.619,1.424
			c0.128,0.343,0.258,0.679,0.389,1.018c0.396,1.029,0.807,2.092,1.127,3.169l0.663,2.078c0.155,0.515,0.288,1.004,0.42,1.497
			l0.767,2.854l0.52,2.275l0.947,4.333c0,0,0.506,2.37,0.511,2.397c0.018,0.077,0.03,0.159,0.038,0.246l0.326,0.946
			c0.565,1.535,1.371,2.896,2.321,3.906c0.819,0.876,1.759,1.56,2.957,2.153c1.913,0.93,4.38,1.558,7.32,1.86
			c1.069,0.107,2.171,0.162,3.271,0.162c1.356,0,2.375-0.082,2.99-0.15c0.389-0.044,0.689-0.09,0.909-0.131
			c0.245-0.207,0.555-0.337,0.89-0.356l0.177-0.019c0.604-0.047,1.166-0.069,1.731-0.069c2.668,0,5.297,0.484,7.812,1.438
			c11.349,4.31,17.074,17.048,12.765,28.396C294.82,188.761,286.549,194.469,277.463,194.469z"/>
		<path d="M228.804,104.819c0,0,0.327,0.137,0.941,0.393c0.617,0.251,1.515,0.631,2.659,1.151c1.146,0.521,2.528,1.198,4.103,2.141
			c1.53,0.987,3.336,2.21,4.979,4.007c1.638,1.76,3.277,3.972,4.519,6.441c0.357,0.62,0.63,1.246,0.925,1.888
			c0.283,0.64,0.613,1.305,0.867,1.964c0.491,1.311,1.07,2.705,1.479,4.076c0.222,0.695,0.445,1.398,0.671,2.105
			c0.213,0.706,0.391,1.404,0.589,2.12c0.192,0.717,0.385,1.438,0.579,2.163c0.168,0.736,0.337,1.476,0.506,2.219
			c0.313,1.43,0.628,2.872,0.944,4.32l0.442,2.075l0.056,0.26l0.014,0.064l0.007,0.032c0.001-0.018,0.001-0.026,0.002-0.026
			c0.002,0,0,0.198,0.002,0.198c0,0,0,0,0-0.001l0.031,0.09l0.125,0.358l0.242,0.705c0.679,1.846,1.604,3.338,2.646,4.446
			c1.043,1.115,2.185,1.876,3.384,2.47c2.392,1.162,5.194,1.736,7.833,2.008c1.211,0.121,2.372,0.169,3.424,0.169
			c1.237,0,2.322-0.067,3.156-0.16c0.772-0.088,1.333-0.195,1.622-0.29c0.08-0.021,0.137-0.044,0.166-0.068
			c0.026-0.023,0.103-0.034,0.012-0.068c-0.034-0.024-0.129-0.051-0.079-0.054c0.043-0.004,0.065-0.005,0.065-0.005l0.183-0.02
			c0.521-0.04,1.046-0.061,1.572-0.061c2.42,0,4.883,0.431,7.279,1.341c10.592,4.022,15.917,15.869,11.895,26.461
			c-3.111,8.194-10.906,13.235-19.181,13.235c-2.42,0-4.882-0.432-7.279-1.342c0,0-0.021-0.008-0.062-0.023
			c-0.034-0.015-0.254-0.061-0.454-0.11c-0.257-0.059-0.386-0.105-0.603-0.17c-0.215-0.064-0.44-0.138-0.68-0.22
			c-0.985-0.331-2.289-0.819-3.864-1.499c-3.138-1.372-7.399-3.477-12.21-6.902c-2.396-1.718-4.927-3.781-7.406-6.309
			c-2.471-2.525-4.905-5.521-6.898-9.03c-1.998-3.489-3.517-7.462-4.266-11.49c-0.766-4.031-0.77-8.057-0.248-11.738l0.22-1.369
			l0.113-0.679l0.028-0.169c0-0.003,0-0.005,0-0.005c0.001,0,0,0.147,0.002,0.147c0,0,0.001-0.01,0.002-0.037l0.008-0.032
			l0.016-0.065l0.062-0.258l0.492-2.065c0.307-1.308,0.611-2.61,0.914-3.903c0.143-0.618,0.283-1.235,0.424-1.849
			c0.115-0.622,0.231-1.241,0.346-1.856c0.11-0.616,0.238-1.245,0.332-1.85c0.085-0.603,0.168-1.2,0.252-1.794
			c0.198-1.218,0.244-2.323,0.358-3.48c0.05-0.572,0.036-1.096,0.058-1.647c0.013-0.545,0.041-1.102-0.002-1.603
			c-0.022-2.123-0.387-3.99-0.909-5.759c-0.509-1.769-1.394-3.292-2.241-4.679c-0.897-1.352-1.812-2.514-2.601-3.449
			c-0.789-0.937-1.436-1.666-1.883-2.156C229.04,105.083,228.804,104.819,228.804,104.819 M228.805,101.819
			c-0.949,0-1.87,0.451-2.446,1.262c-0.813,1.143-0.725,2.696,0.211,3.741l0.684,0.761c0.391,0.428,1.008,1.121,1.819,2.083
			c0.895,1.061,1.668,2.084,2.365,3.129c0.739,1.211,1.489,2.508,1.888,3.895c0.525,1.779,0.775,3.349,0.792,4.961
			c0.001,0.075,0.004,0.15,0.011,0.225c0.021,0.24,0.01,0.609,0,0.966l-0.008,0.31c-0.007,0.172-0.011,0.388-0.015,0.603
			c-0.005,0.317-0.01,0.591-0.033,0.854c-0.034,0.341-0.064,0.71-0.094,1.081c-0.061,0.749-0.119,1.456-0.236,2.178
			c-0.003,0.021-0.006,0.041-0.009,0.062l-0.138,0.979l-0.115,0.815c-0.051,0.328-0.123,0.707-0.193,1.085
			c-0.041,0.219-0.082,0.437-0.121,0.654l-0.149,0.798l-0.182,0.977l-0.132,0.576l-0.277,1.208l-0.266,1.136l-0.646,2.756
			l-0.452,1.898c-0.08,0.202-0.138,0.416-0.173,0.637l-0.023,0.138l-0.114,0.681l-0.223,1.388c-0.003,0.019-0.006,0.037-0.008,0.055
			c-0.6,4.231-0.506,8.629,0.271,12.719c0.787,4.231,2.381,8.53,4.609,12.421c1.901,3.347,4.378,6.592,7.357,9.638
			c2.35,2.395,4.901,4.569,7.803,6.649c4.004,2.852,8.174,5.209,12.755,7.212c1.464,0.631,2.88,1.181,4.111,1.594
			c0.261,0.089,0.522,0.174,0.772,0.25l0.131,0.04c0.197,0.061,0.371,0.113,0.637,0.175c0.086,0.021,0.174,0.042,0.252,0.06
			c2.657,0.995,5.428,1.498,8.24,1.498c9.705,0,18.54-6.096,21.985-15.17c2.229-5.872,2.04-12.26-0.535-17.989
			s-7.228-10.112-13.099-12.342c-2.687-1.02-5.494-1.536-8.345-1.536c-0.599,0-1.206,0.023-1.804,0.069
			c-0.029,0.002-0.059,0.005-0.088,0.008l-0.123,0.013c-0.022,0.001-0.049,0.004-0.077,0.006c-0.465,0.042-0.902,0.19-1.286,0.422
			c-0.14,0.021-0.307,0.043-0.502,0.065c-0.811,0.09-1.813,0.141-2.817,0.141c-1.05,0-2.101-0.052-3.125-0.155
			c-2.757-0.283-5.055-0.863-6.82-1.721c-1.012-0.501-1.814-1.083-2.504-1.821c-0.813-0.864-1.506-2.039-2.012-3.403l-0.231-0.673
			l-0.041-0.116c-0.008-0.05-0.017-0.1-0.027-0.148l0.004-0.001l-0.021-0.099l-0.057-0.265l-0.442-2.072l-0.624-2.852l-0.324-1.483
			l-0.378-1.659l-0.134-0.586c-0.008-0.037-0.018-0.074-0.027-0.11l-0.275-1.027l-0.304-1.136l-0.188-0.692
			c-0.137-0.507-0.273-1.01-0.426-1.516l-0.395-1.242l-0.281-0.883c-0.336-1.124-0.753-2.205-1.157-3.251
			c-0.129-0.335-0.257-0.667-0.379-0.992c-0.216-0.561-0.444-1.058-0.666-1.538c-0.091-0.198-0.181-0.394-0.267-0.587l-0.144-0.316
			c-0.26-0.569-0.527-1.156-0.881-1.779c-1.585-3.13-3.572-5.567-4.965-7.064c-1.858-2.032-3.839-3.381-5.548-4.484
			c-0.028-0.018-0.057-0.036-0.085-0.053c-1.407-0.842-2.806-1.572-4.402-2.298c-1.248-0.567-2.195-0.965-2.771-1.199l-0.915-0.382
			C229.585,101.895,229.192,101.819,228.805,101.819L228.805,101.819z"/>
	</g>
	<path fill="#D1D1D1" d="M410.704,122.152c0,10,3.334,35.668-15.333,44.334c-14.042,6.519-31.665,7.754-39.821-0.404
		c-1.407,4.301-1.418,9.091,0.314,13.651c4.021,10.591,15.868,15.916,26.46,11.894c0,0,0.021-0.008,0.062-0.023
		c0.034-0.015,0.254-0.061,0.454-0.11c0.257-0.059,0.386-0.105,0.603-0.17c0.215-0.064,0.44-0.138,0.68-0.22
		c0.985-0.331,2.289-0.819,3.864-1.499c3.138-1.372,7.399-3.477,12.21-6.902c2.396-1.718,4.927-3.781,7.406-6.309
		c2.471-2.525,4.905-5.521,6.898-9.03c1.998-3.489,3.517-7.462,4.266-11.49c0.766-4.031,0.77-8.057,0.248-11.738l-0.22-1.369
		l-0.113-0.679l-0.028-0.169c-0.003-0.046,0,0.242-0.005,0.105l-0.008-0.032l-0.016-0.065l-0.062-0.258l-0.492-2.065
		c-0.307-1.308-0.611-2.61-0.914-3.903c-0.143-0.618-0.283-1.235-0.424-1.849c-0.115-0.622-0.231-1.241-0.346-1.856
		c-0.11-0.616-0.238-1.245-0.332-1.85c-0.085-0.603-0.168-1.2-0.252-1.794c-0.198-1.218-0.244-2.323-0.358-3.48
		c-0.05-0.572-0.036-1.096-0.058-1.647c-0.013-0.545-0.041-1.102,0.002-1.603c0.022-2.123,0.387-3.99,0.909-5.759
		c0.509-1.769,1.394-3.292,2.241-4.679c0.897-1.352,1.812-2.514,2.601-3.449c0.789-0.937,1.436-1.666,1.883-2.156
		c0.444-0.494,0.681-0.758,0.681-0.758S410.704,112.152,410.704,122.152z"/>
	<path fill="#D1D1D1" d="M231.367,107.733c0.789,0.936,1.703,2.098,2.601,3.449c0.848,1.387,1.732,2.91,2.241,4.679
		c0.522,1.769,0.887,3.636,0.909,5.759c0.043,0.501,0.015,1.058,0.002,1.603c-0.021,0.552-0.008,1.075-0.058,1.647
		c-0.114,1.157-0.16,2.263-0.358,3.48c-0.084,0.594-0.167,1.191-0.252,1.794c-0.094,0.604-0.222,1.233-0.332,1.85
		c-0.114,0.615-0.23,1.234-0.346,1.856c-0.141,0.613-0.281,1.23-0.424,1.849c-0.303,1.293-0.607,2.596-0.914,3.903l-0.492,2.065
		l-0.062,0.258l-0.016,0.065l-0.008,0.032c-0.005,0.137-0.002-0.151-0.005-0.105l-0.028,0.169l-0.113,0.679l-0.22,1.369
		c-0.521,3.682-0.518,7.707,0.248,11.738c0.749,4.028,2.268,8.001,4.266,11.49c1.993,3.509,4.428,6.505,6.898,9.03
		c2.479,2.527,5.01,4.591,7.406,6.309c4.811,3.426,9.072,5.53,12.21,6.902c1.575,0.68,2.879,1.168,3.864,1.499
		c0.239,0.082,0.465,0.155,0.68,0.22c0.217,0.064,0.346,0.111,0.603,0.17c0.2,0.05,0.42,0.096,0.454,0.11
		c0.041,0.016,0.062,0.023,0.062,0.023c10.592,4.022,22.438-1.303,26.46-11.894c3.281-8.641,0.338-18.113-6.607-23.495
		c-1.147,8.316-7.054,16.254-20.239,13.744c-21.906-4.17-28.76-30.496-28.76-44.83s-12.233-20.333-12.233-20.333
		s0.236,0.264,0.681,0.758C229.932,106.067,230.578,106.797,231.367,107.733z"/>
	<path fill="#AF3C19" d="M397.079,305.819c0,0-12.672,1.667-17.967-1.838c0,0,16.629-3.495,28.274-17.608
		c-8.933-9.663-8.706-29.878-7.577-42.213c0.484-3.034,0.875-6.114,1.165-9.238c-0.003-0.001-0.005-0.001-0.008-0.002
		c0.11-0.673,0.181-1.05,0.181-1.05l-0.395,0.998c-4.568-1.178-9.119-2.218-13.641-3.138c0.706,3.823,1.094,7.758,1.094,11.786
		c0,11.818-3.192,20.131-8.739,25.982c3.386,7.597,8.889,15.494,17.121,15.32c-12.218,7.667-33.95,5.362-33.95,5.362
		c1.065,5.971,9.624,20.328,23.512,19.149c-10.514,6.572-32.854,19.48-87.269,21.281c7.563,1.416,15.839,2.227,24.799,2.227h0.085
		C360.455,332.839,385.755,319.319,397.079,305.819z"/>
	<g>
		<path fill="#AAAAAA" d="M238.663,232.764c-1.93,0-3.5-1.57-3.5-3.5v-21.667c0-1.93,1.57-3.5,3.5-3.5h172.034
			c1.93,0,3.5,1.57,3.5,3.5v21.667c0,1.93-1.57,3.5-3.5,3.5H238.663z"/>
		<g>
			<path d="M410.697,205.597c1.104,0,2,0.896,2,2v21.667c0,1.104-0.896,2-2,2H238.663c-1.104,0-2-0.896-2-2v-21.667
				c0-1.104,0.896-2,2-2H410.697 M410.697,202.597H238.663c-2.757,0-5,2.243-5,5v21.667c0,2.757,2.243,5,5,5h172.034
				c2.757,0,5-2.243,5-5v-21.667C415.697,204.84,413.454,202.597,410.697,202.597L410.697,202.597z"/>
		</g>
	</g>
	<g>
		<path fill="#7F7F7F" d="M410.697,205.597h-3.311v19c0,1.104-0.896,2-2,2H236.663v2.667c0,1.104,0.896,2,2,2h172.034
			c1.104,0,2-0.896,2-2v-21.667C412.697,206.492,411.802,205.597,410.697,205.597z"/>
	</g>
	<g>
		<polygon fill="#5E5E5E" stroke="#000000" stroke-width="3" stroke-miterlimit="10" points="238.596,236.053 184.8,253.832 
			142.188,290.56 109.951,233.542 163.568,215.864 206.359,179.034 		"/>
		<g>
			<path fill="#753D0E" d="M265.955,401.086c-2.7,0-5.204-1.459-6.533-3.809L155.885,214.204c-2.035-3.599-0.762-8.183,2.837-10.219
				c1.126-0.637,2.401-0.974,3.689-0.974c2.702,0,5.205,1.46,6.533,3.81l103.534,183.071c0.987,1.743,1.235,3.766,0.7,5.696
				s-1.791,3.537-3.535,4.523C268.518,400.749,267.242,401.086,265.955,401.086z"/>
			<path d="M162.411,204.512c2.092,0,4.124,1.096,5.227,3.048l103.534,183.071c1.633,2.884,0.617,6.544-2.268,8.176
				c-0.934,0.528-1.948,0.779-2.949,0.779c-2.092,0-4.124-1.096-5.228-3.047L157.19,213.466c-1.63-2.883-0.614-6.544,2.27-8.175
				C160.394,204.763,161.409,204.512,162.411,204.512 M162.411,201.512L162.411,201.512c-1.546,0-3.077,0.404-4.428,1.168
				c-4.318,2.442-5.845,7.943-3.403,12.262l103.537,183.073c1.595,2.819,4.599,4.57,7.839,4.57c1.545,0,3.076-0.404,4.426-1.168
				c2.094-1.184,3.6-3.111,4.242-5.428s0.344-4.745-0.841-6.838l-103.533-183.07C168.656,203.263,165.652,201.512,162.411,201.512
				L162.411,201.512z"/>
		</g>
		<g>
			<path fill="#512809" d="M159.46,205.291c-0.556,0.313-1.042,0.707-1.453,1.153c2.485-0.516,5.123,0.592,6.438,2.919
				L267.98,392.436c1.318,2.326,0.908,5.16-0.814,7.025c0.595-0.124,1.182-0.338,1.738-0.654c2.885-1.632,3.9-5.292,2.268-8.176
				L167.638,207.56C166.007,204.674,162.346,203.658,159.46,205.291z"/>
		</g>
		<g>
			<path fill="#E5E5E5" d="M173.36,274.522c-1.26,0-2.428-0.682-3.048-1.778l-30.543-54.022c-0.46-0.813-0.576-1.757-0.326-2.658
				s0.835-1.651,1.649-2.111l35.675-20.169c0.524-0.297,1.12-0.454,1.721-0.454c1.26,0,2.428,0.681,3.048,1.777l30.543,54.024
				c0.46,0.813,0.576,1.757,0.326,2.658c-0.25,0.901-0.836,1.651-1.65,2.111l-35.674,20.169
				C174.556,274.365,173.961,274.522,173.36,274.522L173.36,274.522z"/>
			<g>
				<path d="M178.487,194.829c0.698,0,1.375,0.366,1.743,1.016l30.543,54.023c0.544,0.961,0.205,2.182-0.756,2.725l-35.675,20.17
					c-0.311,0.176-0.649,0.26-0.983,0.26c-0.697,0-1.375-0.366-1.743-1.017l-30.543-54.022c-0.544-0.961-0.205-2.182,0.756-2.726
					l35.675-20.169C177.816,194.913,178.154,194.829,178.487,194.829 M178.487,191.829c-0.86,0-1.71,0.225-2.46,0.649
					l-35.673,20.168c-1.163,0.658-2,1.729-2.356,3.016c-0.357,1.288-0.191,2.637,0.466,3.799l30.542,54.021
					c0.886,1.566,2.554,2.54,4.354,2.54c0.859,0,1.71-0.225,2.459-0.648l35.675-20.17c1.162-0.657,1.999-1.728,2.356-3.015
					c0.357-1.288,0.191-2.637-0.466-3.799l-30.542-54.022C181.955,192.802,180.287,191.829,178.487,191.829L178.487,191.829z"/>
			</g>
		</g>
		<g>
			<path fill="#C4C4C4" d="M177.505,195.089l-3.482,1.968l27.099,47.93c0.544,0.961,0.205,2.182-0.757,2.726l-32.192,18.201
				l3.445,6.093c0.544,0.962,1.764,1.301,2.726,0.757l35.675-20.17c0.961-0.543,1.3-1.764,0.756-2.725l-30.543-54.023
				C179.687,194.884,178.466,194.545,177.505,195.089z"/>
		</g>
		<g>
			<path fill="#E5E5E5" d="M226.17,244.665c-1.261,0-2.429-0.682-3.048-1.779l-30.543-54.021c-0.46-0.814-0.576-1.758-0.326-2.659
				c0.25-0.901,0.836-1.65,1.65-2.11l35.674-20.17c0.524-0.297,1.12-0.454,1.721-0.454c1.26,0,2.429,0.682,3.049,1.778
				l30.544,54.022c0.948,1.68,0.354,3.819-1.323,4.769l-35.676,20.17C227.366,244.508,226.771,244.665,226.17,244.665
				L226.17,244.665z"/>
			<g>
				<path d="M231.297,164.971c0.697,0,1.375,0.366,1.743,1.017l30.544,54.022c0.543,0.962,0.204,2.182-0.757,2.726l-35.675,20.17
					c-0.311,0.176-0.649,0.259-0.982,0.259c-0.697,0-1.375-0.365-1.742-1.016l-30.544-54.022c-0.544-0.962-0.205-2.182,0.757-2.726
					l35.674-20.17C230.625,165.055,230.963,164.971,231.297,164.971 M231.297,161.971c-0.86,0-1.71,0.225-2.46,0.649l-35.672,20.169
					c-2.4,1.357-3.249,4.414-1.892,6.813l30.544,54.022c0.884,1.565,2.552,2.54,4.354,2.54c0.859,0,1.709-0.224,2.458-0.647
					l35.676-20.17c2.398-1.357,3.247-4.413,1.893-6.812l-30.545-54.024C234.766,162.944,233.097,161.971,231.297,161.971
					L231.297,161.971z"/>
			</g>
		</g>
		<g>
			<path fill="#C4C4C4" d="M230.314,165.23l-3.482,1.969l27.1,47.929c0.543,0.962,0.204,2.182-0.758,2.726l-32.191,18.201
				l3.445,6.094c0.543,0.962,1.764,1.3,2.725,0.757l35.675-20.17c0.961-0.544,1.3-1.764,0.757-2.726l-30.544-54.022
				C232.496,165.025,231.275,164.687,230.314,165.23z"/>
		</g>
		<g>
			<path fill="#E5E5E5" d="M120.839,304.217c-1.26,0-2.428-0.682-3.048-1.778l-30.544-54.022c-0.949-1.681-0.354-3.82,1.324-4.77
				l35.675-20.17c0.525-0.296,1.12-0.453,1.72-0.453c1.261,0,2.43,0.681,3.049,1.778l30.543,54.022
				c0.46,0.813,0.576,1.759,0.326,2.659c-0.25,0.901-0.836,1.651-1.65,2.111l-35.674,20.169
				C122.036,304.06,121.44,304.217,120.839,304.217L120.839,304.217z"/>
			<g>
				<path d="M125.966,224.523c0.698,0,1.376,0.365,1.743,1.016l30.544,54.022c0.544,0.962,0.205,2.183-0.757,2.727l-35.674,20.169
					c-0.311,0.176-0.649,0.26-0.983,0.26c-0.697,0-1.375-0.366-1.743-1.017l-30.544-54.022c-0.543-0.962-0.205-2.182,0.757-2.726
					l35.675-20.17C125.295,224.606,125.633,224.523,125.966,224.523 M125.966,221.523c-0.858,0-1.708,0.224-2.458,0.647
					l-35.675,20.17c-2.398,1.356-3.248,4.412-1.893,6.812l30.545,54.024c0.886,1.566,2.554,2.54,4.354,2.54
					c0.859,0,1.71-0.225,2.459-0.648l35.674-20.169c2.4-1.357,3.249-4.414,1.892-6.814l-30.544-54.022
					C129.436,222.497,127.767,221.523,125.966,221.523L125.966,221.523z"/>
			</g>
		</g>
		<g>
			<path fill="#C4C4C4" d="M124.984,224.782l-3.482,1.969l27.099,47.93c0.544,0.961,0.205,2.182-0.757,2.726l-32.192,18.2
				l3.445,6.094c0.544,0.962,1.764,1.301,2.726,0.757l35.674-20.169c0.962-0.544,1.301-1.765,0.757-2.727l-30.544-54.022
				C127.166,224.578,125.945,224.239,124.984,224.782z"/>
		</g>
	</g>
	<g>
		<path fill="#AAAAAA" d="M234.273,356.791c-10.891,0-19.752-8.86-19.752-19.752c0-10.891,8.861-19.751,19.752-19.751
			s19.752,8.86,19.752,19.751C254.025,347.931,245.165,356.791,234.273,356.791z"/>
		<g>
			<path d="M234.273,318.788c10.08,0,18.252,8.171,18.252,18.251s-8.172,18.252-18.252,18.252s-18.252-8.172-18.252-18.252
				S224.193,318.788,234.273,318.788 M234.273,315.788c-11.718,0-21.252,9.533-21.252,21.251c0,11.719,9.534,21.252,21.252,21.252
				s21.252-9.533,21.252-21.252C255.525,325.321,245.992,315.788,234.273,315.788L234.273,315.788z"/>
		</g>
	</g>
	<path fill="#7F7F7F" d="M252.525,337.039c0-0.033-0.004-0.067-0.004-0.102c-5.883,8.953-16.234,9.57-22.869,5.59
		c-7.067-4.238-8.847-12.208-7.813-18.822c-3.572,3.332-5.818,8.064-5.818,13.334c0,10.08,8.172,18.252,18.252,18.252
		S252.525,347.119,252.525,337.039z"/>
	<g>
		<path fill="#DB5526" d="M360.132,323.846c-0.305,0-0.608-0.093-0.866-0.275c-5.926-4.194-35.46-25.986-35.023-43.126
			c0.126-4.946,2.668-9.025,7.555-12.124c1.977-1.253,4.066-1.889,6.211-1.889c3.492,0,7.013,1.714,10.183,4.956
			c8.934,9.14,13.959,28.202,13.441,50.992c-0.013,0.555-0.33,1.057-0.826,1.306C360.593,323.793,360.362,323.846,360.132,323.846z"
			/>
		<g>
			<path d="M338.008,267.932c11.264,0,22.895,20.511,22.124,54.414c-17.525-12.406-48.106-39.713-27.531-52.759
				C334.356,268.474,336.178,267.932,338.008,267.932 M338.008,264.932L338.008,264.932c-2.434,0-4.794,0.714-7.014,2.122
				c-5.336,3.383-8.112,7.875-8.252,13.353c-0.444,17.451,27.18,38.387,35.656,44.388c0.517,0.366,1.123,0.552,1.733,0.552
				c0.46,0,0.922-0.105,1.348-0.32c0.991-0.498,1.626-1.503,1.651-2.611c0.527-23.185-4.658-42.652-13.869-52.075
				C345.804,266.802,341.912,264.932,338.008,264.932L338.008,264.932z"/>
		</g>
	</g>
	<path fill="#AF3C19" d="M332.601,269.587c-1.173,0.744-2.17,1.535-3.022,2.366c21.158,4.717,30.554,50.393,30.554,50.393
		C361.027,282.934,345.165,261.62,332.601,269.587z"/>
	<path fill="#7F7F7F" d="M344.179,352.103h35.38v-10.177h-36.606c2.417,0,10.182,1.615,10.182,5.089
		S347.486,352.103,344.179,352.103z"/>
	<g>
		<path fill="#DB5526" d="M303.643,243.456l-33.982-3.1c-0.449-0.041-0.856-0.282-1.108-0.657c-0.252-0.375-0.321-0.843-0.189-1.275
			l3.168-10.368c0.125-0.409,0.419-0.746,0.808-0.924c0.199-0.091,0.413-0.137,0.627-0.137c0.204,0,0.409,0.042,0.601,0.125
			l30.814,13.468c0.675,0.295,1.035,1.035,0.853,1.748c-0.172,0.667-0.774,1.126-1.452,1.126
			C303.735,243.462,303.689,243.46,303.643,243.456z"/>
		<g>
			<path d="M272.965,228.494l30.814,13.468l-33.982-3.1L272.965,228.494 M272.965,225.494c-0.428,0-0.856,0.092-1.254,0.274
				c-0.777,0.358-1.365,1.03-1.615,1.849l-3.168,10.368c-0.264,0.863-0.125,1.8,0.379,2.55s1.318,1.232,2.218,1.314l33.982,3.1
				c0.092,0.008,0.184,0.012,0.274,0.012c1.356,0,2.561-0.917,2.903-2.253c0.366-1.425-0.355-2.906-1.704-3.496l-30.814-13.468
				C273.783,225.578,273.374,225.494,272.965,225.494L272.965,225.494z"/>
		</g>
	</g>
	<g>
		<path fill="#DB5526" d="M343.002,243.462c-0.679,0-1.28-0.459-1.452-1.126c-0.183-0.713,0.178-1.453,0.853-1.748l30.814-13.468
			c0.191-0.083,0.396-0.125,0.601-0.125c0.214,0,0.428,0.046,0.627,0.137c0.389,0.179,0.683,0.515,0.808,0.924l3.168,10.368
			c0.132,0.432,0.063,0.9-0.189,1.275c-0.252,0.375-0.659,0.616-1.108,0.657l-33.982,3.1
			C343.093,243.46,343.047,243.462,343.002,243.462z"/>
		<g>
			<path d="M373.817,228.494l3.168,10.368l-33.982,3.1L373.817,228.494 M373.817,225.494c-0.409,0-0.818,0.083-1.201,0.251
				l-30.814,13.468c-1.349,0.589-2.07,2.07-1.704,3.496c0.343,1.336,1.547,2.253,2.903,2.253c0.091,0,0.183-0.004,0.274-0.012
				l33.982-3.1c0.899-0.082,1.714-0.565,2.218-1.314s0.643-1.687,0.379-2.55l-3.168-10.368c-0.25-0.819-0.838-1.491-1.615-1.849
				C374.674,225.586,374.245,225.494,373.817,225.494L373.817,225.494z"/>
		</g>
	</g>
</g>
</svg>
