<?xml version="1.0" encoding="utf-8"?>
<!-- Generator: Adobe Illustrator 16.0.0, SVG Export Plug-In . SVG Version: 6.00 Build 0)  -->
<!DOCTYPE svg PUBLIC "-//W3C//DTD SVG 1.1//EN" "http://www.w3.org/Graphics/SVG/1.1/DTD/svg11.dtd">
<svg version="1.1" id="Layer_1" xmlns="http://www.w3.org/2000/svg" xmlns:xlink="http://www.w3.org/1999/xlink" x="0px" y="0px"
	 width="512px" height="512px" viewBox="0 0 512 512" enable-background="new 0 0 512 512" xml:space="preserve">
<g>
	<g>
		<path fill="#AF180C" d="M200.391,133.947c3.146-9.438,12.805-20.46,29.674-20.46c2.481,0,5.092,0.238,7.758,0.707
			c2.322,0.408,4.652,0.615,6.928,0.615c3.912,0,7.742-0.601,11.439-1.792c-11.293-2.174-21.275-8.445-25.658-14.104l-3.982-5.144
			l5.833,2.88c6.477,3.198,13.163,4.819,19.875,4.819c16.747,0,29.848-10.016,35.444-14.293
			c15.883-12.147,30.975-13.958,38.559-13.958c16.301,0,29.563,13.262,29.563,29.563c0,16.301-13.262,29.563-29.563,29.563
			c-8.137,0-15.89-3.357-21.468-9.253c-11.415,6.685-26.766,10.807-40.402,10.807c-2.9,0-5.645-0.194-8.155-0.578l-8.684-1.326
			l8.632-1.631c0.918-0.173,1.819-0.375,2.703-0.605c-3.066,0.327-6.214,0.494-9.389,0.494c-8.385,0-15.059-1.157-18.226-2.147
			c-1.763-0.551-3.815-0.831-6.1-0.831c-9.064,0-18.811,4.206-22.226,8.133l-4.932,5.671L200.391,133.947z"/>
		<path d="M326.26,74.717c15.5,0,28.063,12.564,28.063,28.063c0,15.499-12.563,28.063-28.063,28.063
			c-8.461,0-16.039-3.75-21.184-9.672c-11.835,7.258-27.702,11.226-40.687,11.226c-2.799,0-5.467-0.185-7.929-0.561
			c5.732-1.083,10.484-3.196,14.533-5.894c-7.301,2.073-14.854,2.808-21.497,2.808c-7.835,0-14.402-1.023-17.778-2.079
			c-1.985-0.621-4.215-0.899-6.547-0.899c-8.941,0-19.393,4.089-23.358,8.649c2.427-7.282,10.698-19.434,28.251-19.434
			c2.333,0,4.83,0.215,7.499,0.684c2.511,0.441,4.908,0.638,7.188,0.638c6.916,0,12.741-1.808,17.319-4.063
			c-12.777-0.729-25.216-7.62-30.352-14.253c7.259,3.584,14.167,4.975,20.539,4.975c17.281,0,30.626-10.223,36.381-14.622
			C304.447,76.256,319.541,74.717,326.26,74.717 M326.26,71.717c-7.774,0-23.235,1.851-39.443,14.246
			c-5.501,4.205-18.32,14.005-34.559,14.005c-6.479,0-12.942-1.569-19.21-4.665l-11.666-5.76l7.965,10.287
			c3.846,4.967,11.406,10.187,20.494,13.119c-1.677,0.24-3.375,0.36-5.089,0.36c-2.188,0-4.432-0.199-6.668-0.592
			c-2.752-0.484-5.45-0.729-8.018-0.729c-17.667,0-27.794,11.574-31.098,21.485l-4.753,14.26l9.863-11.342
			c3.133-3.603,12.567-7.618,21.094-7.618c2.133,0,4.035,0.256,5.652,0.762c2.384,0.746,6.356,1.526,11.432,1.933l-3.615,0.683
			l17.368,2.652c2.585,0.395,5.406,0.595,8.381,0.595c13.487,0,28.626-3.962,40.144-10.43c5.788,5.669,13.574,8.876,21.727,8.876
			c17.128,0,31.063-13.935,31.063-31.063C357.322,85.651,343.388,71.717,326.26,71.717L326.26,71.717z"/>
	</g>
	<path fill="#7F0E09" d="M231.719,126.671c6.239,1.951,23.363,3.789,39.275-0.729c6.555-2.229,8.82-6.521,13.82-11.021
		c-12.375,7.625-25.125,11.125-37.501,9.875c-12.375-1.25-17.875-3.75-30.625,0s-14.875,9.625-14.875,9.625
		C206.813,128.671,222.124,123.671,231.719,126.671z"/>
	<path fill="#7F0E09" d="M326.26,74.717c-1.689,0-3.91,0.098-6.539,0.437c11.648,2.727,24.875,8.431,27.119,20.351
		c4.141,22-8.193,32-8.193,32c0.158,0.08,0.318,0.14,0.477,0.215c9.025-4.665,15.199-14.078,15.199-24.939
		C354.322,87.281,341.76,74.717,326.26,74.717z"/>
	<g>
		<path fill="#FFFFFF" d="M324.516,119.505c-9.394,0-17.035-7.642-17.035-17.035s7.642-17.035,17.035-17.035
			s17.035,7.642,17.035,17.035S333.909,119.505,324.516,119.505z"/>
		<path d="M324.516,86.935c8.58,0,15.535,6.955,15.535,15.535s-6.955,15.535-15.535,15.535s-15.535-6.955-15.535-15.535
			S315.936,86.935,324.516,86.935 M324.516,83.935c-10.221,0-18.535,8.315-18.535,18.535s8.314,18.535,18.535,18.535
			s18.535-8.315,18.535-18.535S334.736,83.935,324.516,83.935L324.516,83.935z"/>
	</g>
	<g>
		<path fill="#AFAFAF" d="M324.516,86.935c-0.818,0-1.615,0.082-2.398,0.203c7.439,1.156,13.139,7.569,13.139,15.332
			s-5.699,14.176-13.139,15.332c0.783,0.121,1.58,0.203,2.398,0.203c8.58,0,15.535-6.955,15.535-15.535
			S333.096,86.935,324.516,86.935z"/>
	</g>
	<ellipse fill="#D3D3D3" cx="324.181" cy="426.925" rx="83.454" ry="13.358"/>
	<g>
		<polygon fill="#561108" points="261.556,420.479 273.562,320.224 376.257,320.224 388.265,420.479 		"/>
		<path d="M374.926,321.724l11.648,97.256H263.246l11.646-97.256H374.926 M377.588,318.724h-2.662H274.893h-2.662l-0.316,2.644
			l-11.646,97.256l-0.402,3.356h3.381h123.328h3.381l-0.402-3.356l-11.648-97.256L377.588,318.724L377.588,318.724z"/>
	</g>
	<g>
		<polygon fill="#AF180C" points="248.835,415.976 272.632,328.111 275.57,328.679 263.381,432.786 		"/>
		<path d="M274.08,328.504l-11.793,100.726l-11.796-13.632L274.08,328.504 M271.185,327.72l-23.589,87.094l-0.417,1.54l1.044,1.207
			l11.796,13.632l4.456,5.15l0.792-6.765l11.793-100.726L271.185,327.72L271.185,327.72z"/>
	</g>
	<g>
		<polygon fill="#AF180C" points="375.965,328.679 378.903,328.111 402.699,415.976 388.154,432.786 		"/>
		<path d="M377.455,328.504l23.588,87.094l-11.795,13.632L377.455,328.504 M380.351,327.72l-5.875,1.133l11.793,100.726l0.792,6.765
			l4.456-5.15l11.795-13.632l1.044-1.207l-0.417-1.54L380.351,327.72L380.351,327.72z"/>
	</g>
	<g>
		<path fill="#AAAAAA" d="M262.117,351.87c-1.111,0-1.794-0.043-1.976-0.056c-0.825-0.059-1.446-0.774-1.39-1.599l0.65-9.452
			c0.054-0.792,0.713-1.397,1.494-1.397c0.034,0,0.067,0.001,0.102,0.003c0.113,0.008,0.545,0.031,1.232,0.031
			c5.421,0,23.874-1.383,33.715-19.176c0.273-0.495,0.786-0.774,1.313-0.774c0.246,0,0.495,0.061,0.725,0.188l8.291,4.584
			c0.349,0.192,0.605,0.516,0.716,0.897c0.11,0.383,0.063,0.793-0.129,1.141C293.721,350.023,269.291,351.87,262.117,351.87z"/>
		<g>
			<path d="M297.258,320.95l8.291,4.584c-12.77,23.092-36.551,24.836-43.432,24.836c-1.051,0-1.705-0.04-1.869-0.052l0.65-9.452
				c0.123,0.008,0.589,0.034,1.332,0.034C267.528,340.9,286.958,339.574,297.258,320.95 M297.261,317.949
				c-1.057,0-2.081,0.56-2.628,1.549c-9.443,17.075-27.188,18.402-32.402,18.402c-0.708,0-1.116-0.026-1.133-0.027
				c-0.068-0.005-0.136-0.007-0.202-0.007c-1.563,0-2.881,1.212-2.99,2.794l-0.65,9.452c-0.113,1.65,1.13,3.081,2.779,3.198
				c0.195,0.014,0.922,0.06,2.083,0.06c7.382,0,32.519-1.902,46.057-26.384c0.386-0.696,0.479-1.518,0.258-2.282
				c-0.22-0.765-0.735-1.41-1.432-1.795l-8.291-4.584C298.249,318.07,297.751,317.949,297.261,317.949L297.261,317.949z"/>
		</g>
	</g>
	<g>
		<path fill="#7F7F7F" d="M302.914,324.077c-12.996,21.242-35.615,22.892-42.297,22.892c-0.053,0-0.09-0.001-0.139-0.001
			l-0.23,3.351c0.164,0.012,0.818,0.052,1.869,0.052c6.881,0,30.662-1.744,43.432-24.836L302.914,324.077z"/>
	</g>
	<g>
		<path d="M282.252,347.852c-0.242,0-0.484-0.059-0.703-0.175c-0.395-0.21-0.675-0.583-0.766-1.021
			c-0.599-2.885-1.51-5.865-2.707-8.856c-0.301-0.751,0.048-1.604,0.788-1.931c5.355-2.359,9.885-5.809,13.464-10.253
			c0.289-0.359,0.721-0.56,1.168-0.56c0.134,0,0.27,0.018,0.402,0.055l5.162,1.438c0.402,0.112,0.739,0.387,0.931,0.758l2.283,4.43
			c0.271,0.525,0.208,1.161-0.161,1.624c-5.087,6.369-11.577,11.207-19.291,14.379C282.64,347.814,282.445,347.852,282.252,347.852z
			"/>
		<g>
			<path d="M293.496,326.557l5.162,1.438l2.283,4.43c-5.604,7.017-12.328,11.313-18.689,13.928
				c-0.693-3.339-1.715-6.439-2.783-9.109C284.281,335.122,289.287,331.784,293.496,326.557 M293.496,323.557
				c-0.894,0-1.759,0.4-2.337,1.118c-3.426,4.256-7.767,7.561-12.899,9.822c-1.48,0.651-2.177,2.358-1.576,3.859
				c1.164,2.911,2.05,5.806,2.631,8.605c0.182,0.873,0.742,1.621,1.531,2.039c0.438,0.233,0.922,0.351,1.406,0.351
				c0.387,0,0.774-0.075,1.141-0.226c7.952-3.269,14.645-8.259,19.893-14.83c0.738-0.924,0.864-2.195,0.323-3.246l-2.283-4.43
				c-0.383-0.743-1.058-1.292-1.862-1.516l-5.162-1.438C294.035,323.593,293.764,323.557,293.496,323.557L293.496,323.557z"/>
		</g>
	</g>
	<g>
		<path d="M366.144,373.803c-0.25,0-0.503-0.063-0.736-0.193l-8.709-4.916c-0.347-0.196-0.602-0.521-0.708-0.904
			c-0.106-0.384-0.057-0.794,0.14-1.14c4.427-7.839,5.632-14.543,3.582-19.925c-2.973-7.809-12.141-11.18-12.233-11.213
			c-0.771-0.276-1.185-1.124-0.919-1.899l3.234-9.463c0.128-0.376,0.401-0.687,0.759-0.861c0.207-0.102,0.434-0.153,0.66-0.153
			c0.164,0,0.328,0.026,0.485,0.081c0.609,0.208,14.979,5.263,20.163,18.884c3.49,9.168,2.006,19.578-4.411,30.94
			C367.175,373.528,366.667,373.803,366.144,373.803z"/>
		<g>
			<path d="M351.213,324.635c0.582,0.199,14.307,5.02,19.246,17.998c3.324,8.731,1.873,18.714-4.314,29.67l-8.709-4.916
				c4.656-8.245,5.895-15.376,3.678-21.196c-3.236-8.503-13.037-12.06-13.135-12.093L351.213,324.635 M351.213,321.635
				c-0.453,0-0.905,0.103-1.32,0.307c-0.715,0.35-1.261,0.97-1.519,1.723l-3.234,9.463c-0.258,0.754-0.205,1.579,0.146,2.294
				s0.973,1.261,1.727,1.517c0.042,0.017,8.587,3.199,11.297,10.32c1.884,4.946,0.711,11.222-3.486,18.653
				c-0.392,0.693-0.491,1.514-0.278,2.28c0.214,0.767,0.723,1.417,1.416,1.808l8.709,4.916c0.466,0.264,0.973,0.389,1.472,0.389
				c1.047,0,2.063-0.549,2.615-1.525c6.646-11.77,8.163-22.607,4.506-32.213c-5.432-14.271-20.442-19.551-21.078-19.769
				C351.869,321.688,351.54,321.635,351.213,321.635L351.213,321.635z"/>
		</g>
	</g>
	<g>
		<path fill="#FFFFFF" d="M295.197,374.569c-0.828,0-1.5-0.672-1.5-1.5v-14.774l-4.635-31.889c-0.076-0.521,0.128-1.044,0.536-1.378
			l7.459-6.091c3.113-4.104,8.01-6.547,13.14-6.547h29.176c5.142,0,10.046,2.453,13.16,6.572l7.428,6.065
			c0.407,0.334,0.611,0.856,0.535,1.378l-4.623,31.808v14.855c0,0.828-0.672,1.5-1.5,1.5H295.197z"/>
		<g>
			<path d="M339.373,313.891c4.955,0,9.336,2.413,12.068,6.117l7.57,6.183l-4.639,31.915v14.964c-10.572,0-45.354,0-59.176,0
				v-14.883l-4.65-31.996l7.602-6.207c2.732-3.69,7.105-6.093,12.049-6.093H339.373 M339.373,310.891h-29.176
				c-5.536,0-10.823,2.607-14.224,6.995l-7.324,5.981c-0.816,0.666-1.223,1.712-1.071,2.755l4.619,31.781v14.666
				c0,1.657,1.343,3,3,3h59.176c1.657,0,3-1.343,3-3v-14.747l4.607-31.7c0.151-1.043-0.255-2.089-1.071-2.755l-7.291-5.955
				C350.217,313.508,344.922,310.891,339.373,310.891L339.373,310.891z"/>
		</g>
	</g>
	<path fill="#AFAFAF" d="M359.012,326.19l-7.57-6.183c-2.732-3.704-7.113-6.117-12.068-6.117h-11.891l-0.635,10.389
		c0,0,28.988-7.91,17.898,51.302c3.475,0.241,6.674,0.007,9.627-0.606v-16.869L359.012,326.19z"/>
	<g>
		<path d="M332.074,430.367c-0.828,0-1.5-0.672-1.5-1.5v-22.125c0-3.192-2.597-5.789-5.789-5.789s-5.789,2.597-5.789,5.789v22.125
			c0,0.828-0.672,1.5-1.5,1.5h-17.299c-0.761,0-1.401-0.569-1.49-1.325l-5-42.667c-0.061-0.523,0.156-1.04,0.573-1.361
			l16.994-13.131c0.263-0.203,0.585-0.313,0.917-0.313h22.504c0.296,0,0.586,0.088,0.833,0.252l19.678,13.131
			c0.469,0.313,0.723,0.862,0.657,1.423l-5,42.667c-0.089,0.756-0.729,1.325-1.49,1.325H332.074z"/>
		<g>
			<path d="M334.695,373.069l19.678,13.131l-5,42.667h-17.299v-22.125c0-4.025-3.264-7.289-7.289-7.289s-7.289,3.264-7.289,7.289
				v22.125h-17.299l-5-42.667l16.994-13.131H334.695 M334.695,370.069h-22.504c-0.664,0-1.309,0.22-1.834,0.626l-16.994,13.131
				c-0.833,0.644-1.269,1.678-1.146,2.724l5,42.667c0.177,1.511,1.458,2.65,2.979,2.65h17.299c1.657,0,3-1.343,3-3v-22.125
				c0-2.365,1.924-4.289,4.289-4.289s4.289,1.924,4.289,4.289v22.125c0,1.657,1.343,3,3,3h17.299c1.521,0,2.803-1.14,2.979-2.65
				l5-42.667c0.132-1.12-0.376-2.219-1.314-2.845l-19.678-13.131C335.867,370.245,335.288,370.069,334.695,370.069L334.695,370.069z
				"/>
		</g>
	</g>
	<path fill="#727272" d="M295.197,379.949c2.635-2.963,9.783-3.543,13.553-3.635h-13.553V379.949z"/>
	<path fill="#EFB886" stroke="#000000" stroke-width="3" stroke-linecap="round" stroke-miterlimit="10" d="M312.857,294.152
		c0,0,12.262,6.131,26.303,0"/>
	<path fill="#512809" d="M335.119,376.2h19.254v-9.886h-19.197c2.348,1.339,3.967,2.762,3.994,4.15
		C339.205,372.224,337.701,374.257,335.119,376.2z"/>
	<g>
		<path fill="#FFFFFF" d="M295.197,399.273c-0.281,0-0.562-0.079-0.806-0.235c-0.433-0.275-0.694-0.752-0.694-1.265v-21.459
			c0-0.828,0.672-1.5,1.5-1.5h13.26c0.43,0,0.839,0.185,1.124,0.507c0.284,0.322,0.417,0.751,0.364,1.178
			c-1.156,9.344-5.284,15.195-8.544,18.459c-2.918,2.921-5.464,4.125-5.57,4.175C295.629,399.227,295.413,399.273,295.197,399.273z"
			/>
		<g>
			<path d="M308.457,376.314c-1.086,8.775-4.867,14.33-8.117,17.584c-2.764,2.767-5.143,3.875-5.143,3.875v-3.875v-17.584H308.457
				 M308.457,373.314h-13.26c-1.657,0-3,1.343-3,3v17.584v3.875c0,1.025,0.523,1.979,1.388,2.53c0.489,0.312,1.05,0.47,1.612,0.47
				c0.432,0,0.864-0.093,1.267-0.28c0.293-0.137,2.948-1.421,5.998-4.475c3.427-3.43,7.764-9.568,8.973-19.336
				c0.105-0.854-0.16-1.711-0.729-2.354C310.136,373.684,309.316,373.314,308.457,373.314L308.457,373.314z"/>
		</g>
	</g>
	<g>
		<path fill="#AAAAAA" d="M354.465,400.001c-0.216,0-0.433-0.047-0.634-0.141c-0.11-0.051-2.733-1.293-5.744-4.306
			c-3.364-3.366-7.625-9.405-8.819-19.056c-0.053-0.427,0.08-0.855,0.364-1.178c0.285-0.322,0.694-0.507,1.124-0.507h13.709
			c0.828,0,1.5,0.672,1.5,1.5v22.187c0,0.513-0.262,0.989-0.694,1.265C355.026,399.922,354.746,400.001,354.465,400.001z"/>
		<g>
			<path d="M354.465,376.314v18.18v4.007c0,0-2.459-1.146-5.316-4.007c-3.361-3.363-7.27-9.107-8.393-18.18H354.465
				 M354.465,373.314h-13.709c-0.859,0-1.679,0.369-2.248,1.014c-0.569,0.644-0.835,1.502-0.729,2.354
				c1.247,10.074,5.718,16.399,9.248,19.933c3.141,3.144,5.87,4.465,6.171,4.604c0.403,0.188,0.836,0.281,1.268,0.281
				c0.563,0,1.123-0.158,1.612-0.47c0.864-0.551,1.388-1.505,1.388-2.53v-4.007v-18.18
				C357.465,374.657,356.122,373.314,354.465,373.314L354.465,373.314z"/>
		</g>
	</g>
	<g>
		<path fill="#AFAFAF" d="M304.332,376.314c-1.529,6.776-4.709,11.279-7.502,14.074c-0.566,0.567-1.115,1.061-1.633,1.493v2.017
			v3.875c0,0,2.379-1.108,5.143-3.875c3.25-3.254,7.031-8.809,8.117-17.584H304.332z"/>
	</g>
	<g>
		<path fill="#FFFFFF" d="M324.84,399.876c-0.289,0-0.578-0.083-0.829-0.25c-14.242-9.451-12.985-25.986-12.925-26.686
			c0.066-0.775,0.716-1.371,1.494-1.371h24.521c0.778,0,1.428,0.596,1.494,1.371c0.061,0.699,1.317,17.234-12.927,26.686
			C325.418,399.793,325.129,399.876,324.84,399.876z"/>
		<g>
			<path d="M337.102,373.069c0,0,1.404,16.239-12.262,25.307c-13.664-9.067-12.26-25.307-12.26-25.307h12.26H337.102
				 M337.102,370.069H324.84h-12.26c-1.557,0-2.854,1.19-2.989,2.741c-0.063,0.735-1.385,18.128,13.59,28.065
				c0.503,0.333,1.081,0.5,1.659,0.5s1.156-0.167,1.658-0.5c14.978-9.938,13.656-27.329,13.593-28.065
				C339.956,371.26,338.658,370.069,337.102,370.069L337.102,370.069z"/>
		</g>
	</g>
	<g>
		<path fill="#7F7F7F" d="M337.102,373.069h-7.195c0,0,3.043,9.908-5.066,25.307C338.506,389.309,337.102,373.069,337.102,373.069z"
			/>
	</g>
	<polygon fill="#FFFFFF" stroke="#000000" stroke-width="3" stroke-linejoin="round" stroke-miterlimit="10" points="
		297.943,409.639 300.197,428.867 317.496,428.867 317.496,409.639 	"/>
	<polygon fill="#7F7F7F" points="310.027,409.639 310.889,428.867 317.496,428.867 317.496,409.639 	"/>
	<polygon fill="#FFFFFF" stroke="#000000" stroke-width="3" stroke-linejoin="round" stroke-miterlimit="10" points="
		351.627,409.639 349.373,428.867 332.074,428.867 332.074,409.639 	"/>
	<polygon fill="#7F7F7F" points="342.969,409.639 342.969,428.867 349.373,428.867 351.627,409.639 	"/>
	<g>
		<path fill="#FFFFFF" d="M297.064,430.366c-0.828,0-1.5-0.672-1.5-1.5c0-6.014,3.98-10.906,8.873-10.906h8.836
			c4.893,0,8.873,4.893,8.873,10.906c0,0.828-0.672,1.5-1.5,1.5H297.064z"/>
		<g>
			<path d="M313.273,419.46c4.072,0,7.373,4.212,7.373,9.406h-23.582c0-5.194,3.301-9.406,7.373-9.406H313.273 M313.273,416.46
				h-8.836c-5.72,0-10.373,5.565-10.373,12.406c0,1.657,1.343,3,3,3h23.582c1.657,0,3-1.343,3-3
				C323.646,422.025,318.993,416.46,313.273,416.46L313.273,416.46z"/>
		</g>
	</g>
	<g>
		<path fill="#FFFFFF" d="M328.881,430.366c-0.828,0-1.5-0.672-1.5-1.5c0-6.014,3.98-10.906,8.873-10.906h8.836
			c4.894,0,8.875,4.893,8.875,10.906c0,0.828-0.672,1.5-1.5,1.5H328.881z"/>
		<g>
			<path d="M345.09,419.46c4.072,0,7.375,4.212,7.375,9.406h-23.584c0-5.194,3.301-9.406,7.373-9.406H345.09 M345.09,416.46h-8.836
				c-5.72,0-10.373,5.565-10.373,12.406c0,1.657,1.343,3,3,3h23.584c1.657,0,3-1.343,3-3
				C355.465,422.025,350.811,416.46,345.09,416.46L345.09,416.46z"/>
		</g>
	</g>
	<path fill="#7F7F7F" d="M320.646,428.866c0-5.194-3.301-9.406-7.373-9.406h-2.123c2.752,0.613,4.131,2.137,4.643,3.699
		c0.572,1.75,0.477,3.849-0.625,5.707H320.646z"/>
	<path fill="#7F7F7F" d="M352.465,428.866c0-5.194-3.303-9.406-7.375-9.406h-2.121c2.75,0.613,4.129,2.137,4.641,3.699
		c0.574,1.75,0.477,3.849-0.623,5.707H352.465z"/>
	<g>
		<path fill="#FFFFFF" d="M298.992,412.988c-2.717,0-4.928-2.211-4.928-4.928c0-0.955,0.274-1.878,0.796-2.679
			c0.042-0.072,0.09-0.143,0.146-0.208l12.08-14.552c0.285-0.344,0.708-0.542,1.154-0.542s0.869,0.198,1.154,0.542l11.636,14.015
			c0.067,0.073,0.131,0.151,0.191,0.23l0.252,0.305c0.03,0.036,0.059,0.074,0.086,0.113c0.562,0.824,0.858,1.783,0.858,2.775
			c0,2.717-2.211,4.928-4.928,4.928H298.992z"/>
		<g>
			<path d="M308.24,391.58l11.67,14.057c0.066,0.064,0.119,0.144,0.178,0.215l0.232,0.279h-0.002c0.377,0.55,0.6,1.215,0.6,1.93
				c0,1.895-1.535,3.428-3.428,3.428h-18.498c-1.893,0-3.428-1.533-3.428-3.428c0-0.715,0.223-1.38,0.6-1.93h-0.004l0.346-0.417
				c0.021-0.024,0.039-0.053,0.064-0.076L308.24,391.58 M308.24,388.58L308.24,388.58c-0.893,0-1.738,0.397-2.309,1.084
				l-11.616,13.993c-0.053,0.06-0.097,0.113-0.133,0.159l-0.332,0.399c-0.101,0.121-0.19,0.249-0.269,0.382
				c-0.666,1.036-1.018,2.229-1.018,3.463c0,3.544,2.884,6.428,6.428,6.428h18.498c3.544,0,6.428-2.884,6.428-6.428
				c0-1.253-0.362-2.464-1.049-3.512c-0.072-0.117-0.153-0.229-0.243-0.337l-0.232-0.279c-0.04-0.054-0.121-0.16-0.238-0.288
				l-11.606-13.98C309.979,388.978,309.133,388.58,308.24,388.58L308.24,388.58z"/>
		</g>
	</g>
	<g>
		<path fill="#FFFFFF" d="M332.602,412.988c-2.716,0-4.926-2.211-4.926-4.928c0-0.996,0.298-1.957,0.86-2.778
			c0.024-0.035,0.05-0.069,0.077-0.103l0.342-0.417c0.023-0.028,11.742-14.141,11.742-14.141c0.285-0.344,0.708-0.542,1.154-0.542
			s0.869,0.198,1.154,0.542l11.64,14.021c0.061,0.065,0.117,0.136,0.173,0.207l0.269,0.326c0.028,0.035,0.057,0.072,0.082,0.109
			c0.562,0.824,0.858,1.783,0.858,2.775c0,2.717-2.211,4.928-4.928,4.928H332.602z"/>
		<g>
			<path d="M341.852,391.58l11.67,14.057c0.064,0.064,0.117,0.144,0.178,0.215l0.23,0.279h-0.002c0.377,0.55,0.6,1.215,0.6,1.93
				c0,1.895-1.535,3.428-3.428,3.428h-18.498c-1.893,0-3.426-1.533-3.426-3.428c0-0.715,0.221-1.38,0.598-1.93h-0.002l0.344-0.417
				c0.023-0.024,0.041-0.053,0.066-0.076L341.852,391.58 M341.852,388.58L341.852,388.58c-0.893,0-1.738,0.397-2.309,1.084
				l-11.616,13.993c-0.034,0.038-0.063,0.073-0.09,0.104c-0.012,0.015-0.024,0.029-0.036,0.044l-0.344,0.417
				c-0.087,0.104-0.165,0.214-0.235,0.327c-0.685,1.046-1.046,2.257-1.046,3.511c0,3.544,2.883,6.428,6.426,6.428H351.1
				c3.544,0,6.428-2.884,6.428-6.428c0-1.253-0.362-2.464-1.049-3.512c-0.07-0.113-0.148-0.223-0.235-0.327l-0.23-0.279
				c-0.054-0.07-0.133-0.171-0.237-0.287l-11.615-13.991C343.59,388.978,342.744,388.58,341.852,388.58L341.852,388.58z"/>
		</g>
	</g>
	<path fill="#7F7F7F" d="M295.623,408.629c0.271,1.622,1.67,2.859,3.369,2.859h18.498c1.893,0,3.428-1.533,3.428-3.428
		c0-0.715-0.223-1.38-0.6-1.93h0.002l-0.232-0.279c-0.059-0.071-0.111-0.15-0.178-0.215l-11.67-14.057
		C308.24,391.58,318.703,412.156,295.623,408.629z"/>
	<path fill="#7F7F7F" d="M329.203,408.629c0.271,1.622,1.672,2.859,3.369,2.859h18.498c1.893,0,3.428-1.533,3.428-3.428
		c0-0.715-0.223-1.38-0.6-1.93h0.002l-0.23-0.279c-0.061-0.071-0.113-0.15-0.178-0.215l-11.67-14.057
		C341.822,391.58,352.283,412.156,329.203,408.629z"/>
	<g>
		<path d="M295.197,374.569c-0.828,0-1.5-0.672-1.5-1.5v-6.755c0-0.828,0.672-1.5,1.5-1.5h59.176c0.828,0,1.5,0.672,1.5,1.5v6.755
			c0,0.828-0.672,1.5-1.5,1.5H295.197z"/>
		<g>
			<path d="M354.373,366.314v6.755h-59.176v-6.755H354.373 M354.373,363.314h-59.176c-1.657,0-3,1.343-3,3v6.755
				c0,1.657,1.343,3,3,3h59.176c1.657,0,3-1.343,3-3v-6.755C357.373,364.657,356.03,363.314,354.373,363.314L354.373,363.314z"/>
		</g>
	</g>
	<polygon fill="#E5E5E5" points="295.197,363.658 296.492,357.895 293.492,327.895 291.77,325.193 290.547,326.19 295.197,358.187 	
		"/>
	<g>
		<g>
			<path fill="#FFFFFF" d="M270.715,339.043c-8.616-0.001-16.421-4.754-20.37-12.403c-0.183-0.354-0.217-0.766-0.096-1.145
				c0.121-0.379,0.388-0.694,0.741-0.877l38.038-19.631c0.214-0.11,0.45-0.167,0.688-0.167c0.153,0,0.308,0.023,0.456,0.071
				c0.379,0.121,0.694,0.388,0.877,0.741c5.79,11.222,1.371,25.063-9.85,30.855c-3.284,1.695-6.811,2.555-10.481,2.555
				C270.716,339.043,270.716,339.043,270.715,339.043z"/>
			<g>
				<path d="M289.715,306.32c5.42,10.504,1.299,23.413-9.205,28.835c-3.139,1.62-6.49,2.388-9.795,2.388
					c-7.752,0-15.236-4.228-19.037-11.592L289.715,306.32 M289.715,303.32c-0.475,0-0.946,0.112-1.376,0.334l-38.037,19.631
					c-0.707,0.365-1.24,0.996-1.482,1.754c-0.242,0.758-0.173,1.581,0.192,2.288c4.208,8.152,12.524,13.216,21.703,13.216
					c3.859,0,7.722-0.941,11.171-2.722c11.956-6.172,16.665-20.92,10.495-32.877c-0.365-0.707-0.996-1.24-1.754-1.481
					C290.329,303.367,290.021,303.32,289.715,303.32L289.715,303.32z"/>
			</g>
		</g>
		<g>
			<path fill="#AFAFAF" d="M286.156,308.156c2.504,9.488-1.793,19.77-10.875,24.458c-5.303,2.736-11.215,3.033-16.469,1.317
				c6.26,4.174,14.539,4.918,21.697,1.224c10.504-5.422,14.625-18.331,9.205-28.835L286.156,308.156z"/>
		</g>
		<path fill="#E5E5E5" d="M254.394,327.399c3.862-1.996,28.407-14.664,36.337-18.756c-0.293-0.784-0.623-1.562-1.016-2.323
			l-38.037,19.631c0.959,1.858,2.159,3.502,3.53,4.944C254.522,329.369,254.203,327.896,254.394,327.399z"/>
	</g>
	<g>
		<g>
			<path fill="#FFFFFF" d="M275.019,327.068c-1.486,0-2.984-0.146-4.453-0.437c-6.001-1.183-11.183-4.632-14.59-9.713
				s-4.632-11.185-3.448-17.186c0.141-0.715,0.768-1.21,1.47-1.21c0.096,0,0.194,0.009,0.292,0.028l41.995,8.279
				c0.391,0.077,0.734,0.306,0.956,0.637c0.222,0.33,0.303,0.734,0.226,1.125c-2.111,10.706-11.551,18.476-22.445,18.476
				C275.02,327.068,275.019,327.068,275.019,327.068z"/>
			<g>
				<path d="M253.999,300.023l41.995,8.279c-2.012,10.2-10.959,17.266-20.976,17.266c-1.372,0-2.766-0.133-4.163-0.408
					C259.26,322.875,251.711,311.619,253.999,300.023 M253.996,297.022c-1.404,0-2.658,0.991-2.94,2.42
					c-1.262,6.395,0.043,12.897,3.673,18.312s9.152,9.09,15.546,10.35c1.564,0.309,3.16,0.465,4.743,0.465
					c11.61,0,21.67-8.278,23.919-19.686c0.154-0.78-0.009-1.59-0.452-2.251c-0.442-0.661-1.13-1.118-1.911-1.272l-41.995-8.279
					C254.383,297.041,254.188,297.022,253.996,297.022L253.996,297.022z"/>
			</g>
		</g>
		<g>
			<path fill="#AFAFAF" d="M292.064,307.529c-3.939,8.985-13.697,14.367-23.723,12.391c-5.857-1.154-10.672-4.599-13.719-9.211
				c2.308,7.162,8.328,12.893,16.232,14.451c11.596,2.286,22.852-5.26,25.139-16.857L292.064,307.529z"/>
		</g>
		<path fill="#E5E5E5" d="M255.224,302.846c4.267,0.839,31.366,6.183,40.12,7.908c0.258-0.795,0.484-1.607,0.65-2.451l-41.995-8.279
			c-0.405,2.052-0.488,4.085-0.31,6.067C254.102,304.469,254.768,303.117,255.224,302.846z"/>
	</g>
	<g>
		<g>
			<path fill="#FFFFFF" d="M379.611,339.043c-3.672,0-7.199-0.859-10.483-2.555c-11.221-5.792-15.64-19.634-9.85-30.855
				c0.183-0.354,0.498-0.62,0.877-0.741c0.148-0.048,0.303-0.071,0.456-0.071c0.237,0,0.474,0.057,0.688,0.167l38.037,19.631
				c0.354,0.183,0.62,0.498,0.741,0.877s0.087,0.791-0.096,1.145C396.032,334.29,388.227,339.043,379.611,339.043z"/>
			<g>
				<path d="M360.611,306.32l38.037,19.631c-3.802,7.364-11.285,11.592-19.037,11.592c-3.305,0-6.656-0.768-9.795-2.388
					C359.313,329.733,355.191,316.824,360.611,306.32 M360.611,303.32c-0.307,0-0.614,0.047-0.912,0.143
					c-0.758,0.241-1.389,0.774-1.754,1.481c-6.17,11.957-1.461,26.705,10.495,32.877c3.449,1.78,7.312,2.722,11.171,2.722
					c9.179,0,17.495-5.063,21.703-13.216c0.365-0.707,0.434-1.53,0.192-2.288c-0.242-0.758-0.775-1.389-1.482-1.754l-38.037-19.631
					C361.558,303.433,361.086,303.32,360.611,303.32L360.611,303.32z"/>
			</g>
		</g>
		<g>
			<path fill="#AFAFAF" d="M364.17,308.156c-2.504,9.488,1.793,19.77,10.875,24.458c5.303,2.736,11.215,3.033,16.469,1.317
				c-6.26,4.174-14.539,4.918-21.697,1.224c-10.504-5.422-14.625-18.331-9.205-28.835L364.17,308.156z"/>
		</g>
		<path fill="#E5E5E5" d="M395.932,327.399c-3.861-1.996-28.406-14.664-36.336-18.756c0.293-0.784,0.623-1.562,1.016-2.323
			l38.037,19.631c-0.959,1.858-2.16,3.502-3.531,4.944C395.803,329.369,396.123,327.896,395.932,327.399z"/>
	</g>
	<g>
		<g>
			<path fill="#FFFFFF" d="M375.308,327.068c-10.896,0-20.336-7.77-22.447-18.476c-0.077-0.391,0.004-0.795,0.226-1.125
				c0.222-0.331,0.565-0.56,0.956-0.637l41.994-8.279c0.098-0.02,0.195-0.028,0.292-0.028c0.701,0,1.328,0.495,1.47,1.21
				c1.185,6.001-0.039,12.104-3.447,17.186c-3.406,5.081-8.588,8.53-14.59,9.713C378.291,326.922,376.793,327.068,375.308,327.068z"
				/>
			<g>
				<path d="M396.326,300.023c2.289,11.596-5.26,22.852-16.855,25.137c-1.397,0.275-2.791,0.408-4.163,0.408
					c-10.017,0-18.964-7.065-20.976-17.266L396.326,300.023 M396.329,297.022c-0.192,0-0.388,0.019-0.583,0.058l-41.994,8.279
					c-0.781,0.154-1.469,0.611-1.911,1.272c-0.443,0.661-0.606,1.471-0.452,2.251c2.249,11.407,12.309,19.686,23.919,19.686
					c1.583,0,3.179-0.156,4.743-0.465c6.395-1.26,11.916-4.936,15.546-10.35c3.631-5.414,4.935-11.917,3.673-18.312
					C398.987,298.013,397.733,297.022,396.329,297.022L396.329,297.022z"/>
			</g>
		</g>
		<g>
			<path fill="#AFAFAF" d="M358.262,307.529c3.939,8.985,13.697,14.367,23.723,12.391c5.857-1.154,10.672-4.599,13.719-9.211
				c-2.309,7.162-8.328,12.893-16.232,14.451c-11.596,2.286-22.852-5.26-25.139-16.857L358.262,307.529z"/>
		</g>
		<path fill="#E5E5E5" d="M395.102,302.846c-4.266,0.839-31.365,6.183-40.119,7.908c-0.258-0.795-0.484-1.607-0.65-2.451
			l41.994-8.279c0.406,2.052,0.488,4.085,0.311,6.067C396.225,304.469,395.559,303.117,395.102,302.846z"/>
	</g>
	<path fill="#E5E5E5" d="M295.197,389.753c1.156-4.579,1.367-10.042,1.365-13.438h-1.365V389.753z"/>
	<g>
		<polygon fill="#890F09" points="302.6,345.409 282.033,326.532 277.035,298.885 372.4,296.415 358.119,335.174 335.328,348.048 		
			"/>
		<path d="M370.229,297.972l-13.326,36.167l-21.912,12.377l-31.756-2.561l-19.814-18.187l-4.598-25.43L370.229,297.972
			 M374.573,294.858l-4.423,0.114l-91.406,2.367l-3.496,0.091l0.622,3.442l4.598,25.43l0.18,0.993l0.744,0.683l19.814,18.187
			l0.76,0.697l1.027,0.083l31.756,2.561l0.916,0.074l0.801-0.452l21.912-12.377l0.959-0.542l0.381-1.033l13.326-36.167
			L374.573,294.858L374.573,294.858z"/>
	</g>
	<g>
		<polygon fill="#AF180C" points="300.146,338.138 279.578,319.261 274.582,291.613 369.947,289.144 355.666,327.902 
			332.873,340.776 		"/>
		<path d="M367.775,290.7l-13.326,36.167l-21.914,12.377l-31.754-2.561l-19.816-18.187l-4.596-25.43L367.775,290.7 M372.12,287.587
			l-4.423,0.114l-91.406,2.367l-3.496,0.091l0.622,3.441l4.596,25.43l0.18,0.994l0.744,0.683l19.816,18.187l0.76,0.697l1.027,0.083
			l31.754,2.561l0.916,0.074l0.801-0.452l21.914-12.377l0.959-0.542l0.381-1.033l13.326-36.167L372.12,287.587L372.12,287.587z"/>
	</g>
	<g>
		<path fill="#EFB886" d="M324.531,327.423c-43.791,0-79.417-48.415-79.417-107.926c0-40.283,35.626-73.056,79.417-73.056
			c43.79,0,79.416,32.772,79.416,73.056C403.947,279.008,368.321,327.423,324.531,327.423z"/>
		<path d="M324.531,147.941c43.031,0,77.916,32.037,77.916,71.556c0,58.777-34.885,106.426-77.916,106.426
			c-43.033,0-77.917-47.648-77.917-106.426C246.614,179.979,281.498,147.941,324.531,147.941 M324.531,144.941
			c-44.618,0-80.917,33.445-80.917,74.556c0,29.06,8.311,56.415,23.4,77.026c15.296,20.894,35.723,32.399,57.517,32.399
			c21.793,0,42.219-11.506,57.516-32.399c15.09-20.611,23.4-47.967,23.4-77.026C405.447,178.387,369.148,144.941,324.531,144.941
			L324.531,144.941z"/>
	</g>
	<g>
		<path fill="#FFFFFF" d="M324.531,327.423c-47.516,0-86.172-59.259-86.172-132.098c0-49.244,38.656-89.307,86.172-89.307
			c47.515,0,86.17,40.063,86.17,89.307C410.701,268.164,372.046,327.423,324.531,327.423z"/>
		<g>
			<path d="M324.531,107.519c46.762,0,84.67,39.313,84.67,87.807c0,72.127-37.908,130.598-84.67,130.598
				c-46.764,0-84.672-58.471-84.672-130.598C239.859,146.832,277.768,107.519,324.531,107.519 M324.531,104.519
				c-48.343,0-87.672,40.736-87.672,90.807c0,35.456,8.979,68.832,25.282,93.979c16.564,25.549,38.722,39.619,62.39,39.619
				c23.667,0,45.824-14.07,62.388-39.619c16.304-25.146,25.282-58.522,25.282-93.979
				C412.201,145.254,372.873,104.519,324.531,104.519L324.531,104.519z"/>
		</g>
	</g>
	<g>
		<path fill="#FFFFFF" d="M324.531,327.423c-47.516,0-86.172-59.259-86.172-132.098c0-49.244,38.656-89.307,86.172-89.307
			c47.515,0,86.17,40.063,86.17,89.307C410.701,268.164,372.046,327.423,324.531,327.423z"/>
		<g>
			<path d="M324.531,107.519c46.762,0,84.67,39.313,84.67,87.807c0,72.127-37.908,130.598-84.67,130.598
				c-46.764,0-84.672-58.471-84.672-130.598C239.859,146.832,277.768,107.519,324.531,107.519 M324.531,104.519
				c-48.343,0-87.672,40.736-87.672,90.807c0,35.456,8.979,68.832,25.282,93.979c16.564,25.549,38.722,39.619,62.39,39.619
				c23.667,0,45.824-14.07,62.388-39.619c16.304-25.146,25.282-58.522,25.282-93.979
				C412.201,145.254,372.873,104.519,324.531,104.519L324.531,104.519z"/>
		</g>
	</g>
	<g>
		<path fill="#AFAFAF" d="M324.531,107.519c-3.824,0-7.588,0.268-11.279,0.777c41.43,5.72,73.393,42.502,73.393,87.029
			c0,66.229-31.963,120.936-73.393,129.441c3.691,0.758,7.455,1.156,11.279,1.156c46.762,0,84.67-58.471,84.67-130.598
			C409.201,146.832,371.293,107.519,324.531,107.519z"/>
	</g>
	<g>
		<path fill="#EFB886" d="M354.465,386.373c-10.892,0-19.752-8.86-19.752-19.752c0-10.891,8.86-19.751,19.752-19.751
			c10.891,0,19.75,8.86,19.75,19.751C374.215,377.513,365.355,386.373,354.465,386.373z"/>
		<g>
			<path d="M354.465,348.37c10.078,0,18.25,8.171,18.25,18.251s-8.172,18.252-18.25,18.252c-10.08,0-18.252-8.172-18.252-18.252
				S344.385,348.37,354.465,348.37 M354.465,345.37c-11.719,0-21.252,9.533-21.252,21.251c0,11.719,9.533,21.252,21.252,21.252
				c11.717,0,21.25-9.533,21.25-21.252C375.715,354.903,366.182,345.37,354.465,345.37L354.465,345.37z"/>
		</g>
	</g>
	<path fill="#D69A69" d="M372.715,366.621c0-0.033-0.004-0.067-0.004-0.102c-5.883,8.953-16.234,9.57-22.869,5.59
		c-7.066-4.238-8.846-12.208-7.813-18.822c-3.57,3.332-5.816,8.064-5.816,13.334c0,10.08,8.172,18.252,18.252,18.252
		C364.543,384.873,372.715,376.701,372.715,366.621z"/>
	<g>
		<g>
			<path fill="#FFFFFF" d="M354.332,394.696c-0.256,0-0.512-0.065-0.742-0.196c-34.295-19.52-31.151-54.862-31.115-55.217
				c0.077-0.767,0.722-1.35,1.492-1.35h60.732c0.771,0,1.415,0.583,1.492,1.35c0.036,0.354,3.18,35.697-31.117,55.217
				C354.844,394.631,354.588,394.696,354.332,394.696z"/>
			<path d="M384.699,339.434c0,0,3.479,34.5-30.367,53.763c-33.844-19.263-30.365-53.763-30.365-53.763h30.365H384.699
				 M384.699,336.434h-30.367h-30.365c-1.54,0-2.83,1.166-2.984,2.699c-0.038,0.377-0.891,9.355,2.605,20.833
				c3.226,10.587,10.92,25.399,29.26,35.838c0.46,0.262,0.973,0.393,1.484,0.393s1.023-0.131,1.484-0.393
				c18.341-10.438,26.036-25.251,29.261-35.838c3.497-11.478,2.645-20.456,2.606-20.833
				C387.529,337.6,386.239,336.434,384.699,336.434L384.699,336.434z"/>
		</g>
		<g>
			<path fill="#D6D6D6" d="M384.699,339.434h-11.717c0,0,1.393,35.82-18.65,53.763C388.178,373.934,384.699,339.434,384.699,339.434
				z"/>
		</g>
		<g>
			<path fill="#E0BF1E" d="M354.332,383.312c-1.745,0-3.164-1.419-3.164-3.164v-23.816h-4.928c-1.745,0-3.164-1.419-3.164-3.164
				s1.419-3.164,3.164-3.164h4.928v-2.225c0-1.744,1.419-3.163,3.164-3.163s3.164,1.419,3.164,3.163v2.225h4.928
				c1.745,0,3.164,1.419,3.164,3.164s-1.419,3.164-3.164,3.164h-4.928v23.816C357.496,381.893,356.077,383.312,354.332,383.312z"/>
			<g>
				<path d="M354.332,346.115c0.918,0,1.664,0.744,1.664,1.663v3.725h6.428c0.92,0,1.664,0.745,1.664,1.664
					s-0.744,1.664-1.664,1.664h-6.428v25.316c0,0.919-0.746,1.664-1.664,1.664s-1.664-0.745-1.664-1.664v-25.316h-6.428
					c-0.92,0-1.664-0.745-1.664-1.664s0.744-1.664,1.664-1.664h6.428v-3.725C352.668,346.859,353.414,346.115,354.332,346.115
					 M354.332,343.115c-2.572,0-4.664,2.092-4.664,4.663v0.725h-3.428c-2.572,0-4.664,2.093-4.664,4.664s2.092,4.664,4.664,4.664
					h3.428v22.316c0,2.571,2.092,4.664,4.664,4.664s4.664-2.093,4.664-4.664v-22.316h3.428c2.572,0,4.664-2.093,4.664-4.664
					s-2.092-4.664-4.664-4.664h-3.428v-0.725C358.996,345.207,356.904,343.115,354.332,343.115L354.332,343.115z"/>
			</g>
		</g>
	</g>
	<g>
		<path fill="#FFFFFF" d="M324.52,327.064c-0.084,0-0.168-0.007-0.251-0.021c-0.181-0.028-0.356-0.09-0.519-0.185
			c-0.035-0.021-0.069-0.042-0.103-0.065l-55.378-31.335c-0.083-0.047-0.162-0.102-0.234-0.164
			c-14.35-12.227-33.161-25.326-33.349-25.457c-0.506-0.352-0.746-0.978-0.604-1.577c2.799-11.819,5.07-43.734-6.374-79.93
			c-0.151-0.478-0.054-0.999,0.26-1.39c0.286-0.357,0.718-0.562,1.17-0.562c0.043,0,0.086,0.002,0.129,0.005
			c0.037,0.003,3.785,0.321,9.844,0.321c16.395,0,57.396-2.479,84.303-25.418c0.108-0.115,0.235-0.213,0.377-0.289
			c0.058-0.031,0.117-0.058,0.177-0.081c0.18-0.073,0.371-0.109,0.563-0.109c0.243,0,0.487,0.059,0.709,0.178
			c0.169,0.09,0.315,0.21,0.435,0.351c26.91,22.894,67.861,25.368,84.244,25.368c6.057,0,9.807-0.318,9.845-0.321
			c0.043-0.003,0.086-0.005,0.129-0.005c0.453,0,0.885,0.205,1.171,0.562c0.313,0.391,0.41,0.913,0.26,1.39
			c-11.444,36.192-9.175,68.109-6.375,79.93c0.142,0.6-0.098,1.226-0.604,1.577c-0.188,0.131-19,13.23-33.349,25.457
			c-0.072,0.063-0.151,0.117-0.234,0.164l-55.368,31.329c-0.034,0.024-0.068,0.047-0.104,0.067
			C325.052,326.993,324.785,327.064,324.52,327.064z"/>
		<path d="M324.531,162.308v0.025c26.855,22.981,66.925,25.872,85.388,25.872c6.206,0,9.974-0.327,9.974-0.327
			c-11.527,36.456-9.285,68.562-6.404,80.728c0,0-18.891,13.128-33.465,25.547l-55.492,31.399v0.017l-0.016-0.009l-0.016,0.009
			v-0.017l-55.492-31.399c-14.575-12.419-33.466-25.547-33.466-25.547c2.882-12.166,5.123-44.271-6.403-80.728
			c0,0,3.765,0.327,9.974,0.327c18.465,0,58.535-2.892,85.388-25.872v-0.025c0.006,0.004,0.01,0.008,0.016,0.013
			C324.521,162.315,324.525,162.312,324.531,162.308 M324.5,159.308c-0.486,0-0.974,0.118-1.417,0.356
			c-0.294,0.157-0.555,0.36-0.775,0.596c-26.531,22.508-66.995,24.945-83.195,24.945c-5.981,0-9.679-0.313-9.715-0.315
			c-0.086-0.007-0.172-0.011-0.258-0.011c-0.906,0-1.77,0.411-2.342,1.125c-0.626,0.782-0.821,1.824-0.519,2.779
			c11.345,35.884,9.111,67.453,6.344,79.132c-0.284,1.199,0.195,2.451,1.208,3.155c0.188,0.13,18.941,13.189,33.232,25.366
			c0.145,0.124,0.302,0.233,0.468,0.328l55.315,31.299c0.046,0.03,0.092,0.06,0.14,0.087c0.471,0.275,0.999,0.415,1.526,0.415
			c0.166,0,0.331-0.014,0.494-0.041c0.359-0.058,0.71-0.182,1.032-0.37c0.046-0.027,0.091-0.055,0.136-0.084l55.327-31.306
			c0.166-0.095,0.323-0.204,0.468-0.328c14.29-12.177,33.044-25.236,33.231-25.366c1.013-0.704,1.491-1.955,1.207-3.155
			c-2.766-11.681-4.999-43.252,6.346-79.132c0.302-0.955,0.107-1.999-0.52-2.78c-0.571-0.714-1.435-1.124-2.341-1.124
			c-0.086,0-0.173,0.004-0.26,0.011c-0.035,0.003-3.735,0.315-9.714,0.315c-16.218,0-56.748-2.442-83.278-25.015
			c-0.203-0.202-0.437-0.376-0.695-0.515c-0.108-0.058-0.219-0.108-0.332-0.152C325.257,159.379,324.879,159.308,324.5,159.308
			L324.5,159.308z"/>
	</g>
	<path fill="#AFAFAF" d="M324.531,162.333v163.219l55.492-31.399c14.574-12.419,33.465-25.547,33.465-25.547
		c-2.881-12.166-5.123-44.271,6.404-80.728C419.893,187.878,360.414,193.04,324.531,162.333z"/>
	<g>
		<path fill="#353535" d="M323.252,278.979c-6.341,0-11.5-5.159-11.5-11.5v-65c0-6.341,5.159-11.5,11.5-11.5h2.557
			c6.341,0,11.5,5.159,11.5,11.5v65c0,6.341-5.159,11.5-11.5,11.5H323.252z"/>
		<g>
			<path d="M325.809,192.479c5.523,0,10,4.478,10,10v65c0,5.522-4.477,10-10,10h-2.557c-5.521,0-10-4.478-10-10v-65
				c0-5.522,4.479-10,10-10H325.809 M325.809,189.479h-2.557c-7.168,0-13,5.832-13,13v65c0,7.168,5.832,13,13,13h2.557
				c7.168,0,13-5.832,13-13v-65C338.809,195.312,332.977,189.479,325.809,189.479L325.809,189.479z"/>
		</g>
	</g>
	<g>
		<path fill="#AAAAAA" d="M325.809,192.479h-2.557c-5.521,0-10,4.478-10,10v6c0-5.522,4.479-10,10-10h2.557c5.523,0,10,4.478,10,10
			v-6C335.809,196.957,331.332,192.479,325.809,192.479z"/>
	</g>
	<g>
		<path fill="#AAAAAA" d="M325.809,271.479h-2.557c-5.521,0-10-4.478-10-10v6c0,5.522,4.479,10,10,10h2.557c5.523,0,10-4.478,10-10
			v-6C335.809,267.002,331.332,271.479,325.809,271.479z"/>
	</g>
	<g>
		<path fill="#232323" d="M289.451,268.979c-6.341,0-11.5-5.159-11.5-11.5v-45c0-6.341,5.159-11.5,11.5-11.5h2.557
			c6.341,0,11.5,5.159,11.5,11.5v45c0,6.341-5.159,11.5-11.5,11.5H289.451z"/>
		<g>
			<path d="M292.008,202.479c5.523,0,10,4.478,10,10v45c0,5.522-4.477,10-10,10h-2.557c-5.521,0-10-4.478-10-10v-45
				c0-5.522,4.479-10,10-10H292.008 M292.008,199.479h-2.557c-7.168,0-13,5.832-13,13v45c0,7.168,5.832,13,13,13h2.557
				c7.168,0,13-5.832,13-13v-45C305.008,205.311,299.176,199.479,292.008,199.479L292.008,199.479z"/>
		</g>
	</g>
	<g>
		<path fill="#AAAAAA" d="M285.451,257.479v-45c0-4.935,3.578-9.024,8.279-9.842c-0.561-0.098-1.135-0.158-1.723-0.158h-2.557
			c-5.521,0-10,4.478-10,10v45c0,5.522,4.479,10,10,10h2.557c0.588,0,1.162-0.061,1.723-0.158
			C289.029,266.504,285.451,262.414,285.451,257.479z"/>
	</g>
	<g>
		<path fill="#191919" d="M255.65,258.979c-6.341,0-11.5-5.159-11.5-11.5v-25c0-6.341,5.159-11.5,11.5-11.5h2.557
			c6.341,0,11.5,5.159,11.5,11.5v25c0,6.341-5.159,11.5-11.5,11.5H255.65z"/>
		<g>
			<path d="M258.207,212.479c5.523,0,10,4.478,10,10v25c0,5.522-4.477,10-10,10h-2.557c-5.522,0-10-4.478-10-10v-25
				c0-5.522,4.478-10,10-10H258.207 M258.207,209.479h-2.557c-7.168,0-13,5.832-13,13v25c0,7.168,5.832,13,13,13h2.557
				c7.168,0,13-5.832,13-13v-25C271.207,215.311,265.375,209.479,258.207,209.479L258.207,209.479z"/>
		</g>
	</g>
	<g>
		<path fill="#AAAAAA" d="M251.65,247.479v-25c0-4.935,3.578-9.024,8.279-9.842c-0.561-0.098-1.135-0.158-1.723-0.158h-2.557
			c-5.522,0-10,4.478-10,10v25c0,5.522,4.478,10,10,10h2.557c0.588,0,1.162-0.061,1.723-0.158
			C255.229,256.504,251.65,252.414,251.65,247.479z"/>
	</g>
	<g>
		<path fill="#232323" d="M356.84,268.979c-6.341,0-11.5-5.159-11.5-11.5v-45c0-6.341,5.159-11.5,11.5-11.5h2.557
			c6.341,0,11.5,5.159,11.5,11.5v45c0,6.341-5.159,11.5-11.5,11.5H356.84z"/>
		<g>
			<path d="M359.396,202.479c5.521,0,10,4.478,10,10v45c0,5.522-4.479,10-10,10h-2.557c-5.523,0-10-4.478-10-10v-45
				c0-5.522,4.477-10,10-10H359.396 M359.396,199.479h-2.557c-7.168,0-13,5.832-13,13v45c0,7.168,5.832,13,13,13h2.557
				c7.168,0,13-5.832,13-13v-45C372.396,205.311,366.564,199.479,359.396,199.479L359.396,199.479z"/>
		</g>
	</g>
	<g>
		<path fill="#AAAAAA" d="M363.396,257.479v-45c0-4.935-3.578-9.024-8.279-9.842c0.561-0.098,1.135-0.158,1.723-0.158h2.557
			c5.521,0,10,4.478,10,10v45c0,5.522-4.479,10-10,10h-2.557c-0.588,0-1.162-0.061-1.723-0.158
			C359.818,266.504,363.396,262.414,363.396,257.479z"/>
	</g>
	<path fill="#7F0E09" d="M262.07,112.246c0,0,18.576,0.185,38.244-11.028c-18.668,4.454-47.857,12.764-68.596-3.225
		C236.854,104.626,249.293,111.518,262.07,112.246z"/>
	<path fill="#8C8C8C" d="M340.859,316.313l39.164-22.16c14.574-12.419,33.465-25.547,33.465-25.547
		c-2.881-12.166-5.123-44.271,6.404-80.728c0,0-33.311,2.89-65.115-8.525c8.158,6.311,27.777,12.313,40.926,15.902
		c-6.785,17.383-9.473,63.537-3.785,74.225C380.641,277.479,350.258,300.023,340.859,316.313z"/>
	<g>
		<path fill="#191919" d="M390.641,258.979c-6.341,0-11.5-5.159-11.5-11.5v-25c0-6.341,5.159-11.5,11.5-11.5h2.557
			c6.341,0,11.5,5.159,11.5,11.5v25c0,6.341-5.159,11.5-11.5,11.5H390.641z"/>
		<g>
			<path d="M393.197,212.479c5.521,0,10,4.478,10,10v25c0,5.522-4.479,10-10,10h-2.557c-5.523,0-10-4.478-10-10v-25
				c0-5.522,4.477-10,10-10H393.197 M393.197,209.479h-2.557c-7.168,0-13,5.832-13,13v25c0,7.168,5.832,13,13,13h2.557
				c7.168,0,13-5.832,13-13v-25C406.197,215.311,400.365,209.479,393.197,209.479L393.197,209.479z"/>
		</g>
	</g>
	<g>
		<path fill="#AAAAAA" d="M397.197,247.479v-25c0-4.935-3.578-9.024-8.279-9.842c0.561-0.098,1.135-0.158,1.723-0.158h2.557
			c5.521,0,10,4.478,10,10v25c0,5.522-4.479,10-10,10h-2.557c-0.588,0-1.162-0.061-1.723-0.158
			C393.619,256.504,397.197,252.414,397.197,247.479z"/>
	</g>
	<g>
		<g>
			<path fill="#FFFFFF" d="M306.855,437.089c-2.163,0-4.131-1.1-5.261-2.942L181.418,236.789c-1.774-2.895-0.863-6.699,2.035-8.478
				c0.972-0.596,2.085-0.911,3.22-0.911c2.164,0,4.131,1.101,5.261,2.944l120.175,197.358c0.858,1.399,1.122,3.055,0.738,4.656
				s-1.368,2.958-2.772,3.819C309.104,436.774,307.99,437.089,306.855,437.089z"/>
			<path d="M186.673,228.901c1.569,0,3.102,0.792,3.982,2.228l120.173,197.354c1.348,2.196,0.66,5.069-1.537,6.417
				c-0.761,0.467-1.604,0.688-2.436,0.688c-1.569,0-3.102-0.791-3.982-2.227L182.699,236.009c-1.348-2.198-0.659-5.07,1.538-6.419
				C184.999,229.124,185.841,228.901,186.673,228.901 M186.673,225.901L186.673,225.901c-1.412,0-2.796,0.391-4.004,1.131
				c-3.604,2.211-4.737,6.941-2.528,10.544l120.169,197.346c1.411,2.299,3.855,3.666,6.545,3.666c1.412,0,2.796-0.391,4.003-1.131
				c1.747-1.071,2.971-2.758,3.448-4.749c0.477-1.991,0.149-4.049-0.922-5.795L193.218,229.569
				C191.808,227.269,189.363,225.901,186.673,225.901L186.673,225.901z"/>
		</g>
		<path fill="#AFAFAF" d="M305.59,435.401c0.764,0.215,1.576,0.227,2.367,0.033l-77.396-127.603l-1.705,1.046L305.59,435.401z"/>
		<g>
			<path fill="#FFFFFF" d="M209.136,327.768c-0.117,0-0.234-0.014-0.35-0.041c-0.387-0.093-0.721-0.336-0.929-0.675
				c-0.143-0.232-14.335-23.557-20.959-49.96c-6.712-26.759-77.646-166.902-96.068-196.938c-0.433-0.706-0.211-1.63,0.495-2.063
				c0.245-0.15,0.516-0.221,0.783-0.221c0.504,0,0.997,0.254,1.28,0.716c18.422,30.039,111.177,156.801,131.982,174.913
				c20.533,17.874,34.885,41.099,35.028,41.332c0.434,0.706,0.212,1.63-0.494,2.063l-49.983,30.654
				C209.682,327.692,209.41,327.768,209.136,327.768z"/>
			<path d="M92.108,79.369c19.708,32.135,111.68,157.33,132.276,175.26s34.734,40.984,34.734,40.984l-24.991,15.327l-24.992,15.327
				c0,0-14.139-23.055-20.783-49.541C181.709,250.24,111.816,111.504,92.108,79.369 M92.105,76.369
				c-0.535,0-1.076,0.143-1.565,0.443c-1.413,0.866-1.855,2.713-0.989,4.125c20.689,33.735,89.606,171.461,95.892,196.519
				c6.68,26.627,20.548,49.423,21.135,50.38c0.416,0.679,1.084,1.163,1.858,1.349c0.231,0.056,0.465,0.083,0.699,0.083
				c0.549,0,1.093-0.15,1.568-0.442l24.992-15.327l24.991-15.327c1.412-0.866,1.855-2.714,0.989-4.126
				c-0.587-0.957-14.617-23.654-35.322-41.679c-19.483-16.96-110.998-140.829-131.689-174.565
				C94.1,76.877,93.114,76.369,92.105,76.369L92.105,76.369z"/>
		</g>
		<g>
			<g>
				<path fill="#AFAFAF" d="M225.776,316.063l2.434-1.493c0,0-14.14-23.055-26.107-46.275S111.816,111.504,92.108,79.369
					c19.708,32.135,96.951,166.363,108.24,190.001C211.638,293.007,225.776,316.063,225.776,316.063z"/>
			</g>
		</g>
		<g>
			<g>
				<path fill="#AFAFAF" d="M214.677,322.868l7.672-4.704c0,0-14.139-23.054-24.471-47.279
					c-10.333-24.224-86.062-159.381-105.77-191.516c19.708,32.135,92.048,169.37,100.238,194.908
					C200.538,299.814,214.677,322.868,214.677,322.868z"/>
			</g>
		</g>
	</g>
	<g>
		<path fill="#FFFFFF" d="M251.689,365.345c-10.891,0-19.752-8.86-19.752-19.752c0-10.891,8.861-19.751,19.752-19.751
			c10.892,0,19.752,8.86,19.752,19.751C271.441,356.484,262.581,365.345,251.689,365.345z"/>
		<g>
			<path d="M251.689,327.342c10.08,0,18.252,8.171,18.252,18.251s-8.172,18.252-18.252,18.252s-18.252-8.172-18.252-18.252
				S241.609,327.342,251.689,327.342 M251.689,324.342c-11.718,0-21.252,9.533-21.252,21.251c0,11.719,9.534,21.252,21.252,21.252
				c11.719,0,21.252-9.533,21.252-21.252C272.941,333.875,263.408,324.342,251.689,324.342L251.689,324.342z"/>
		</g>
	</g>
	<path fill="#AFAFAF" d="M269.941,345.593c0-0.033-0.004-0.067-0.004-0.102c-5.883,8.953-16.234,9.57-22.869,5.59
		c-7.067-4.238-8.847-12.208-7.813-18.822c-3.572,3.332-5.818,8.064-5.818,13.334c0,10.08,8.172,18.252,18.252,18.252
		S269.941,355.673,269.941,345.593z"/>
</g>
</svg>
