<?xml version="1.0" encoding="utf-8"?>
<!-- Generator: Adobe Illustrator 16.0.0, SVG Export Plug-In . SVG Version: 6.00 Build 0)  -->
<!DOCTYPE svg PUBLIC "-//W3C//DTD SVG 1.1//EN" "http://www.w3.org/Graphics/SVG/1.1/DTD/svg11.dtd">
<svg version="1.1" id="Layer_1" xmlns="http://www.w3.org/2000/svg" xmlns:xlink="http://www.w3.org/1999/xlink" x="0px" y="0px"
	 width="512px" height="512px" viewBox="0 0 512 512" enable-background="new 0 0 512 512" xml:space="preserve">
<g>
	<ellipse fill="#D3D3D3" cx="296.027" cy="410.523" rx="83.453" ry="13.359"/>
	<g>
		<g>
			<path fill="#AAAAAA" d="M230.194,335.832c-1.095,0-1.789-0.043-1.976-0.057c-0.825-0.059-1.447-0.774-1.39-1.6l0.651-9.451
				c0.055-0.791,0.713-1.396,1.495-1.396c0.033,0,0.067,0.001,0.101,0.003c0.114,0.008,0.544,0.031,1.231,0.031
				c5.421,0,23.875-1.383,33.716-19.176c0.273-0.495,0.786-0.774,1.313-0.774c0.246,0,0.495,0.061,0.725,0.188l8.291,4.584
				c0.349,0.192,0.605,0.516,0.716,0.897c0.11,0.383,0.063,0.793-0.129,1.141C261.799,333.985,237.369,335.832,230.194,335.832z"/>
			<g>
				<path d="M265.336,304.912l8.291,4.584c-12.77,23.092-36.551,24.836-43.433,24.836c-1.05,0-1.704-0.041-1.869-0.053l0.651-9.451
					c0.123,0.008,0.588,0.034,1.331,0.034C235.604,324.862,255.036,323.536,265.336,304.912 M265.339,301.911
					c-1.057,0-2.081,0.56-2.628,1.549c-9.444,17.075-27.189,18.402-32.403,18.402c-0.707,0-1.115-0.026-1.132-0.027
					c-0.067-0.005-0.135-0.007-0.202-0.007c-1.563,0-2.881,1.211-2.99,2.794l-0.651,9.451c-0.114,1.65,1.13,3.081,2.78,3.198
					c0.255,0.019,0.969,0.061,2.082,0.061c7.382,0,32.52-1.902,46.058-26.384c0.386-0.696,0.479-1.518,0.258-2.282
					c-0.22-0.765-0.735-1.41-1.432-1.795l-8.291-4.584C266.327,302.032,265.829,301.911,265.339,301.911L265.339,301.911z"/>
			</g>
		</g>
		<g>
			<path fill="#7F7F7F" d="M270.992,308.039c-12.996,21.242-35.615,22.891-42.298,22.891c-0.052,0-0.089,0-0.138,0l-0.231,3.35
				c0.165,0.012,0.819,0.053,1.869,0.053c6.882,0,30.663-1.744,43.433-24.836L270.992,308.039z"/>
		</g>
		<g>
			<path d="M250.33,331.813c-0.242,0-0.484-0.059-0.703-0.175c-0.394-0.209-0.675-0.583-0.766-1.021
				c-0.6-2.886-1.51-5.866-2.707-8.856c-0.3-0.751,0.048-1.604,0.788-1.931c5.354-2.357,9.883-5.807,13.464-10.253
				c0.289-0.359,0.721-0.56,1.168-0.56c0.134,0,0.27,0.018,0.402,0.055l5.162,1.438c0.402,0.112,0.74,0.387,0.931,0.759l2.282,4.43
				c0.271,0.525,0.208,1.16-0.161,1.622c-5.086,6.37-11.576,11.208-19.29,14.38C250.717,331.775,250.523,331.813,250.33,331.813z"/>
			<g>
				<path d="M261.574,310.518l5.162,1.438l2.282,4.43c-5.604,7.018-12.327,11.313-18.688,13.928
					c-0.693-3.338-1.715-6.439-2.783-9.109C252.359,319.084,257.364,315.746,261.574,310.518 M261.574,307.518
					c-0.894,0-1.758,0.4-2.337,1.118c-3.428,4.258-7.768,7.563-12.899,9.821c-1.48,0.652-2.177,2.359-1.576,3.86
					c1.164,2.91,2.049,5.805,2.631,8.605c0.182,0.874,0.743,1.621,1.531,2.039c0.438,0.233,0.921,0.351,1.406,0.351
					c0.387,0,0.774-0.075,1.141-0.226c7.952-3.269,14.645-8.259,19.893-14.83c0.737-0.924,0.863-2.195,0.322-3.246l-2.282-4.43
					c-0.383-0.742-1.058-1.292-1.862-1.516l-5.162-1.438C262.113,307.554,261.842,307.518,261.574,307.518L261.574,307.518z"/>
			</g>
		</g>
		<g>
			<path d="M334.222,357.764c-0.25,0-0.503-0.063-0.736-0.193l-8.709-4.916c-0.347-0.196-0.602-0.521-0.708-0.904
				c-0.106-0.384-0.057-0.794,0.14-1.14c4.426-7.838,5.631-14.541,3.582-19.924c-2.973-7.81-12.141-11.181-12.233-11.214
				c-0.771-0.276-1.185-1.124-0.919-1.899l3.234-9.463c0.128-0.376,0.401-0.687,0.759-0.861c0.207-0.102,0.434-0.153,0.66-0.153
				c0.164,0,0.328,0.026,0.485,0.081c0.609,0.208,14.979,5.263,20.163,18.884c3.49,9.168,2.006,19.578-4.411,30.94
				C335.253,357.489,334.745,357.764,334.222,357.764z"/>
			<g>
				<path d="M319.291,308.596c0.582,0.199,14.307,5.02,19.246,17.998c3.324,8.732,1.872,18.715-4.314,29.67l-8.709-4.916
					c4.656-8.244,5.894-15.375,3.678-21.195c-3.236-8.504-13.037-12.061-13.135-12.094L319.291,308.596 M319.291,305.596
					c-0.453,0-0.905,0.103-1.32,0.307c-0.715,0.35-1.261,0.97-1.519,1.723l-3.234,9.463c-0.258,0.754-0.205,1.579,0.146,2.294
					s0.973,1.261,1.727,1.517c0.042,0.017,8.587,3.199,11.297,10.321c1.883,4.946,0.71,11.223-3.486,18.652
					c-0.392,0.693-0.491,1.513-0.278,2.28c0.214,0.767,0.723,1.417,1.416,1.808l8.709,4.916c0.466,0.264,0.973,0.389,1.472,0.389
					c1.047,0,2.063-0.549,2.615-1.525c6.646-11.77,8.162-22.607,4.506-32.213c-5.432-14.271-20.442-19.551-21.078-19.769
					C319.947,305.649,319.618,305.596,319.291,305.596L319.291,305.596z"/>
			</g>
		</g>
		<g>
			<path fill="#AAAAAA" d="M263.275,358.531c-0.828,0-1.5-0.672-1.5-1.5v-14.774l-4.635-31.889
				c-0.076-0.521,0.128-1.044,0.536-1.378l7.459-6.091c3.154-4.164,7.933-6.548,13.14-6.548h29.176
				c5.141,0,10.045,2.453,13.159,6.572l7.429,6.066c0.407,0.334,0.611,0.856,0.535,1.378l-4.623,31.807v14.856
				c0,0.828-0.672,1.5-1.5,1.5H263.275z"/>
			<g>
				<path d="M307.451,297.852c4.955,0,9.336,2.414,12.067,6.117l7.571,6.184l-4.639,31.914v14.965c-10.572,0-45.354,0-59.176,0
					v-14.883l-4.65-31.996l7.602-6.207c2.732-3.691,7.104-6.094,12.049-6.094H307.451 M307.451,294.852h-29.176
					c-5.536,0-10.824,2.608-14.224,6.996l-7.324,5.98c-0.816,0.667-1.223,1.713-1.071,2.756l4.619,31.781v14.666
					c0,1.657,1.343,3,3,3h59.176c1.657,0,3-1.343,3-3v-14.748l4.607-31.699c0.151-1.043-0.255-2.089-1.071-2.755l-7.292-5.956
					C318.295,297.469,313,294.852,307.451,294.852L307.451,294.852z"/>
			</g>
		</g>
		<path fill="#7F7F7F" d="M327.09,310.152l-7.571-6.184c-2.731-3.703-7.112-6.117-12.067-6.117h-11.891l-0.635,10.389
			c0,0,28.987-7.91,17.898,51.303c3.474,0.24,6.674,0.006,9.627-0.607v-16.869L327.09,310.152z"/>
		<g>
			<path d="M300.152,414.328c-0.828,0-1.5-0.672-1.5-1.5v-22.125c0-3.192-2.597-5.789-5.789-5.789s-5.789,2.597-5.789,5.789v22.125
				c0,0.828-0.672,1.5-1.5,1.5h-17.299c-0.761,0-1.401-0.569-1.49-1.325l-5-42.666c-0.061-0.523,0.156-1.04,0.573-1.361
				l16.993-13.131c0.263-0.203,0.585-0.313,0.917-0.313h22.504c0.296,0,0.586,0.088,0.833,0.252l19.679,13.131
				c0.469,0.313,0.723,0.862,0.657,1.423l-5,42.666c-0.089,0.756-0.729,1.325-1.49,1.325H300.152z"/>
			<g>
				<path d="M302.772,357.031l19.679,13.131l-5,42.666h-17.299v-22.125c0-4.025-3.264-7.289-7.289-7.289s-7.289,3.264-7.289,7.289
					v22.125h-17.299l-5-42.666l16.993-13.131H302.772 M302.772,354.031h-22.504c-0.664,0-1.309,0.221-1.834,0.626l-16.993,13.131
					c-0.834,0.644-1.269,1.678-1.146,2.724l5,42.666c0.177,1.511,1.458,2.65,2.979,2.65h17.299c1.657,0,3-1.343,3-3v-22.125
					c0-2.365,1.924-4.289,4.289-4.289s4.289,1.924,4.289,4.289v22.125c0,1.657,1.343,3,3,3h17.299c1.521,0,2.803-1.14,2.979-2.65
					l5-42.666c0.132-1.12-0.376-2.219-1.314-2.845l-19.679-13.131C303.944,354.207,303.365,354.031,302.772,354.031L302.772,354.031
					z"/>
			</g>
		</g>
		<path fill="#727272" d="M263.275,363.91c2.635-2.963,9.783-3.543,13.553-3.635h-13.553V363.91z"/>
		<path fill="#EFB886" stroke="#000000" stroke-width="3" stroke-linecap="round" stroke-miterlimit="10" d="M280.936,278.113
			c0,0,12.262,6.131,26.303,0"/>
		<path fill="#512809" d="M303.197,360.162h19.254v-9.887h-19.197c2.348,1.34,3.966,2.762,3.994,4.15
			C307.283,356.186,305.779,358.219,303.197,360.162z"/>
		<g>
			<path fill="#AAAAAA" d="M263.275,383.234c-0.281,0-0.562-0.079-0.807-0.235c-0.432-0.275-0.693-0.752-0.693-1.265v-21.459
				c0-0.828,0.672-1.5,1.5-1.5h13.259c0.43,0,0.839,0.185,1.124,0.507c0.284,0.322,0.417,0.751,0.364,1.177
				c-1.155,9.345-5.283,15.196-8.543,18.46c-2.919,2.922-5.464,4.125-5.571,4.175C263.707,383.188,263.491,383.234,263.275,383.234z
				"/>
			<g>
				<path d="M276.534,360.275c-1.085,8.775-4.866,14.33-8.116,17.584c-2.765,2.768-5.143,3.875-5.143,3.875v-3.875v-17.584H276.534
					 M276.534,357.275h-13.259c-1.657,0-3,1.343-3,3v17.584v3.875c0,1.025,0.523,1.979,1.388,2.529
					c0.489,0.313,1.05,0.471,1.612,0.471c0.432,0,0.863-0.093,1.267-0.28c0.293-0.137,2.947-1.42,5.998-4.475
					c3.427-3.431,7.764-9.569,8.972-19.336c0.105-0.854-0.16-1.711-0.729-2.355C278.213,357.645,277.394,357.275,276.534,357.275
					L276.534,357.275z"/>
			</g>
		</g>
		<g>
			<path fill="#B26C20" d="M321.908,383.822c-0.11-0.051-2.734-1.293-5.744-4.308c-3.364-3.365-7.625-9.404-8.818-19.055
				l-0.209-1.685h16.905v26.042L321.908,383.822z"/>
			<g>
				<path d="M322.542,360.275v18.18v4.008c0,0-2.459-1.146-5.316-4.008c-3.361-3.363-7.27-9.107-8.392-18.18H322.542
					 M325.542,357.275h-3h-13.708h-3.394l0.416,3.368c1.246,10.073,5.717,16.399,9.247,19.933c3.141,3.145,5.87,4.466,6.171,4.605
					l4.268,1.99v-4.709v-4.008v-18.18V357.275L325.542,357.275z"/>
			</g>
		</g>
		<g>
			<path fill="#7F7F7F" d="M272.409,360.275c-1.529,6.777-4.709,11.279-7.501,14.074c-0.566,0.568-1.116,1.061-1.633,1.494v2.016
				v3.875c0,0,2.378-1.107,5.143-3.875c3.25-3.254,7.031-8.809,8.116-17.584H272.409z"/>
		</g>
		<g>
			<path fill="#EFB886" d="M322.542,370.334c-10.891,0-19.751-8.86-19.751-19.752c0-10.891,8.86-19.75,19.751-19.75
				s19.751,8.859,19.751,19.75C342.293,361.474,333.433,370.334,322.542,370.334z"/>
			<g>
				<path d="M322.542,332.332c10.079,0,18.251,8.17,18.251,18.25s-8.172,18.252-18.251,18.252s-18.251-8.172-18.251-18.252
					S312.463,332.332,322.542,332.332 M322.542,329.332c-11.718,0-21.251,9.533-21.251,21.25c0,11.719,9.533,21.252,21.251,21.252
					s21.251-9.533,21.251-21.252C343.793,338.865,334.26,329.332,322.542,329.332L322.542,329.332z"/>
			</g>
		</g>
		<path fill="#D69A69" d="M340.793,350.582c0-0.033-0.004-0.066-0.004-0.102c-5.883,8.953-16.234,9.57-22.869,5.59
			c-7.066-4.238-8.846-12.207-7.813-18.822c-3.571,3.332-5.816,8.064-5.816,13.334c0,10.08,8.172,18.252,18.251,18.252
			S340.793,360.662,340.793,350.582z"/>
		<g>
			<path fill="#AAAAAA" d="M292.918,383.838c-0.289,0-0.578-0.083-0.829-0.25c-14.243-9.452-12.986-25.986-12.926-26.686
				c0.066-0.775,0.716-1.371,1.494-1.371h24.521c0.778,0,1.428,0.596,1.494,1.371c0.061,0.699,1.317,17.233-12.926,26.686
				C293.496,383.755,293.207,383.838,292.918,383.838z"/>
			<g>
				<path d="M305.179,357.031c0,0,1.404,16.238-12.261,25.307c-13.665-9.068-12.261-25.307-12.261-25.307h12.261H305.179
					 M305.179,354.031h-12.261h-12.261c-1.557,0-2.854,1.19-2.989,2.741c-0.063,0.735-1.385,18.127,13.591,28.065
					c0.503,0.333,1.081,0.5,1.659,0.5s1.156-0.167,1.659-0.5c14.976-9.938,13.654-27.33,13.591-28.065
					C308.033,355.222,306.735,354.031,305.179,354.031L305.179,354.031z"/>
			</g>
		</g>
		<g>
			<path fill="#7F7F7F" d="M305.179,357.031h-7.194c0,0,3.042,9.908-5.066,25.307C306.583,373.27,305.179,357.031,305.179,357.031z"
				/>
		</g>
		<g>
			<path d="M278.104,337.797c-0.782,0-1.419-0.636-1.419-1.418v-13.48h-3.049c-0.782,0-1.419-0.636-1.419-1.418
				c0-0.783,0.637-1.42,1.419-1.42h3.049v-1.555c0-0.783,0.637-1.42,1.419-1.42s1.419,0.637,1.419,1.42v1.555h3.05
				c0.782,0,1.419,0.637,1.419,1.42c0,0.782-0.637,1.418-1.419,1.418h-3.05v13.48C279.523,337.161,278.887,337.797,278.104,337.797z
				"/>
			<path d="M278.104,317.586c0.508,0,0.919,0.412,0.919,0.92v2.055h3.55c0.508,0,0.919,0.412,0.919,0.92s-0.411,0.918-0.919,0.918
				h-3.55v13.98c0,0.508-0.411,0.918-0.919,0.918c-0.507,0-0.919-0.41-0.919-0.918v-13.98h-3.549c-0.508,0-0.919-0.41-0.919-0.918
				s0.411-0.92,0.919-0.92h3.549v-2.055C277.186,317.998,277.598,317.586,278.104,317.586 M278.104,316.586
				c-1.058,0-1.919,0.861-1.919,1.92v1.055h-2.549c-1.059,0-1.919,0.861-1.919,1.92c0,1.058,0.86,1.918,1.919,1.918h2.549v12.98
				c0,1.058,0.861,1.918,1.919,1.918s1.919-0.86,1.919-1.918v-12.98h2.55c1.058,0,1.919-0.86,1.919-1.918
				c0-1.059-0.861-1.92-1.919-1.92h-2.55v-1.055C280.023,317.447,279.162,316.586,278.104,316.586L278.104,316.586z"/>
		</g>
		<polygon fill="#AAAAAA" stroke="#000000" stroke-width="3" stroke-linejoin="round" stroke-miterlimit="10" points="
			266.021,393.6 268.275,412.828 285.574,412.828 285.574,393.6 		"/>
		<polygon fill="#7F7F7F" points="278.104,393.6 278.966,412.828 285.574,412.828 285.574,393.6 		"/>
		<polygon fill="#AAAAAA" stroke="#000000" stroke-width="3" stroke-linejoin="round" stroke-miterlimit="10" points="
			319.705,393.6 317.451,412.828 300.152,412.828 300.152,393.6 		"/>
		<polygon fill="#7F7F7F" points="311.046,393.6 311.046,412.828 317.451,412.828 319.705,393.6 		"/>
		<g>
			<path fill="#AAAAAA" d="M265.142,414.328c-0.828,0-1.5-0.672-1.5-1.5c0-6.014,3.98-10.906,8.874-10.906h8.836
				c4.893,0,8.873,4.893,8.873,10.906c0,0.828-0.672,1.5-1.5,1.5H265.142z"/>
			<g>
				<path d="M281.352,403.422c4.072,0,7.373,4.211,7.373,9.406h-23.583c0-5.195,3.302-9.406,7.374-9.406H281.352 M281.352,400.422
					h-8.836c-5.721,0-10.374,5.565-10.374,12.406c0,1.657,1.343,3,3,3h23.583c1.657,0,3-1.343,3-3
					C291.725,405.987,287.071,400.422,281.352,400.422L281.352,400.422z"/>
			</g>
		</g>
		<g>
			<path fill="#AAAAAA" d="M296.959,414.328c-0.828,0-1.5-0.672-1.5-1.5c0-6.014,3.98-10.906,8.873-10.906h8.836
				c4.894,0,8.874,4.893,8.874,10.906c0,0.828-0.672,1.5-1.5,1.5H296.959z"/>
			<g>
				<path d="M313.168,403.422c4.072,0,7.374,4.211,7.374,9.406h-23.583c0-5.195,3.301-9.406,7.373-9.406H313.168 M313.168,400.422
					h-8.836c-5.72,0-10.373,5.565-10.373,12.406c0,1.657,1.343,3,3,3h23.583c1.657,0,3-1.343,3-3
					C323.542,405.987,318.889,400.422,313.168,400.422L313.168,400.422z"/>
			</g>
		</g>
		<path fill="#7F7F7F" d="M288.725,412.828c0-5.195-3.301-9.406-7.373-9.406h-2.123c2.751,0.613,4.131,2.137,4.643,3.699
			c0.572,1.75,0.477,3.848-0.625,5.707H288.725z"/>
		<path fill="#7F7F7F" d="M320.542,412.828c0-5.195-3.302-9.406-7.374-9.406h-2.122c2.751,0.613,4.13,2.137,4.642,3.699
			c0.573,1.75,0.477,3.848-0.624,5.707H320.542z"/>
		<g>
			<path fill="#AAAAAA" d="M267.069,396.949c-2.717,0-4.927-2.211-4.927-4.928c0-0.959,0.277-1.888,0.804-2.69
				c0.04-0.068,0.086-0.134,0.137-0.196l12.081-14.552c0.285-0.344,0.708-0.542,1.154-0.542s0.869,0.198,1.154,0.542l11.638,14.019
				c0.063,0.067,0.122,0.14,0.179,0.214l0.264,0.319c0.029,0.036,0.058,0.074,0.085,0.113c0.561,0.824,0.857,1.783,0.857,2.773
				c0,2.717-2.211,4.928-4.928,4.928H267.069z"/>
			<g>
				<path d="M276.318,375.541l11.67,14.057c0.065,0.064,0.118,0.145,0.178,0.215l0.231,0.279h-0.002c0.377,0.551,0.6,1.215,0.6,1.93
					c0,1.895-1.535,3.428-3.428,3.428h-18.498c-1.893,0-3.427-1.533-3.427-3.428c0-0.715,0.222-1.379,0.599-1.93h-0.003l0.345-0.416
					c0.022-0.025,0.04-0.053,0.065-0.076L276.318,375.541 M276.318,372.541L276.318,372.541c-0.893,0-1.738,0.397-2.309,1.084
					l-11.615,13.993c-0.048,0.054-0.088,0.102-0.121,0.143c0,0.001,0,0.001,0,0.001l-0.345,0.416
					c-0.096,0.115-0.182,0.235-0.257,0.361c-0.674,1.041-1.029,2.241-1.029,3.482c0,3.544,2.883,6.428,6.427,6.428h18.498
					c3.544,0,6.428-2.884,6.428-6.428c0-1.251-0.361-2.461-1.048-3.51c-0.071-0.115-0.151-0.228-0.24-0.334l-0.227-0.273
					c-0.057-0.074-0.137-0.177-0.241-0.292l-11.612-13.987C278.057,372.938,277.211,372.541,276.318,372.541L276.318,372.541z"/>
			</g>
		</g>
		<g>
			<path fill="#AAAAAA" d="M300.68,396.949c-2.717,0-4.927-2.211-4.927-4.928c0-0.959,0.277-1.888,0.803-2.69
				c0.041-0.068,0.087-0.134,0.138-0.196l12.081-14.552c0.285-0.344,0.708-0.542,1.154-0.542s0.869,0.198,1.154,0.542l11.638,14.019
				c0.063,0.067,0.122,0.14,0.179,0.214l0.264,0.319c0.029,0.036,0.059,0.074,0.085,0.113c0.561,0.824,0.857,1.783,0.857,2.773
				c0,2.717-2.211,4.928-4.928,4.928H300.68z"/>
			<g>
				<path d="M309.929,375.541l11.67,14.057c0.065,0.064,0.118,0.145,0.178,0.215l0.231,0.279h-0.002c0.377,0.551,0.6,1.215,0.6,1.93
					c0,1.895-1.535,3.428-3.428,3.428H300.68c-1.893,0-3.427-1.533-3.427-3.428c0-0.715,0.222-1.379,0.599-1.93h-0.003l0.345-0.416
					c0.022-0.025,0.04-0.053,0.065-0.076L309.929,375.541 M309.929,372.541L309.929,372.541c-0.893,0-1.738,0.397-2.309,1.084
					l-11.615,13.993c-0.048,0.054-0.088,0.102-0.121,0.143c0,0.001,0,0.001,0,0.001l-0.345,0.416
					c-0.096,0.115-0.182,0.235-0.257,0.361c-0.674,1.041-1.029,2.241-1.029,3.482c0,3.544,2.883,6.428,6.427,6.428h18.498
					c3.544,0,6.428-2.884,6.428-6.428c0-1.251-0.361-2.461-1.048-3.51c-0.071-0.115-0.151-0.228-0.24-0.334l-0.227-0.273
					c-0.057-0.074-0.137-0.177-0.241-0.292l-11.612-13.987C311.667,372.938,310.821,372.541,309.929,372.541L309.929,372.541z"/>
			</g>
		</g>
		<path fill="#7F7F7F" d="M263.7,392.59c0.271,1.623,1.671,2.859,3.369,2.859h18.498c1.893,0,3.428-1.533,3.428-3.428
			c0-0.715-0.223-1.379-0.6-1.93h0.002l-0.231-0.279c-0.06-0.07-0.112-0.15-0.178-0.215l-11.67-14.057
			C276.318,375.541,286.78,396.117,263.7,392.59z"/>
		<path fill="#7F7F7F" d="M297.281,392.59c0.271,1.623,1.671,2.859,3.369,2.859h18.498c1.893,0,3.428-1.533,3.428-3.428
			c0-0.715-0.223-1.379-0.6-1.93h0.002l-0.231-0.279c-0.06-0.07-0.112-0.15-0.178-0.215l-11.67-14.057
			C309.899,375.541,320.361,396.117,297.281,392.59z"/>
		<g>
			<path d="M263.275,358.531c-0.828,0-1.5-0.672-1.5-1.5v-6.756c0-0.828,0.672-1.5,1.5-1.5h59.176c0.828,0,1.5,0.672,1.5,1.5v6.756
				c0,0.828-0.672,1.5-1.5,1.5H263.275z"/>
			<g>
				<path d="M322.451,350.275v6.756h-59.176v-6.756H322.451 M322.451,347.275h-59.176c-1.657,0-3,1.343-3,3v6.756
					c0,1.657,1.343,3,3,3h59.176c1.657,0,3-1.343,3-3v-6.756C325.451,348.618,324.108,347.275,322.451,347.275L322.451,347.275z"/>
			</g>
		</g>
		<g>
			<g>
				<path fill="#FFFFFF" d="M323.287,381.424c-0.256,0-0.512-0.065-0.742-0.196c-34.295-19.521-31.151-54.863-31.115-55.218
					c0.077-0.767,0.722-1.35,1.492-1.35h60.732c0.771,0,1.415,0.583,1.492,1.35c0.036,0.354,3.18,35.697-31.117,55.218
					C323.799,381.358,323.543,381.424,323.287,381.424z"/>
				<path d="M353.654,326.16c0,0,3.479,34.5-30.367,53.764c-33.844-19.264-30.365-53.764-30.365-53.764h30.365H353.654
					 M353.654,323.16h-30.367h-30.365c-1.54,0-2.83,1.166-2.984,2.699c-0.038,0.377-0.891,9.355,2.605,20.833
					c3.226,10.588,10.92,25.399,29.26,35.839c0.46,0.262,0.973,0.393,1.484,0.393s1.023-0.131,1.484-0.393
					c18.341-10.439,26.036-25.251,29.261-35.839c3.497-11.478,2.645-20.456,2.606-20.833
					C356.484,324.326,355.194,323.16,353.654,323.16L353.654,323.16z"/>
			</g>
			<g>
				<path fill="#D6D6D6" d="M353.654,326.16h-11.717c0,0,1.393,35.82-18.65,53.764C357.133,360.66,353.654,326.16,353.654,326.16z"
					/>
			</g>
			<g>
				<path fill="#E83838" d="M323.287,370.039c-1.745,0-3.164-1.419-3.164-3.164v-23.816h-4.928c-1.745,0-3.164-1.419-3.164-3.164
					s1.419-3.164,3.164-3.164h4.928v-2.225c0-1.745,1.419-3.164,3.164-3.164s3.164,1.419,3.164,3.164v2.225h4.929
					c1.745,0,3.164,1.419,3.164,3.164s-1.419,3.164-3.164,3.164h-4.929v23.816C326.451,368.62,325.032,370.039,323.287,370.039z"/>
				<path d="M323.287,332.842c0.919,0,1.664,0.744,1.664,1.664v3.725h6.429c0.919,0,1.664,0.744,1.664,1.664
					c0,0.918-0.745,1.664-1.664,1.664h-6.429v25.316c0,0.918-0.745,1.664-1.664,1.664c-0.918,0-1.664-0.746-1.664-1.664v-25.316
					h-6.428c-0.919,0-1.664-0.746-1.664-1.664c0-0.92,0.745-1.664,1.664-1.664h6.428v-3.725
					C321.623,333.586,322.369,332.842,323.287,332.842 M323.287,329.842c-2.572,0-4.664,2.092-4.664,4.664v0.725h-3.428
					c-2.572,0-4.664,2.092-4.664,4.664s2.092,4.664,4.664,4.664h3.428v22.316c0,2.572,2.092,4.664,4.664,4.664
					s4.664-2.092,4.664-4.664v-22.316h3.429c2.571,0,4.664-2.092,4.664-4.664s-2.093-4.664-4.664-4.664h-3.429v-0.725
					C327.951,331.934,325.859,329.842,323.287,329.842L323.287,329.842z"/>
			</g>
		</g>
		<polygon fill="#E5E5E5" points="263.275,347.619 264.569,341.855 261.569,311.855 259.847,309.154 258.625,310.152 
			263.275,342.148 		"/>
		<g>
			<g>
				<path fill="#AAAAAA" d="M251.876,319.484c-7.3,0-13.933-4.018-17.308-10.483c-0.184-0.353-0.221-0.765-0.102-1.144
					c0.119-0.38,0.384-0.696,0.737-0.881l31.924-16.664c0.217-0.112,0.455-0.17,0.694-0.17c0.151,0,0.303,0.022,0.449,0.069
					c0.38,0.119,0.696,0.384,0.881,0.736c4.977,9.535,1.269,21.342-8.266,26.319C258.106,318.718,254.991,319.484,251.876,319.484
					C251.876,319.484,251.876,319.484,251.876,319.484z"/>
				<g>
					<path d="M267.821,291.643c4.602,8.816,1.186,19.693-7.63,24.295c-2.661,1.389-5.508,2.047-8.315,2.047
						c-6.493,0-12.766-3.523-15.979-9.678L267.821,291.643 M267.821,288.643c-0.479,0-0.956,0.114-1.389,0.341l-31.923,16.664
						c-0.706,0.368-1.236,1.001-1.474,1.761c-0.238,0.759-0.166,1.581,0.203,2.287c3.635,6.963,10.777,11.289,18.638,11.289
						c3.356,0,6.711-0.825,9.704-2.388c10.268-5.359,14.26-18.073,8.9-28.342c-0.368-0.706-1.001-1.236-1.76-1.475
						C268.427,288.688,268.123,288.643,267.821,288.643L267.821,288.643z"/>
				</g>
			</g>
			<g>
				<path fill="#7F7F7F" d="M264.834,293.201c2.144,7.973-1.431,16.641-9.053,20.619c-4.45,2.322-9.423,2.596-13.852,1.17
					c5.284,3.488,12.251,4.084,18.262,0.947c8.815-4.602,12.231-15.479,7.63-24.295L264.834,293.201z"/>
			</g>
			<path fill="#E5E5E5" d="M238.187,309.514c3.243-1.693,23.844-12.447,30.499-15.92c-0.251-0.658-0.53-1.311-0.864-1.951
				l-31.924,16.664c0.813,1.559,1.831,2.938,2.99,4.145C238.304,311.17,238.03,309.932,238.187,309.514z"/>
		</g>
		<g>
			<g>
				<path fill="#AAAAAA" d="M333.077,319.484c-3.085,0-6.053-0.714-8.82-2.12c-4.645-2.358-8.093-6.386-9.709-11.339
					c-1.616-4.954-1.207-10.24,1.153-14.887c0.18-0.354,0.493-0.623,0.872-0.746c0.151-0.05,0.309-0.074,0.465-0.074
					c0.234,0,0.467,0.055,0.68,0.163l32.106,16.311c0.738,0.375,1.033,1.277,0.657,2.017
					C347.138,315.393,340.468,319.484,333.077,319.484L333.077,319.484z"/>
				<g>
					<path d="M317.038,291.818l32.106,16.311c-3.177,6.254-9.504,9.855-16.067,9.855c-2.743,0-5.528-0.63-8.141-1.957
						C316.071,311.525,312.534,300.686,317.038,291.818 M317.038,288.818c-0.313,0-0.627,0.049-0.931,0.148
						c-0.756,0.246-1.384,0.783-1.744,1.493c-2.541,5.003-2.982,10.696-1.241,16.03c1.74,5.335,5.454,9.672,10.456,12.212
						c2.938,1.493,6.223,2.282,9.499,2.282c7.959,0,15.141-4.405,18.742-11.497c0.75-1.477,0.161-3.282-1.316-4.033l-32.106-16.311
						C317.972,288.928,317.506,288.818,317.038,288.818L317.038,288.818z"/>
				</g>
			</g>
			<g>
				<path fill="#7F7F7F" d="M346.14,306.604c-5.244,6.375-14.376,8.5-22.042,4.605c-4.476-2.273-7.587-6.164-8.997-10.596
					c0.229,6.326,3.79,12.344,9.836,15.414c8.864,4.504,19.704,0.969,24.208-7.898L346.14,306.604z"/>
			</g>
			<path fill="#E5E5E5" d="M317.386,294.383c3.262,1.658,25.762,11.172,27.804,11.736l-28.151-14.301
				c-0.797,1.57-1.329,3.199-1.637,4.842C316.105,295.443,316.952,294.5,317.386,294.383z"/>
		</g>
		<g>
			<g>
				<path fill="#EFB886" d="M292.863,311.652c-43.79,0-79.416-48.416-79.416-107.927c0-40.283,35.626-73.056,79.416-73.056
					s79.416,32.772,79.416,73.056C372.279,263.236,336.653,311.652,292.863,311.652z"/>
				<path d="M292.863,132.17c43.031,0,77.916,32.037,77.916,71.556c0,58.778-34.885,106.427-77.916,106.427
					c-43.032,0-77.916-47.648-77.916-106.427C214.947,164.207,249.831,132.17,292.863,132.17 M292.863,129.17
					c-44.617,0-80.916,33.445-80.916,74.556c0,29.061,8.311,56.416,23.4,77.027c15.296,20.894,35.722,32.399,57.516,32.399
					c21.793,0,42.22-11.506,57.516-32.399c15.09-20.611,23.4-47.967,23.4-77.027C373.779,162.615,337.48,129.17,292.863,129.17
					L292.863,129.17z"/>
			</g>
			<path fill="#B77E53" d="M347.152,195.542c0,0,14.244,98.218-58.752,114.433c1.478,0.113,2.965,0.178,4.463,0.178
				c43.031,0,77.916-47.648,77.916-106.427c0-1.733-0.092-3.446-0.223-5.149l-10.055-12.823L347.152,195.542z"/>
			<circle cx="256.89" cy="224.485" r="7.156"/>
			<circle cx="330.444" cy="224.485" r="7.155"/>
			<path fill="#B77E53" d="M217.699,234.054c0,0,3.38-31.38,7.48-33.073c7.89,11.782,17.295,14.843,17.295,14.843
				c-3.506-4.908-3.592-34.592-3.592-34.592c11.37,17.18,22.758,23.261,22.758,23.261c-3.506-5.029-3.016-25.598-3.016-25.598
				c6.756,11.453,23.115,24.309,43.45,27.58c-7.946-12.855-9.218-16.828-9.218-16.828c12.49,13.556,26.353,20.127,47.936,22.334
				c-6.463-6.908-7.632-8.778-7.632-8.778c13.089,11.453,37.618,24.308,37.618,24.308c-11.908-49.55-50.473-65.443-50.473-65.443
				l-59.602-5.336l-25.476,12.815l-17.53,19.399l-7.945,17.529L217.699,234.054z"/>
			<g>
				<path fill="#EAB634" d="M217.528,237.614C207.435,221.927,202.1,203.6,202.1,184.615c0-52.382,40.716-94.998,90.764-94.998
					c50.046,0,90.762,42.616,90.762,94.998c0,18.986-5.335,37.313-15.428,52.999l-4.771,7.415l2.051-8.575
					c0.744-3.111,1.398-6.395,1.948-9.773c-9.14-7.349-23.267-19.137-32-28.507c1.623,3.948,3.87,8.745,6.626,12.99l2.205,3.396
					l-3.886-1.14c-12.938-3.797-31.566-13.603-43.6-25.242c1.205,4.392,3.144,10.618,5.604,15.656l2.021,4.138l-4.07-2.154
					c-14.375-7.604-24.886-15.063-33.519-23.838c0.176,4.159,0.462,10.704,0.712,15.422l0.152,2.879l-2.445-1.528
					c-8.832-5.518-14.854-12.996-18.122-17.813c0.593,6.845,3.002,15.563,7.769,22.721l1.99,2.988l-3.524-0.685
					c-0.592-0.115-13.354-2.678-23.197-11.166c0.564,4.844,2.113,13.536,6.321,21.855l1.51,2.984l-3.232-0.857
					c-6.537-1.733-12.658-5.446-18.237-11.054c0.268,9.8,1.524,19.445,3.744,28.727l2.051,8.577L217.528,237.614z"/>
				<path d="M292.863,91.117c49.298,0,89.262,41.86,89.262,93.498c0,19.326-5.599,37.282-15.189,52.188
					c0.838-3.504,1.535-7.093,2.107-10.746c-10.963-8.79-31.465-25.854-38.018-35.576c0,0,3.6,12,9.768,21.5
					c-15.332-4.5-36.168-16.5-46.875-29c0,0,2.707,12.5,7.109,21.512c-15.1-7.988-26.402-16.012-35.886-26.459
					c0,0,0.483,11.947,0.88,19.447c-13.604-8.5-20.486-22-20.486-22c-0.592,8,2.09,20,8.09,29.012c0,0-15.5-3.012-25.3-13.512
					c0,0,0.3,13.5,6.8,26.351c-8.488-2.251-15.242-7.796-20.176-13.483c0.009,11.505,1.358,22.579,3.84,32.955
					c-9.59-14.905-15.189-32.861-15.189-52.188C203.6,132.978,243.564,91.117,292.863,91.117 M292.863,88.117
					c-50.875,0-92.264,43.289-92.264,96.498c0,19.273,5.417,37.881,15.667,53.811l9.543,14.833l-4.102-17.153
					c-1.92-8.029-3.112-16.335-3.558-24.778c5.028,4.394,10.457,7.379,16.207,8.904l6.465,1.714l-3.019-5.968
					c-3.208-6.342-4.832-12.884-5.651-17.693c9.569,6.881,20.351,9.046,20.902,9.153l7.049,1.37l-3.979-5.977
					c-3.353-5.037-5.502-10.863-6.646-16.208c3.547,4.352,8.526,9.385,14.956,13.403l4.89,3.056l-0.304-5.758
					c-0.183-3.444-0.384-7.864-0.549-11.616c8.217,7.752,18.116,14.54,31.155,21.438l8.142,4.307l-4.043-8.276
					c-1.57-3.214-2.925-6.93-4.008-10.326c12.077,10.207,28.476,18.559,40.233,22.009l7.771,2.281l-4.41-6.793
					c-1.063-1.637-2.049-3.358-2.95-5.079c8.149,7.813,18.201,16.192,25.442,22.032c-0.514,3.039-1.111,5.994-1.784,8.805
					l-4.101,17.15l9.541-14.829c10.25-15.929,15.667-34.536,15.667-53.811C385.125,131.406,343.736,88.117,292.863,88.117
					L292.863,88.117z"/>
			</g>
			<path fill="#C19125" d="M301.033,91.511c18.486,8.563,41.621,23.823,48.426,48.303c8.471,30.476,5.212,53.495,0.256,69.999
				c6.926,6.161,14.18,12.115,19.328,16.244c-0.572,3.653-1.27,7.242-2.107,10.746c9.591-14.905,15.189-32.861,15.189-52.188
				C382.125,135.863,346.501,95.833,301.033,91.511z"/>
			<g>
				<path fill="#A57820" d="M243.875,110.73c0,0,0.777-0.139,2.235-0.4c1.461-0.237,3.607-0.596,6.356-0.907
					c5.494-0.614,13.39-1.36,22.908-1.254c4.756,0.048,9.916,0.281,15.349,0.879c5.431,0.59,11.147,1.489,16.955,2.95
					c5.801,1.457,11.729,3.384,17.446,6.097c5.714,2.697,11.241,6.127,16.133,10.363c1.262,1.013,2.37,2.199,3.521,3.332
					l0.858,0.856c0.326,0.348,0.54,0.605,0.814,0.912l1.562,1.769c1.053,1.151,2.021,2.49,3.028,3.722
					c0.994,1.258,1.867,2.572,2.801,3.849c3.604,5.19,6.469,10.733,8.827,16.238c2.36,5.512,4.108,11.044,5.43,16.354
					c1.334,5.311,2.198,10.417,2.766,15.146c1.153,9.467,1.012,17.421,0.755,22.943c-0.132,2.766-0.371,4.929-0.537,6.401
					c-0.174,1.471-0.303,2.25-0.303,2.25s0.072-0.787,0.14-2.264c0.073-1.477,0.112-3.646,0.116-6.401
					c0-5.509-0.407-13.393-1.877-22.691c-0.747-4.645-1.792-9.634-3.225-14.814c-1.443-5.176-3.321-10.528-5.686-15.869
					c-2.37-5.338-5.303-10.63-8.791-15.649c-0.908-1.225-1.77-2.508-2.723-3.698l-1.433-1.784c-0.47-0.598-0.954-1.193-1.494-1.775
					l-1.571-1.761c-0.252-0.278-0.548-0.622-0.763-0.846l-0.822-0.808c-1.101-1.071-2.158-2.19-3.364-3.152
					c-4.632-4.056-9.905-7.376-15.405-10.01c-5.507-2.628-11.209-4.66-16.861-6.159c-11.317-3.016-22.298-4.185-31.697-4.667
					c-9.416-0.441-17.302-0.239-22.805,0.119c-2.751,0.184-4.915,0.343-6.387,0.489C244.66,110.647,243.875,110.73,243.875,110.73z"
					/>
			</g>
			<g>
				<path fill="#C69528" d="M238.875,114.23c0,0-0.606,1.386-1.536,3.849c-0.461,1.233-1.003,2.735-1.591,4.466
					c-0.597,1.728-1.189,3.703-1.838,5.849c-0.604,2.161-1.237,4.504-1.804,7.003c-0.596,2.492-1.051,5.153-1.522,7.896
					c-0.398,2.755-0.74,5.609-0.901,8.516c-0.215,2.904-0.192,5.86-0.053,8.802c0.133,1.464,0.146,2.944,0.375,4.391
					c0.093,0.727,0.185,1.452,0.278,2.174c0.105,0.72,0.265,1.429,0.394,2.14c0.526,2.844,1.277,5.591,2.168,8.197
					c0.425,1.311,1.019,2.531,1.477,3.778c0.524,1.218,1.134,2.366,1.675,3.513c0.585,1.123,1.258,2.157,1.841,3.201
					c0.581,1.048,1.303,1.954,1.911,2.886c0.322,0.453,0.606,0.921,0.941,1.335c0.334,0.415,0.662,0.82,0.98,1.215
					c0.643,0.786,1.21,1.576,1.824,2.246c1.26,1.305,2.284,2.539,3.238,3.438c1.913,1.796,3.001,2.857,3.001,2.857
					s-1.237-0.854-3.394-2.407c-1.071-0.786-2.258-1.878-3.669-3.089c-0.695-0.617-1.353-1.355-2.093-2.093
					c-0.363-0.377-0.735-0.763-1.115-1.159c-0.378-0.398-0.709-0.854-1.079-1.293c-0.703-0.906-1.528-1.79-2.217-2.823
					c-0.689-1.032-1.438-2.082-2.121-3.214c-0.635-1.159-1.341-2.327-1.965-3.57c-0.289-0.633-0.582-1.273-0.877-1.919
					c-0.284-0.651-0.61-1.294-0.836-1.982c-0.248-0.68-0.497-1.366-0.749-2.057l-0.375-1.042l-0.307-1.07
					c-0.205-0.716-0.411-1.438-0.618-2.162c-0.209-0.725-0.319-1.475-0.483-2.217c-0.145-0.745-0.32-1.49-0.44-2.244
					c-0.106-0.757-0.212-1.516-0.319-2.276c-0.254-1.518-0.295-3.06-0.441-4.594c-0.112-3.076-0.097-6.154,0.16-9.163
					c0.182-3.017,0.703-5.943,1.192-8.764c0.556-2.81,1.208-5.5,1.959-8.007c0.705-2.521,1.544-4.849,2.337-6.984
					c1.622-4.26,3.275-7.677,4.515-10.017C238.048,115.497,238.875,114.23,238.875,114.23z"/>
			</g>
			<path fill="#C19125" d="M218.789,236.803c-1.523-6.371-2.615-13.007-3.238-19.842c-4.588-4.713-7.998-10.228-10.535-15.753
				C207.238,214.2,212.01,226.266,218.789,236.803z"/>
			<g>
				<path fill="#C19125" d="M340.793,211.98c-2.209-3.402-4.086-7.123-5.588-10.5c-20.529-3.7-41.287-18.5-41.287-18.5
					C304.625,195.48,325.461,207.48,340.793,211.98z"/>
			</g>
			<g>
				<path fill="#C19125" d="M296.369,192.203c-10.835,2.347-31.228-14.17-31.228-14.17c9.483,10.447,20.786,18.471,35.886,26.459
					C299.134,200.616,297.555,196.098,296.369,192.203z"/>
			</g>
			<path fill="#C19125" d="M265.604,188.812c-8.966,0.426-20.068-13.331-20.068-13.331l0.344,0.635
				c1.542,2.762,8.291,13.96,20.143,21.365C265.885,194.896,265.738,191.782,265.604,188.812z"/>
			<path fill="#C19125" d="M293.918,182.98c0,0-31.043-26.5-46.293-58c18.75,24.75,55.408,66.75,87.58,76.5
				c-9.124,0.044-20.83-4-20.83-4L293.918,182.98z"/>
			<g>
				<path fill="#A57820" d="M241.125,112.48c0,0,1.331,1.654,3.659,4.55c1.171,1.439,2.593,3.187,4.225,5.192
					c1.645,1.992,3.5,4.239,5.524,6.69c2.067,2.416,4.248,5.077,6.625,7.833c2.366,2.764,4.868,5.672,7.495,8.645
					c1.313,1.486,2.624,3.02,3.996,4.53c1.371,1.511,2.759,3.041,4.158,4.583c2.748,3.129,5.717,6.142,8.597,9.236
					c2.895,3.081,5.897,6.054,8.795,9.04c3.012,2.864,5.9,5.767,8.78,8.485c2.959,2.627,5.737,5.267,8.465,7.661
					c2.788,2.319,5.401,4.546,7.817,6.603c2.515,1.93,4.82,3.7,6.863,5.268c0.511,0.395,1.005,0.777,1.482,1.146
					c0.482,0.36,0.976,0.667,1.432,0.987c0.922,0.629,1.769,1.207,2.533,1.729c3.057,2.114,4.803,3.323,4.803,3.323
					s-1.861-1.024-5.118-2.816c-0.813-0.455-1.714-0.959-2.694-1.507c-0.486-0.279-1.01-0.547-1.519-0.876
					c-0.505-0.334-1.028-0.68-1.568-1.038c-2.164-1.43-4.607-3.047-7.257-4.843c-2.551-1.92-5.312-4.012-8.211-6.255
					c-2.85-2.3-5.771-4.827-8.808-7.427c-2.956-2.684-5.992-5.482-9.032-8.372c-2.943-2.984-6-5.954-8.935-9.038
					c-2.875-3.14-5.84-6.199-8.578-9.369c-2.793-3.123-5.468-6.259-8.005-9.336c-2.586-3.036-4.957-6.077-7.221-8.945
					c-2.286-2.85-4.318-5.647-6.245-8.186c-3.782-5.135-6.822-9.491-8.879-12.59c-1.045-1.537-1.822-2.777-2.362-3.613
					C241.41,112.929,241.125,112.48,241.125,112.48z"/>
			</g>
			<path fill="#C19125" d="M243.875,112.48c0,0,83.321,20.986,109.068,95.5c2.131,6.163,10-17.027,11.811-10.244
				C364.754,180.236,342.786,112.48,243.875,112.48z"/>
			<path fill="#C19125" d="M248.391,193.783c-9.328,6.156-20.065-2.803-20.065-2.803c9.8,10.5,25.3,13.512,25.3,13.512
				C251.438,201.207,249.697,197.524,248.391,193.783z"/>
			<path fill="#C19125" d="M231.171,207.287c-8.941,2.453-16.222-3.439-16.222-3.439c4.934,5.688,11.688,11.232,20.176,13.483
				C233.41,213.941,232.131,210.508,231.171,207.287z"/>
			<g>
				<path fill="#EFCA89" d="M241.125,112.48c0,0,2.123,6.368,5.945,15.612c0.949,2.313,2.042,4.791,3.188,7.412
					c1.17,2.611,2.452,5.34,3.807,8.146c1.337,2.816,2.857,5.655,4.373,8.55c0.761,1.446,1.576,2.876,2.37,4.327
					c0.839,1.423,1.649,2.872,2.518,4.284c1.701,2.846,3.444,5.669,5.29,8.358c0.906,1.357,1.831,2.684,2.759,3.985
					c0.906,1.319,1.862,2.575,2.801,3.812c0.914,1.257,1.904,2.419,2.825,3.598c0.912,1.188,1.878,2.285,2.802,3.37
					c0.907,1.1,1.856,2.109,2.762,3.098c0.892,1.003,1.772,1.956,2.659,2.829c1.725,1.799,3.397,3.354,4.872,4.75
					c1.503,1.36,2.855,2.506,3.949,3.478c2.278,1.839,3.581,2.89,3.581,2.89s-1.435-0.857-3.938-2.411
					c-1.198-0.847-2.694-1.833-4.328-3.075c-0.808-0.635-1.666-1.31-2.572-2.021c-0.918-0.702-1.79-1.542-2.753-2.364
					c-0.965-0.821-1.928-1.721-2.906-2.672c-0.991-0.94-1.999-1.93-2.983-2.995c-2.016-2.088-4.063-4.371-6.046-6.84
					c-0.996-1.231-2.012-2.481-2.977-3.794c-0.491-0.65-0.984-1.305-1.48-1.963c-0.471-0.676-0.942-1.356-1.417-2.039
					c-1.908-2.722-3.717-5.574-5.473-8.455c-0.868-1.447-1.677-2.927-2.515-4.383c-0.791-1.481-1.604-2.943-2.361-4.419
					s-1.509-2.94-2.188-4.417c-0.704-1.465-1.374-2.924-2.013-4.367c-1.307-2.873-2.433-5.71-3.479-8.404
					c-1.039-2.698-1.953-5.273-2.734-7.67c-0.804-2.389-1.461-4.604-2.019-6.573c-0.567-1.966-0.999-3.698-1.347-5.125
					C241.41,114.135,241.125,112.48,241.125,112.48z"/>
			</g>
			<g>
				<path fill="#EFCA89" d="M235.125,116.98c0,0-0.252,0.323-0.693,0.952c-0.447,0.623-1.068,1.563-1.849,2.76
					c-0.785,1.194-1.675,2.686-2.664,4.41c-0.954,1.745-2.024,3.714-3.073,5.919c-1.064,2.197-2.125,4.62-3.133,7.223
					c-1.045,2.589-1.915,5.403-2.801,8.308c-0.79,2.933-1.545,5.982-2.049,9.127c-0.313,1.563-0.466,3.162-0.681,4.757
					c-0.171,1.6-0.28,3.214-0.378,4.826c-0.122,3.227-0.148,6.466,0.144,9.634c0.065,0.793,0.13,1.583,0.195,2.368
					c0.104,0.781,0.208,1.559,0.312,2.332c0.111,0.771,0.192,1.544,0.326,2.302c0.149,0.755,0.296,1.505,0.443,2.25
					c0.154,0.742,0.273,1.487,0.454,2.21c0.186,0.722,0.37,1.437,0.553,2.144c0.18,0.708,0.358,1.41,0.535,2.102
					c0.219,0.681,0.435,1.353,0.647,2.016c0.792,2.676,1.82,5.109,2.686,7.391c0.504,1.111,0.987,2.177,1.447,3.19
					c0.227,0.509,0.448,1.005,0.662,1.487c0.243,0.469,0.479,0.923,0.708,1.364c0.936,1.752,1.664,3.337,2.438,4.54
					c1.458,2.46,2.273,3.888,2.273,3.888s-0.959-1.325-2.604-3.682c-0.86-1.156-1.697-2.688-2.761-4.389
					c-0.261-0.429-0.53-0.871-0.807-1.326c-0.25-0.47-0.506-0.955-0.77-1.452c-0.519-1-1.063-2.052-1.632-3.149
					c-0.996-2.261-2.162-4.686-3.054-7.386c-0.241-0.668-0.485-1.346-0.733-2.032c-0.205-0.7-0.413-1.408-0.623-2.125
					c-0.207-0.718-0.417-1.443-0.627-2.176c-0.2-0.735-0.339-1.494-0.514-2.25c-0.166-0.758-0.334-1.523-0.503-2.294
					c-0.154-0.773-0.254-1.563-0.386-2.352c-0.123-0.791-0.247-1.586-0.371-2.385c-0.072-0.806-0.145-1.615-0.218-2.428
					c-0.321-3.251-0.323-6.576-0.216-9.89c0.112-1.654,0.236-3.31,0.423-4.949c0.231-1.635,0.402-3.272,0.733-4.871
					c0.526-3.223,1.408-6.315,2.265-9.293c0.95-2.952,1.956-5.777,3.108-8.371c0.534-1.314,1.154-2.549,1.71-3.761
					c0.618-1.182,1.17-2.346,1.783-3.42c1.156-2.185,2.376-4.096,3.458-5.782c1.114-1.667,2.108-3.102,2.979-4.247
					c0.854-1.155,1.584-2.018,2.081-2.604C234.844,117.279,235.125,116.98,235.125,116.98z"/>
			</g>
			<g>
				<path fill="#EFCA89" d="M245.945,113.057c0,0,0.664,0.031,1.905,0.14c1.242,0.106,3.064,0.274,5.371,0.593
					c2.303,0.334,5.103,0.744,8.291,1.361c1.6,0.28,3.285,0.657,5.071,1.022c1.778,0.397,3.642,0.847,5.579,1.346
					c3.87,1.01,8.046,2.199,12.384,3.704c2.182,0.716,4.379,1.578,6.646,2.404c1.117,0.456,2.246,0.917,3.386,1.381
					c1.145,0.458,2.287,0.949,3.423,1.481c1.143,0.519,2.295,1.042,3.455,1.568c1.142,0.567,2.292,1.138,3.449,1.712
					c2.335,1.112,4.596,2.436,6.901,3.719c1.159,0.629,2.26,1.374,3.398,2.059c1.122,0.713,2.283,1.372,3.381,2.135
					c2.188,1.535,4.465,2.965,6.566,4.643l3.188,2.46l3.055,2.616c2.071,1.699,3.948,3.599,5.857,5.43
					c0.974,0.897,1.861,1.872,2.743,2.844c0.881,0.972,1.757,1.939,2.628,2.9c1.678,1.977,3.233,4.018,4.813,5.979
					c1.425,2.08,2.877,4.089,4.201,6.117c1.225,2.091,2.422,4.136,3.588,6.128c1.021,2.066,2.015,4.076,2.976,6.021
					c0.89,1.976,1.61,3.946,2.375,5.8c0.801,1.842,1.328,3.697,1.88,5.438c0.27,0.873,0.532,1.723,0.787,2.549
					c0.26,0.824,0.514,1.624,0.673,2.424c0.366,1.584,0.708,3.067,1.024,4.438c0.308,1.371,0.642,2.617,0.783,3.778
					c0.37,2.301,0.61,4.115,0.796,5.346c0.178,1.231,0.273,1.888,0.273,1.888s-0.151-0.647-0.435-1.861
					c-0.276-1.214-0.714-2.987-1.206-5.25c-0.212-1.14-0.624-2.359-1.016-3.699c-0.398-1.336-0.83-2.781-1.292-4.324
					c-0.207-0.778-0.509-1.553-0.817-2.351c-0.304-0.799-0.616-1.621-0.937-2.464c-0.651-1.681-1.23-3.486-2.109-5.261
					c-0.837-1.79-1.63-3.688-2.591-5.583c-1.007-1.871-2.048-3.805-3.118-5.792c-1.204-1.908-2.439-3.867-3.703-5.87
					c-1.384-1.918-2.798-3.879-4.236-5.872c-1.581-1.882-3.135-3.84-4.808-5.733c-0.867-0.92-1.74-1.845-2.618-2.775
					c-0.865-0.94-1.735-1.885-2.691-2.753c-1.874-1.772-3.713-3.613-5.747-5.257l-2.996-2.533l-3.128-2.384
					c-2.039-1.653-4.259-3.064-6.388-4.581c-1.068-0.754-2.203-1.406-3.296-2.111c-1.111-0.678-2.183-1.415-3.316-2.039
					c-2.259-1.261-4.45-2.601-6.719-3.742c-1.126-0.587-2.244-1.171-3.354-1.75c-1.131-0.541-2.253-1.077-3.367-1.609
					c-2.209-1.104-4.478-1.979-6.638-2.977c-2.206-0.886-4.346-1.809-6.476-2.585c-2.123-0.798-4.195-1.554-6.221-2.23
					c-2.012-0.72-3.985-1.321-5.875-1.923c-3.794-1.145-7.294-2.146-10.423-2.933c-3.124-0.813-5.879-1.396-8.149-1.874
					c-2.276-0.441-4.065-0.808-5.293-1.005C246.604,113.144,245.945,113.057,245.945,113.057z"/>
			</g>
			<g>
				<path fill="#5E5E5E" d="M206.734,208.118c-0.641-0.044-1.182-0.492-1.347-1.113c-1.185-4.48-2.062-9.113-2.605-13.769
					c-0.017-0.144-0.013-0.289,0.012-0.431c4.163-23.943,29.54-43.724,64.708-50.482c5.978-6.08,15.806-9.696,26.416-9.696
					c10.878,0,20.843,3.756,26.781,10.07c32.864,6.833,57.341,25.671,62.419,48.081c0.035,0.156,0.046,0.316,0.03,0.475
					c-0.487,5.065-1.356,10.075-2.584,14.89c-0.157,0.619-0.69,1.07-1.327,1.124c-0.042,0.003-0.085,0.005-0.127,0.005
					c-0.588,0-1.128-0.346-1.37-0.892c-8.112-18.277-29.612-32.609-57.604-38.437c-5.994,5.961-15.718,9.498-26.218,9.498
					c-10.683,0-20.5-3.63-26.472-9.749c-7.48,1.478-14.632,3.602-21.268,6.319c-0.01,0.004-0.065,0.027-0.083,0.035
					c-18.684,7.666-32.135,19.44-37.874,33.153c-0.235,0.561-0.782,0.921-1.383,0.921
					C206.804,208.121,206.77,208.12,206.734,208.118z"/>
				<path d="M293.918,134.128c10.993,0,20.626,3.977,26.006,9.941c32.285,6.582,56.683,24.761,61.731,47.041
					c-0.482,5.015-1.334,9.915-2.544,14.663c-8.345-18.801-30.831-33.689-59.479-39.463c-5.431,5.791-14.915,9.632-25.715,9.632
					c-10.954,0-20.557-3.949-25.947-9.879c-7.971,1.521-15.48,3.744-22.36,6.561c-0.049-0.093-0.075-0.144-0.075-0.144
					c-0.004,0.058-0.005,0.121-0.009,0.179c-18.703,7.674-32.732,19.731-38.688,33.962c-1.163-4.397-2.024-8.926-2.565-13.559
					c4.103-23.596,29.831-42.922,63.979-49.354C273.69,137.945,283.149,134.128,293.918,134.128 M293.918,131.128
					c-10.811,0-20.869,3.651-27.151,9.811c-35.553,6.96-61.197,27.15-65.45,51.61c-0.05,0.284-0.058,0.575-0.024,0.862
					c0.552,4.726,1.441,9.429,2.645,13.978c0.329,1.242,1.412,2.137,2.694,2.226c0.069,0.005,0.139,0.007,0.208,0.007
					c1.202,0,2.297-0.721,2.767-1.842c5.585-13.344,18.746-24.831,37.06-32.345c0.021-0.008,0.042-0.017,0.063-0.026
					c0.006-0.002,0.013-0.005,0.02-0.008c6.315-2.585,13.107-4.628,20.21-6.079c6.293,6.051,16.221,9.621,26.961,9.621
					c10.553,0,20.379-3.475,26.686-9.365c26.756,5.766,48.043,20.013,55.766,37.413c0.484,1.091,1.563,1.783,2.741,1.783
					c0.084,0,0.168-0.003,0.253-0.011c1.273-0.107,2.34-1.01,2.655-2.249c1.246-4.889,2.128-9.975,2.623-15.117
					c0.03-0.318,0.01-0.639-0.061-0.95c-2.622-11.572-10.149-22.338-21.767-31.136c-11.085-8.394-25.367-14.604-41.354-17.987
					C315.209,134.923,305.005,131.128,293.918,131.128L293.918,131.128z"/>
			</g>
			<g>
				<path fill="#AAAAAA" d="M380.995,207.685c-0.664,0-1.248-0.436-1.438-1.072c-7.938-26.684-44.273-46.052-86.397-46.052
					c-42.123,0-78.458,19.368-86.396,46.052c-0.189,0.636-0.774,1.072-1.438,1.072l0,0c-0.664,0-1.249-0.436-1.438-1.072
					c-1.13-3.801-1.704-7.695-1.704-11.573c0-32.957,40.812-59.77,90.976-59.77c50.165,0,90.977,26.813,90.977,59.77
					c0,3.878-0.573,7.772-1.704,11.573C382.244,207.249,381.659,207.685,380.995,207.685z"/>
				<g>
					<path d="M293.16,136.77c49.418,0,89.477,26.089,89.477,58.27c0,3.813-0.568,7.537-1.642,11.146
						c-7.987-26.849-44.271-47.124-87.835-47.124s-79.847,20.275-87.834,47.124c-1.073-3.608-1.642-7.333-1.642-11.146
						C203.685,162.858,243.743,136.77,293.16,136.77 M293.16,133.77c-24.475,0-47.525,6.234-64.906,17.553
						c-17.778,11.578-27.569,27.104-27.569,43.716c0,4.023,0.594,8.061,1.766,12.001c0.378,1.272,1.548,2.145,2.875,2.145
						c1.327,0,2.497-0.872,2.875-2.145c7.753-26.063,43.484-44.979,84.958-44.979c41.476,0,77.206,18.917,84.96,44.979
						c0.378,1.272,1.548,2.145,2.875,2.145l0,0c1.327,0,2.497-0.873,2.876-2.145c1.172-3.94,1.766-7.978,1.766-12.001
						c0-16.613-9.791-32.139-27.569-43.716C340.687,140.003,317.635,133.77,293.16,133.77L293.16,133.77z"/>
				</g>
			</g>
			<g>
				<path fill="#AAAAAA" d="M293.918,172.795c-17.669,0-32.044-10.052-32.044-22.407s14.375-22.407,32.044-22.407
					s32.044,10.052,32.044,22.407S311.587,172.795,293.918,172.795z"/>
				<g>
					<path d="M293.918,129.48c16.869,0,30.544,9.36,30.544,20.907s-13.675,20.907-30.544,20.907s-30.544-9.36-30.544-20.907
						S277.049,129.48,293.918,129.48 M293.918,126.48c-8.758,0-17.029,2.361-23.292,6.648c-6.611,4.525-10.252,10.654-10.252,17.259
						s3.641,12.734,10.252,17.259c6.263,4.287,14.534,6.648,23.292,6.648s17.029-2.361,23.292-6.648
						c6.611-4.525,10.252-10.654,10.252-17.259s-3.641-12.734-10.252-17.259C310.947,128.841,302.676,126.48,293.918,126.48
						L293.918,126.48z"/>
				</g>
			</g>
			<g>
				<path fill="#7F7F7F" d="M320.333,139.896c1.049,2.112,1.626,4.374,1.626,6.729c0,11.547-13.675,20.907-30.544,20.907
					c-11.28,0-21.125-4.188-26.415-10.415c4.094,8.245,15.489,14.179,28.918,14.179c16.869,0,30.544-9.36,30.544-20.907
					C324.462,146.563,322.954,142.979,320.333,139.896z"/>
			</g>
			<g>
				<path fill="#E5E5E5" d="M265.142,151.687c0-11.547,13.675-20.907,30.544-20.907c8.345,0,15.905,2.293,21.418,6.006
					c-5.603-4.47-13.907-7.305-23.186-7.305c-16.869,0-30.544,9.36-30.544,20.907c0,5.835,3.495,11.108,9.126,14.901
					C267.917,161.632,265.142,156.883,265.142,151.687z"/>
			</g>
			<g>
				<path fill="#42BBE5" d="M293.918,162.273c-6.56,0-11.896-5.337-11.896-11.896s5.337-11.896,11.896-11.896
					s11.896,5.337,11.896,11.896S300.478,162.273,293.918,162.273z"/>
				<g>
					<path d="M293.918,139.98c5.742,0,10.396,4.654,10.396,10.396s-4.654,10.396-10.396,10.396s-10.396-4.654-10.396-10.396
						S288.176,139.98,293.918,139.98 M293.918,136.98c-7.387,0-13.396,6.01-13.396,13.396s6.01,13.396,13.396,13.396
						s13.396-6.01,13.396-13.396S301.305,136.98,293.918,136.98L293.918,136.98z"/>
				</g>
			</g>
			<path fill="#7F7F7F" d="M352.941,151.687c1.972,7.061,3.686,15.604,4.16,24.904c11.991,7.982,20.501,18.19,23.894,29.594
				c1.073-3.608,1.642-7.333,1.642-11.146C382.637,177.823,371.169,162.354,352.941,151.687z"/>
			<g>
				<path fill="#C19125" d="M362.319,147.337c0,0,10.42,19.144,8.46,34.144c4.04-2.5,6.04-17.25,4.54-24.75"/>
				<path d="M362.319,147.337c0.858,1.227,1.642,2.507,2.382,3.81c0.722,1.311,1.44,2.632,2.07,3.994
					c0.329,0.675,0.638,1.36,0.938,2.049c0.31,0.686,0.612,1.375,0.872,2.082c0.561,1.397,1.06,2.822,1.542,4.255
					c0.225,0.722,0.419,1.454,0.63,2.182c0.22,0.725,0.391,1.465,0.562,2.207c0.159,0.744,0.382,1.473,0.477,2.233l0.36,2.264
					c0.095,0.76,0.151,1.528,0.229,2.292c0.091,0.762,0.109,1.536,0.107,2.311c-0.015,0.775,0.043,1.545-0.057,2.324l-0.208,2.33
					l-2.211-1.427c0.499-0.296,1.061-1.076,1.521-1.9c0.466-0.842,0.848-1.791,1.183-2.761c0.648-1.953,1.182-4.002,1.562-6.084
					c0.186-1.042,0.389-2.087,0.528-3.143c0.144-1.055,0.261-2.115,0.368-3.179c0.187-2.13,0.29-4.273,0.146-6.445
					c0.674,2.075,0.989,4.272,1.132,6.459c0.081,1.096,0.101,2.195,0.085,3.295c-0.018,1.1-0.051,2.203-0.159,3.301
					c-0.213,2.196-0.511,4.402-1.141,6.579c-0.312,1.09-0.674,2.179-1.194,3.261c-0.269,0.541-0.554,1.083-0.954,1.607
					c-0.399,0.521-0.864,1.049-1.542,1.486l-2.418,1.559l0.207-2.986l0.147-2.112c0.081-0.7,0.01-1.419,0.012-2.128
					c-0.007-0.711,0.009-1.422-0.071-2.138c-0.06-0.715-0.098-1.43-0.173-2.145l-0.303-2.143c-0.086-0.716-0.245-1.426-0.361-2.142
					c-0.123-0.715-0.248-1.431-0.421-2.139c-0.165-0.709-0.313-1.423-0.49-2.131c-0.355-1.417-0.7-2.841-1.126-4.247
					c-0.418-1.406-0.815-2.828-1.287-4.225c-0.463-1.4-0.909-2.814-1.421-4.205C363.358,150.134,362.851,148.735,362.319,147.337z"
					/>
			</g>
			<path fill="#7F7F7F" d="M339.149,167.352c4.039,1.58,7.878,3.354,11.47,5.316c-1.29-9.267-3.269-18.277-4.865-24.77
				c-4.057-1.923-8.37-3.629-12.902-5.092C335.428,149.964,337.525,158.841,339.149,167.352z"/>
			<g>
				<path fill="#EAB634" d="M322.394,130.905c0,0,21.345,16.634,21.345,32.863c2.562-6.396,4.581-20.788-8.533-34.288"/>
				<path d="M322.394,130.905c1.422,0.912,2.785,1.916,4.115,2.963c1.322,1.055,2.616,2.152,3.866,3.299
					c1.241,1.156,2.458,2.346,3.627,3.585c1.16,1.249,2.269,2.549,3.338,3.89c0.541,0.666,1.043,1.362,1.541,2.063
					c0.484,0.711,0.98,1.416,1.43,2.155c0.47,0.726,0.894,1.483,1.326,2.236c0.408,0.769,0.813,1.541,1.156,2.347
					c0.372,0.792,0.676,1.619,0.985,2.443c0.287,0.835,0.556,1.678,0.767,2.545c0.125,0.426,0.2,0.869,0.288,1.307
					c0.092,0.438,0.176,0.877,0.212,1.328c0.125,0.891,0.146,1.797,0.17,2.701l-2.848-0.549c1.088-2.695,1.651-5.66,1.865-8.619
					c0.091-1.485,0.07-2.98-0.062-4.467c-0.115-1.489-0.337-2.975-0.672-4.44c-0.341-1.463-0.771-2.912-1.295-4.334
					c-0.273-0.706-0.551-1.415-0.872-2.104c-0.306-0.698-0.657-1.375-0.999-2.06c-0.352-0.68-0.726-1.35-1.125-2.007
					c-0.398-0.657-0.811-1.309-1.238-1.953c-0.429-0.644-0.878-1.275-1.343-1.897c-0.443-0.642-0.947-1.235-1.422-1.858
					c0.574,0.527,1.181,1.029,1.733,1.585c0.57,0.541,1.104,1.116,1.636,1.699c0.531,0.582,1.042,1.186,1.525,1.811
					c0.489,0.622,0.957,1.262,1.404,1.918c0.445,0.658,0.884,1.325,1.267,2.023c0.404,0.688,0.766,1.401,1.124,2.118
					c0.345,0.723,0.675,1.455,0.97,2.203c0.283,0.752,0.551,1.512,0.78,2.285c0.465,1.543,0.819,3.126,1.048,4.731
					c0.21,1.607,0.3,3.233,0.268,4.859c-0.041,1.625-0.186,3.255-0.5,4.859c-0.313,1.605-0.747,3.19-1.351,4.744
					c-0.295,0.758-1.148,1.134-1.906,0.839c-0.56-0.218-0.91-0.739-0.938-1.302l-0.004-0.086c-0.037-0.774-0.062-1.548-0.185-2.321
					c-0.097-0.772-0.238-1.547-0.419-2.314c-0.174-0.77-0.405-1.529-0.651-2.287c-0.271-0.751-0.532-1.507-0.865-2.241
					c-0.304-0.744-0.675-1.464-1.011-2.2c-0.373-0.721-0.736-1.447-1.148-2.152c-0.799-1.422-1.694-2.796-2.619-4.159
					c-0.927-1.361-1.901-2.697-2.936-3.993c-1.02-1.307-2.071-2.596-3.169-3.851c-1.088-1.263-2.204-2.509-3.354-3.727
					C324.76,133.301,323.599,132.086,322.394,130.905z"/>
			</g>
			<path fill="#E5E5E5" d="M223.602,180.699c-1.258-7.098-2.032-14.033-2.503-20.201c-10.943,9.666-17.414,21.611-17.414,34.541
				c0,3.813,0.568,7.537,1.642,11.146C208.161,196.654,214.576,187.96,223.602,180.699z"/>
			<path fill="#E5E5E5" d="M229.503,176.4c2.607-1.72,5.378-3.333,8.296-4.833c-1.071-5.569-2.022-12.36-2.697-20.862
				c-3.138,1.744-6.086,3.627-8.826,5.635C226.945,162.218,227.968,169.239,229.503,176.4z"/>
			<g>
				<path fill="#EAB634" d="M245.692,136.77c0,0-6.15,11.75,4.042,25.281c-12.125-0.527-16.343-9.697-16.519-22.07"/>
				<path d="M245.692,136.77c-0.355,1.071-0.56,2.17-0.747,3.257c-0.052,0.554-0.154,1.092-0.186,1.642
					c-0.036,0.549-0.098,1.09-0.083,1.638c0.005,0.547-0.028,1.087,0.017,1.63c0.041,0.542,0.023,1.081,0.116,1.617
					c0.075,0.535,0.13,1.069,0.218,1.598l0.312,1.577c0.104,0.524,0.289,1.032,0.427,1.546l0.222,0.767l0.29,0.748l0.56,1.495
					l0.694,1.442l0.345,0.72l0.413,0.688c0.28,0.455,0.539,0.921,0.805,1.383c0.259,0.466,0.604,0.884,0.9,1.329l0.921,1.316
					l0.062,0.088c0.459,0.657,0.3,1.562-0.357,2.021c-0.288,0.202-0.625,0.284-0.951,0.258l-2.064-0.169
					c-0.688-0.076-1.371-0.261-2.054-0.39c-0.684-0.137-1.348-0.412-2.02-0.616c-0.669-0.221-1.299-0.577-1.946-0.864
					c-0.631-0.329-1.219-0.748-1.814-1.136c-0.542-0.465-1.104-0.911-1.607-1.41c-0.462-0.538-0.991-1.023-1.383-1.607
					c-0.399-0.577-0.843-1.13-1.137-1.762c-0.33-0.613-0.661-1.221-0.896-1.866l-0.387-0.951c-0.116-0.32-0.205-0.648-0.308-0.971
					l-0.282-0.975l-0.206-0.987c-0.144-0.656-0.264-1.312-0.335-1.973c-0.092-0.659-0.16-1.318-0.182-1.979
					c-0.026-0.66-0.091-1.315-0.063-1.974c0.02-0.658,0.01-1.312,0.056-1.965l0.172-1.953l0.311,1.928
					c0.088,0.641,0.231,1.274,0.344,1.907c0.103,0.635,0.261,1.258,0.398,1.881c0.123,0.627,0.314,1.236,0.482,1.846
					c0.15,0.615,0.347,1.214,0.563,1.802l0.311,0.884l0.373,0.854c0.122,0.284,0.229,0.574,0.362,0.851l0.428,0.812
					c0.262,0.554,0.606,1.052,0.94,1.552c0.309,0.519,0.723,0.949,1.079,1.421c0.354,0.477,0.824,0.839,1.223,1.266
					c0.438,0.384,0.92,0.715,1.375,1.072c0.516,0.274,0.992,0.604,1.51,0.866c0.542,0.218,1.05,0.507,1.614,0.677
					c0.571,0.154,1.113,0.38,1.702,0.482c0.59,0.098,1.167,0.236,1.764,0.308l1.803,0.184l-1.245,2.367l-0.979-1.453
					c-0.315-0.492-0.674-0.954-0.952-1.471c-0.281-0.514-0.569-1.026-0.835-1.547l-0.405-0.779l-0.336-0.815l-0.667-1.629
					c-0.187-0.557-0.349-1.123-0.523-1.683l-0.244-0.845l-0.166-0.867c-0.099-0.579-0.241-1.148-0.301-1.731l-0.173-1.746
					c-0.033-0.583-0.007-1.17-0.012-1.751c-0.019-0.582,0.074-1.163,0.108-1.74c0.029-0.579,0.141-1.151,0.242-1.719
					c0.084-0.571,0.244-1.129,0.378-1.687c0.124-0.56,0.335-1.101,0.51-1.643c0.217-0.532,0.406-1.069,0.666-1.579
					C245.106,137.742,245.39,137.243,245.692,136.77z"/>
			</g>
		</g>
		<path fill="#E5E5E5" d="M263.275,373.715c1.155-4.58,1.366-10.043,1.365-13.439h-1.365V373.715z"/>
		<g>
			<g>
				<g>
					<path fill="#E0E0E0" d="M134.688,218.383c-4.333-7.911-6.821-16.963-6.825-24.836c-0.004-8.084,2.587-14.142,7.109-16.619
						c1.593-0.873,3.435-1.316,5.472-1.316c9.734,0,22.19,9.838,29.617,23.393l46.977,85.756l-35.371,19.377L134.688,218.383z"/>
					<path d="M140.445,177.112c8.686,0,20.856,9.024,28.301,22.614c8.941,16.325,46.256,84.44,46.256,84.44l-16.369,8.969
						l-16.371,8.967c0,0-37.314-68.116-46.258-84.439c-8.943-16.326-8.661-34.845-0.311-39.419
						C137.092,177.477,138.697,177.112,140.445,177.112 M140.445,174.112c-2.292,0-4.376,0.505-6.193,1.5
						c-5.018,2.748-7.893,9.285-7.889,17.935c0.004,8.236,2.494,17.313,7.01,25.557c8.943,16.323,46.258,84.439,46.258,84.439
						l1.441,2.631l2.631-1.441l16.371-8.967l16.369-8.969l2.631-1.441l-1.441-2.631c0,0-37.314-68.115-46.255-84.44
						C163.703,184.278,150.694,174.112,140.445,174.112L140.445,174.112z"/>
				</g>
				<path fill="#FFFFFF" d="M136.004,217.662c8.943,16.323,46.258,84.439,46.258,84.439l16.371-8.967l-62.939-114.892
					C127.343,182.817,127.061,201.336,136.004,217.662z"/>
			</g>
			<g>
				<g>
					<path fill="#E59330" d="M228.89,358.916c-0.498,0-0.982-0.248-1.267-0.695l-31.654-49.816c-0.222-0.351-0.29-0.776-0.187-1.179
						c0.103-0.401,0.368-0.742,0.732-0.941l14.508-7.947c0.223-0.122,0.471-0.185,0.721-0.185c0.157,0,0.315,0.024,0.467,0.074
						c0.394,0.13,0.717,0.416,0.892,0.792l24.94,53.496c0.334,0.717,0.055,1.569-0.639,1.949l-7.794,4.268
						C229.381,358.856,229.134,358.916,228.89,358.916z"/>
					<g>
						<path d="M211.742,299.652l24.94,53.496l-7.794,4.268L197.234,307.6L211.742,299.652 M211.742,296.652
							c-0.499,0-0.995,0.124-1.441,0.369l-14.508,7.947c-0.728,0.398-1.257,1.08-1.464,1.884c-0.207,0.803-0.072,1.656,0.373,2.356
							l31.654,49.816c0.569,0.895,1.539,1.391,2.535,1.391c0.488,0,0.982-0.119,1.438-0.368l7.794-4.269
							c1.387-0.759,1.946-2.465,1.278-3.898l-24.94-53.496c-0.351-0.752-0.997-1.325-1.785-1.583
							C212.372,296.702,212.057,296.652,211.742,296.652L211.742,296.652z"/>
					</g>
				</g>
				<polygon fill="#B26C20" points="234.531,354.326 236.683,353.148 214.455,305.664 210.326,308.748 				"/>
				<g>
					<path fill="#E59330" d="M232.792,362.267c-2.556,0-4.905-1.391-6.132-3.63c-0.896-1.636-1.102-3.523-0.578-5.314
						s1.712-3.271,3.349-4.167c1.028-0.563,2.187-0.86,3.352-0.86c2.554,0,4.903,1.392,6.131,3.631
						c1.849,3.379,0.605,7.632-2.771,9.481C235.115,361.97,233.957,362.267,232.792,362.267z"/>
					<g>
						<path d="M232.782,349.795c1.938,0,3.817,1.03,4.815,2.852c1.453,2.656,0.48,5.99-2.176,7.445
							c-0.836,0.458-1.739,0.675-2.63,0.675c-1.94,0-3.819-1.03-4.816-2.851c-1.455-2.656-0.48-5.99,2.176-7.445
							C230.988,350.013,231.892,349.795,232.782,349.795 M232.782,346.795L232.782,346.795c-1.416,0-2.824,0.361-4.072,1.045
							c-1.988,1.089-3.433,2.886-4.068,5.062s-0.386,4.469,0.703,6.456c1.49,2.72,4.343,4.409,7.447,4.409
							c1.416,0,2.824-0.36,4.071-1.044c4.102-2.246,5.612-7.412,3.367-11.516C238.738,348.484,235.884,346.795,232.782,346.795
							L232.782,346.795z"/>
					</g>
				</g>
				<g>
					<path fill="#B26C20" d="M232.561,349.805c0.404,0.385,0.76,0.836,1.041,1.35c1.456,2.658,0.482,5.99-2.176,7.445
						c-0.766,0.42-1.589,0.633-2.407,0.664c1.685,1.594,4.263,2,6.403,0.828c2.656-1.455,3.629-4.789,2.176-7.445
						C236.562,350.756,234.575,349.725,232.561,349.805z"/>
				</g>
			</g>
			<path fill="#66420E" d="M221.953,281.613l-11.774,6.441c4.147-0.156,8.392,8.256,8.155,12.906l10.939-5.986
				c3.689-2.023,5.041-6.65,3.021-10.344C230.272,280.941,225.644,279.588,221.953,281.613z"/>
			<g>
				<path fill="#E59330" d="M181.281,321.717c-4.199-0.001-8.063-2.284-10.084-5.961l-3.06-5.563
					c-0.191-0.349-0.237-0.759-0.126-1.141c0.111-0.383,0.369-0.705,0.718-0.896l59.495-32.715c0.223-0.123,0.472-0.186,0.723-0.186
					c0.14,0,0.281,0.02,0.418,0.06c0.382,0.111,0.704,0.369,0.896,0.718l3.059,5.563c3.055,5.558,1.019,12.563-4.537,15.617
					l-41.969,23.078C185.119,321.224,183.206,321.717,181.281,321.717L181.281,321.717z"/>
				<g>
					<path d="M228.947,276.756l3.059,5.563c2.66,4.84,0.895,10.92-3.945,13.58l-41.969,23.078c-1.529,0.841-3.181,1.24-4.811,1.24
						c-3.529,0-6.95-1.873-8.77-5.184l-3.06-5.563L228.947,276.756 M228.947,273.756c-0.501,0-0.999,0.125-1.445,0.371
						l-59.495,32.715c-0.697,0.384-1.214,1.028-1.436,1.792c-0.222,0.765-0.131,1.586,0.252,2.283l3.06,5.563
						c2.284,4.155,6.651,6.737,11.398,6.737c2.176,0,4.34-0.558,6.256-1.611l41.968-23.078c3.043-1.673,5.252-4.43,6.221-7.765
						c0.969-3.334,0.581-6.847-1.092-9.89l-3.059-5.563c-0.383-0.697-1.028-1.214-1.792-1.436
						C229.51,273.795,229.228,273.756,228.947,273.756L228.947,273.756z"/>
				</g>
			</g>
			<g>
				<path fill="#B26C20" d="M179.383,311.254l-3.06-5.561l-6.871,3.777l3.06,5.563c2.66,4.84,8.74,6.605,13.58,3.943l6.871-3.777
					C188.123,317.861,182.042,316.094,179.383,311.254z"/>
			</g>
		</g>
		<g>
			<path fill="#AAAAAA" d="M219.768,349.307c-10.891,0-19.752-8.86-19.752-19.752s8.861-19.752,19.752-19.752
				s19.752,8.86,19.752,19.752S230.659,349.307,219.768,349.307z"/>
			<g>
				<path d="M219.768,311.303c10.08,0,18.252,8.172,18.252,18.252s-8.172,18.252-18.252,18.252s-18.252-8.172-18.252-18.252
					S209.688,311.303,219.768,311.303 M219.768,308.303c-11.718,0-21.252,9.533-21.252,21.252s9.534,21.252,21.252,21.252
					s21.252-9.533,21.252-21.252S231.486,308.303,219.768,308.303L219.768,308.303z"/>
			</g>
		</g>
		<path fill="#7F7F7F" d="M238.02,329.555c0-0.033-0.004-0.068-0.004-0.102c-5.883,8.953-16.234,9.57-22.869,5.59
			c-7.067-4.238-8.847-12.209-7.813-18.822c-3.572,3.332-5.818,8.064-5.818,13.334c0,10.08,8.172,18.252,18.252,18.252
			S238.02,339.635,238.02,329.555z"/>
	</g>
</g>
</svg>
