<?xml version="1.0" encoding="utf-8"?>
<!-- Generator: Adobe Illustrator 16.0.0, SVG Export Plug-In . SVG Version: 6.00 Build 0)  -->
<!DOCTYPE svg PUBLIC "-//W3C//DTD SVG 1.1//EN" "http://www.w3.org/Graphics/SVG/1.1/DTD/svg11.dtd">
<svg version="1.1" id="Layer_1" xmlns="http://www.w3.org/2000/svg" xmlns:xlink="http://www.w3.org/1999/xlink" x="0px" y="0px"
	 width="512px" height="512px" viewBox="0 0 512 512" enable-background="new 0 0 512 512" xml:space="preserve">
<g>
	<ellipse fill="#D3D3D3" cx="253.918" cy="468.467" rx="83.453" ry="13.358"/>
	<g>
		<path fill="#594C0D" d="M261.479,301.846c-14.575-0.001-27.252-1.878-36.662-5.428c-13.392-5.054-41.259-10.086-65.845-14.525
			c-13.979-2.524-27.184-4.909-37.184-7.159c-28.663-6.45-34.691-30.448-34.749-30.689c-0.153-0.643,0.132-1.31,0.702-1.643
			l43.184-25.245c0.194-0.114,0.412-0.182,0.637-0.2l75.942-6.1c0.04-0.003,0.164-0.004,0.186-0.003
			c0.819,0.036,83.483,3.957,216.179,37.75c0.417,0.106,0.768,0.386,0.964,0.768c0.196,0.382,0.22,0.83,0.063,1.23
			c-10.607,27.208-49.684,32.948-81.081,37.562c-11.774,1.729-22.896,3.363-30.788,5.906c-15.566,5.015-33.873,7.776-51.544,7.776
			C261.481,301.846,261.481,301.846,261.479,301.846z"/>
		<g>
			<path d="M207.626,212.352c0,0,81.794,3.56,215.874,37.705c-14.238,36.52-82.037,33.275-110.932,42.585
				c-15.852,5.106-34.247,7.704-51.089,7.704c-13.86,0-26.669-1.761-36.132-5.331c-20.962-7.91-75.147-15.425-103.229-21.745
				C94.037,266.95,88.5,243.696,88.5,243.696l43.184-25.245L207.626,212.352 M207.626,209.352c-0.08,0-0.16,0.003-0.24,0.01
				l-75.942,6.1c-0.449,0.036-0.885,0.173-1.274,0.4l-43.184,25.245c-1.14,0.667-1.71,2-1.404,3.285
				c0.244,1.024,6.311,25.152,35.879,31.805c10.031,2.258,23.25,4.645,37.246,7.172c24.523,4.429,52.318,9.448,65.582,14.453
				c9.578,3.614,22.438,5.524,37.191,5.524c17.827,0,36.297-2.787,52.009-7.849c7.772-2.504,18.835-4.13,30.546-5.85
				c31.782-4.67,71.336-10.48,82.261-38.501c0.313-0.801,0.266-1.697-0.127-2.461s-1.095-1.324-1.928-1.536
				c-132.844-33.831-215.663-37.759-216.484-37.795C207.713,209.353,207.669,209.352,207.626,209.352L207.626,209.352z"/>
		</g>
	</g>
	<path fill="#382F07" d="M423.5,250.057c-13.234-3.321-31.656-7.785-43.811-10.531c-106.777-22.545-201.995-19.347-201.995-19.347
		l-58.479,5.562L88.5,243.696c1.684,3.757,17.666,19.379,43.184,20.51c28.29,1.254,64.634-3.774,90.253,5.208
		s74.739,6.436,97.3-2.297c22.559-8.732,36.766,1.276,49.121,2.297C386.348,270.896,409.254,265.754,423.5,250.057z"/>
	<g>
		<path fill="#6D5E16" d="M271.65,465.954c-0.828,0-1.5-0.672-1.5-1.5V348.938c0-0.828,0.672-1.5,1.5-1.5h21.768
			c0.828,0,1.5,0.672,1.5,1.5v115.517c0,0.828-0.672,1.5-1.5,1.5H271.65z"/>
		<path d="M293.418,348.938v115.517H271.65V348.938H293.418 M293.418,345.938H271.65c-1.657,0-3,1.343-3,3v115.517
			c0,1.657,1.343,3,3,3h21.768c1.657,0,3-1.343,3-3V348.938C296.418,347.28,295.075,345.938,293.418,345.938L293.418,345.938z"/>
	</g>
	<polygon fill="#493E0D" points="276.057,402.237 271.65,449.212 271.65,464.454 287.48,464.454 287.48,370.592 277.463,375.236 	
		"/>
	<g>
		<path fill="#769B10" d="M262.623,430.833c-0.416,0-0.817-0.173-1.104-0.483c-0.329-0.357-0.465-0.854-0.363-1.329l14.498-68.155
			c0.116-0.55,0.532-0.988,1.075-1.136c0.13-0.035,0.261-0.052,0.392-0.052c0.417,0,0.821,0.174,1.109,0.491
			c0.682,0.749,16.688,18.617,16.688,42.068c0,24.18-31.783,28.542-32.104,28.583C262.75,430.829,262.687,430.833,262.623,430.833z"
			/>
		<path d="M277.121,361.178c0,0,16.297,17.919,16.297,41.06c0,23.14-30.795,27.096-30.795,27.096L277.121,361.178 M277.121,358.178
			c-0.261,0-0.524,0.034-0.783,0.104c-1.087,0.294-1.917,1.171-2.151,2.271l-14.498,68.155c-0.202,0.951,0.069,1.941,0.729,2.657
			c0.571,0.62,1.374,0.967,2.206,0.967c0.127,0,0.255-0.008,0.382-0.024c0.336-0.043,8.302-1.102,16.366-5.167
			c11.152-5.623,17.047-14.234,17.047-24.904c0-24.024-16.38-42.312-17.077-43.078C278.764,358.525,277.954,358.178,277.121,358.178
			L277.121,358.178z"/>
	</g>
	<g>
		<path fill="#769B10" d="M221.166,472.271c-0.829,0-1.5-0.672-1.5-1.5v-73.59c-14.49,21.626-32.226,26.434-33.021,26.64
			c-0.124,0.032-0.25,0.048-0.376,0.048c-0.336,0-0.667-0.113-0.936-0.328c-0.369-0.294-0.577-0.745-0.563-1.217
			c0.009-0.286,0.844-28.873,0-52.325c-0.016-0.436,0.159-0.856,0.479-1.153c0.279-0.259,0.644-0.4,1.021-0.4
			c0.055,0,0.11,0.003,0.166,0.009c2.61,0.29,5.249,0.438,7.843,0.438c12.926,0,22.904-3.646,25.731-7.075
			c0.295-0.357,0.724-0.546,1.159-0.546c0.284,0,0.571,0.081,0.824,0.247c0.021,0.015,0.095,0.063,0.211,0.147
			c2.923-4.589,7.925-7.37,13.455-7.37h30.192c8.818,0,15.992,7.174,15.992,15.991v100.485c0,0.828-0.672,1.5-1.5,1.5H221.166z"/>
		<g>
			<path d="M265.85,355.795c8.004,0,14.492,6.488,14.492,14.491v100.485h-59.176v-78.808c-14.749,25.19-34.897,30.405-34.897,30.405
				s0.855-28.648,0-52.424c2.754,0.306,5.434,0.446,8.009,0.446c13.221,0,23.653-3.696,26.889-7.621c0,0,0.612,0.403,1.464,1.2
				c2.349-4.834,7.291-8.176,13.027-8.176H265.85 M265.85,352.795h-30.192c-5.618,0-10.737,2.623-13.999,7.016
				c-0.163-0.026-0.327-0.04-0.491-0.04c-0.87,0-1.728,0.377-2.317,1.092c-2.234,2.711-11.336,6.529-24.574,6.529
				c-2.54,0-5.123-0.145-7.678-0.428c-0.11-0.013-0.221-0.019-0.331-0.019c-0.753,0-1.483,0.283-2.041,0.801
				c-0.64,0.594-0.989,1.436-0.958,2.307c0.842,23.4,0.008,51.941,0,52.227c-0.028,0.943,0.389,1.846,1.127,2.435
				c0.537,0.429,1.199,0.655,1.872,0.655c0.251,0,0.503-0.031,0.751-0.096c0.769-0.199,16.916-4.574,31.146-23.4v68.898
				c0,1.657,1.343,3,3,3h59.176c1.657,0,3-1.343,3-3V370.286C283.342,360.642,275.495,352.795,265.85,352.795L265.85,352.795z"/>
		</g>
	</g>
	<path fill="#546809" d="M221.166,402.052c6.328-16.959,9.469-37.372-0.868-20.496c-10.788,17.61-26.937,25.673-33.771,28.445
		c-0.111,7.445-0.258,12.368-0.258,12.368s20.148-5.215,34.897-30.405V402.052z"/>
	<path fill="#546809" d="M280.342,377.528l-20.117-16.017l-36.552,0.658c-0.389,0.573-0.738,1.173-1.043,1.801
		c-0.852-0.797-1.464-1.2-1.464-1.2c-2.614,3.173-9.938,6.188-19.628,7.23l0.916,3.998l12.253,15.367l32.876,9.437l32.759-7.764
		V377.528z"/>
	<g>
		<path fill="#546809" d="M186.838,423.869c-6.913,0-10.644-13.233-10.644-25.686c0-12.451,3.73-25.685,10.644-25.685
			s10.644,13.233,10.644,25.685C197.481,410.636,193.751,423.869,186.838,423.869z"/>
		<g>
			<path d="M186.838,373.999c5.05,0,9.144,10.829,9.144,24.185c0,13.358-4.094,24.186-9.144,24.186s-9.144-10.827-9.144-24.186
				C177.694,384.828,181.788,373.999,186.838,373.999 M186.838,370.999c-7.972,0-12.144,13.676-12.144,27.185
				c0,13.51,4.171,27.186,12.144,27.186s12.144-13.676,12.144-27.186C198.981,384.675,194.81,370.999,186.838,370.999
				L186.838,370.999z"/>
		</g>
	</g>
	<path fill="#384406" d="M184.973,421.863c0.603,0.329,1.226,0.506,1.865,0.506c5.05,0,9.144-10.827,9.144-24.186
		c0-7.761-1.388-14.65-3.537-19.075l-5.428,0.941C187.017,380.05,195.218,403.106,184.973,421.863z"/>
	<g>
		<g>
			<path fill="#B59A57" d="M200.788,441.73c-3.426-0.001-3.81-3.654-4.118-6.591c-0.178-1.698-0.362-3.455-0.975-4.514l-0.585-1.006
				c-2.36-4.05-5.298-9.089-5.539-13.142c-0.223-3.789-1.143-6.152-3.788-9.728c-0.875-1.184-1.993-2.432-3.073-3.639
				c-2.462-2.749-5.007-5.592-5.594-8.569c-0.733-3.723-2.54-9.697-4.772-14.019c-0.661-1.278-1.393-2.303-2.1-3.293
				c-1.667-2.334-3.392-4.747-3.832-9.984c-0.379-4.514-1.798-8.108-3.17-11.584c-0.678-1.718-1.318-3.341-1.822-5.032
				c-1.572-5.277-1.323-13.784,1.355-16.843c1.447-1.653,0.382-10.642-2.064-13.443c-2.277-2.608-9.75-4.788-13.894-5.144
				c-0.063-0.005-0.128-0.008-0.193-0.008c-3.422,0-9.689,5.885-11.247,9.173c-0.412,0.869-0.179,3.023,1.27,5.879
				c1.808,3.563,4.627,6.439,6.705,6.837c0.597,0.114,1.149,0.173,1.642,0.173c1.77,0,2.665-0.724,3.903-1.725
				c0.651-0.526,1.389-1.122,2.304-1.619c0.738-0.4,1.25-1.692,1.274-3.215c0.03-1.876-0.651-3.547-1.695-4.157
				c-0.342-0.2-0.663-0.311-0.903-0.311c-0.103,0-0.316,0-0.496,0.326c-0.249,0.451-0.287,1.298,0.216,2.093
				c1.098,1.736,1.338,3.193,0.712,4.33c-0.372,0.676-1.196,1.48-3.014,1.48c-0.617,0-1.332-0.095-2.126-0.279
				c-5.037-1.175-5.585-4.473-5.73-8.039c-0.072-1.74,0.586-3.386,1.904-4.759c1.896-1.976,4.96-3.156,8.194-3.156
				c0.327,0,0.657,0.013,0.987,0.037c5.96,0.447,7.568,4.177,9.794,9.339c2.464,5.711-1.863,10.72-5.024,14.376
				c-0.314,0.364-0.623,0.721-0.917,1.068c-1.717,2.032-4.115,3.063-7.127,3.063c-2.836,0-6.292-0.941-10.271-2.798
				c-6.183-2.886-8.967-11.213-10.463-15.687c-0.251-0.752-0.46-1.38-0.639-1.827c-1.875-4.684,9.224-13.686,9.337-13.773
				c3.37-2.625,8.222-5.755,12.19-5.755c0.118,0,0.236,0.003,0.352,0.009c4.269,0.206,12.701,1.758,17.158,5.041
				c4.407,3.246,8.122,11.57,6.627,18.789c-0.454,2.193-1.074,4.353-1.674,6.44c-1.081,3.762-2.103,7.314-1.493,9.083
				c0.187,0.543,0.467,1.316,0.802,2.246c2.41,6.679,4.972,14.045,4.863,16.918c-0.09,2.365,3.71,9.945,5.536,13.588
				c0.498,0.993,0.915,1.825,1.187,2.404c0.466,0.989,0.943,2.431,1.547,4.256c1.321,3.987,3.13,9.447,5.827,12.85
				c4.07,5.133,9.258,15.039,10.091,19.271c0.724,3.673,2.121,7.477,4.271,11.631c1.765,3.408,3.347,7.946,2.495,10.46
				c-0.353,1.039-1.018,1.534-1.514,1.768C202.465,441.498,201.584,441.73,200.788,441.73
				C200.788,441.73,200.788,441.73,200.788,441.73z"/>
			<path d="M147.403,307.768c0.094,0,0.188,0.002,0.28,0.007c4.033,0.195,12.215,1.712,16.34,4.751
				c4.125,3.038,7.38,10.844,6.048,17.277c-1.331,6.436-4.261,12.998-3.116,16.316c1.146,3.32,5.712,15.239,5.584,18.618
				c-0.128,3.38,5.427,13.628,6.864,16.687c1.438,3.057,3.482,12.262,7.557,17.399s9.047,14.832,9.795,18.63
				c0.748,3.797,2.165,7.692,4.411,12.03c2.246,4.339,3.543,9.303,1.675,10.181c-0.833,0.392-1.506,0.566-2.053,0.566
				c-3.472,0-1.875-7.036-3.794-10.355c-2.222-3.842-5.686-9.448-5.925-13.485c-0.237-4.037-1.231-6.681-4.079-10.53
				c-2.845-3.848-7.653-7.808-8.401-11.606c-0.748-3.798-2.614-9.972-4.911-14.417c-2.298-4.447-5.183-5.73-5.77-12.715
				s-3.544-11.862-5.049-16.918c-1.506-5.055-1.114-12.96,1.046-15.427c2.158-2.467,0.634-12.33-2.063-15.418
				c-2.696-3.089-10.79-5.3-14.896-5.651c-0.105-0.009-0.212-0.014-0.321-0.014c-4.143,0.001-10.877,6.39-12.603,10.03
				c-1.77,3.735,4.031,13.87,9.047,14.832c0.718,0.138,1.354,0.199,1.924,0.199c3.412,0,4.487-2.202,6.922-3.525
				c2.842-1.543,2.767-8.146-0.38-9.985c-0.614-0.359-1.172-0.516-1.661-0.516c-2.016,0-2.85,2.661-1.548,4.721
				c1.313,2.076,1.092,3.509-1.034,3.509c-0.492,0-1.086-0.077-1.786-0.24c-3.728-0.869-4.414-2.771-4.572-6.64
				c-0.15-3.637,3.99-6.354,8.6-6.354c0.29,0,0.582,0.012,0.875,0.033c4.945,0.371,6.224,3.09,8.529,8.437
				c2.307,5.346-2.51,10.097-5.709,13.883c-1.491,1.765-3.542,2.53-5.982,2.53c-2.792,0-6.091-1.003-9.636-2.657
				c-6.643-3.101-9.156-13.742-10.344-16.711c-1.188-2.969,6.889-10.498,8.864-12.032
				C138.061,311.705,143.399,307.768,147.403,307.768 M147.403,304.768L147.403,304.768c-4.394,0-9.557,3.302-13.114,6.072
				c-1.12,0.869-3.754,3.238-6.043,5.881c-3.604,4.161-4.764,7.133-3.763,9.634c0.154,0.385,0.365,1.015,0.609,1.744
				c1.567,4.688,4.484,13.411,11.251,16.57c4.239,1.978,7.806,2.938,10.905,2.938c3.426,0,6.287-1.243,8.273-3.594
				c0.291-0.344,0.595-0.696,0.906-1.057c0.859-0.994,1.835-2.123,2.751-3.369c-0.494,3.96-0.091,8.466,0.805,11.472
				c0.521,1.753,1.204,3.481,1.864,5.153c1.332,3.375,2.71,6.865,3.071,11.159c0.475,5.649,2.32,8.232,4.105,10.731
				c0.708,0.991,1.377,1.928,1.988,3.109c2.069,4.005,3.896,9.883,4.633,13.62c0.666,3.382,3.351,6.381,5.948,9.28
				c1.106,1.235,2.151,2.402,2.985,3.529c2.474,3.346,3.291,5.43,3.497,8.923c0.261,4.412,3.299,9.623,5.74,13.81l0.582,1.002
				c0.452,0.781,0.635,2.521,0.781,3.92c0.291,2.772,0.833,7.934,5.61,7.934c1.022,0,2.111-0.278,3.329-0.852
				c1.073-0.504,1.889-1.443,2.296-2.644c1.228-3.622-1.397-9.341-2.583-11.631c-2.084-4.026-3.436-7.7-4.132-11.231
				c-0.885-4.491-6.127-14.541-10.388-19.914c-2.532-3.193-4.293-8.508-5.578-12.389c-0.621-1.873-1.11-3.352-1.614-4.423
				c-0.284-0.604-0.71-1.454-1.203-2.438c-1.345-2.682-5.436-10.843-5.378-12.859c0.107-2.848-1.734-8.566-4.951-17.483
				c-0.333-0.921-0.609-1.688-0.795-2.227c-0.455-1.32,0.638-5.123,1.516-8.179c0.608-2.115,1.237-4.303,1.702-6.552
				c1.664-8.035-2.446-16.794-7.207-20.301c-4.722-3.479-13.531-5.116-17.974-5.331
				C147.688,304.771,147.545,304.768,147.403,304.768L147.403,304.768L147.403,304.768z M143.181,318.207
				c1.327-0.913,2.575-1.514,3.445-1.514c0.022,0,0.043,0.001,0.065,0.003c0.36,0.03,0.737,0.074,1.126,0.13
				C146.159,317.021,144.575,317.497,143.181,318.207L143.181,318.207z M161.538,326.645c-1.096-2.537-2.147-4.886-3.768-6.661
				c0.791,0.442,1.42,0.899,1.812,1.348C160.432,322.304,161.126,324.445,161.538,326.645L161.538,326.645z M138.738,330.906
				c-0.121-0.196-0.24-0.398-0.357-0.605c-1.538-2.715-1.827-4.797-1.64-5.308c0.464-0.978,1.375-2.176,2.484-3.354
				c-0.902,1.385-1.353,2.96-1.287,4.562C138.002,327.78,138.155,329.423,138.738,330.906L138.738,330.906z M144.995,335.755
				c-0.398,0-0.856-0.049-1.36-0.146c-0.557-0.107-1.33-0.568-2.173-1.336c0.88,0.576,1.982,1.043,3.365,1.366
				c0.165,0.038,0.326,0.073,0.484,0.104C145.21,335.751,145.105,335.755,144.995,335.755L144.995,335.755z"/>
		</g>
		<path fill="#8E743C" d="M153.23,342.077c3.199-3.786,8.016-8.537,5.709-13.883c-2.084-4.832-3.338-7.509-7.208-8.258
			c2.599,3.546,5.938,6.9,5.354,12.1c-0.236,2.091-2.469,6.285-5.888,8.723c-3.417,2.437-6.464,2.667-9.961,0.962
			c-2.264-1.102-6.221-3.55-9.553-5.724c1.485,2.516,3.41,4.777,5.929,5.953C144.256,345.05,150.032,345.862,153.23,342.077z"/>
		<path fill="#8E743C" d="M162.819,311.752c1.896,2.544,3.479,5.103,3.856,6.946c1.077,5.26,2.921,9.971,0.859,14.288
			c-2.063,4.315-4.106,9.46-2.496,14.468c1.61,5.009,5.345,9.391,4.935,13.86c-0.409,4.469,1.802,7.986,4.455,13.433
			c2.654,5.448,4.449,9.066,5.893,14.712c1.444,5.643,4.012,8.627,6.907,12.141c2.896,3.514,5.298,8.401,6.15,13.082
			c0.853,4.682,2.539,9.801,3.833,11.787c1.082,1.661,7.82,9.096,4.038,13.719c0.453-0.069,0.977-0.236,1.591-0.523
			c1.868-0.878,0.571-5.842-1.675-10.181c-2.246-4.338-3.663-8.233-4.411-12.03c-0.748-3.798-5.721-13.492-9.795-18.63
			s-6.119-14.343-7.557-17.399c-1.438-3.059-6.992-13.307-6.864-16.687c0.128-3.379-4.438-15.298-5.584-18.618
			c-1.145-3.318,1.785-9.881,3.116-16.316c1.332-6.434-1.923-14.239-6.048-17.277C163.656,312.254,163.246,311.999,162.819,311.752z
			"/>
		<path fill="#8E743C" d="M140.936,326.078c0.158,3.868,0.845,5.771,4.572,6.64c3.406,0.792,4.286-0.459,3.18-2.634
			c-2.476-0.168-5.163-1.956-5.939-3.51c-0.59-1.181-0.125-3.249,0.371-4.787C141.722,322.899,140.866,324.39,140.936,326.078z"/>
	</g>
	<g>
		<path fill="#EFB886" d="M177.694,403.737c-10.911,0-19.787-8.876-19.787-19.787c0-10.91,8.876-19.786,19.787-19.786
			s19.787,8.876,19.787,19.786C197.481,394.861,188.605,403.737,177.694,403.737z"/>
		<g>
			<path d="M177.694,365.664c10.099,0,18.287,8.187,18.287,18.286s-8.188,18.287-18.287,18.287c-10.1,0-18.287-8.188-18.287-18.287
				S167.595,365.664,177.694,365.664 M177.694,362.664c-11.738,0-21.287,9.549-21.287,21.286s9.549,21.287,21.287,21.287
				s21.287-9.55,21.287-21.287S189.432,362.664,177.694,362.664L177.694,362.664z"/>
		</g>
	</g>
	<path fill="#D69A69" d="M195.981,383.95c0-0.033-0.005-0.067-0.006-0.1c-5.894,8.968-16.265,9.587-22.912,5.599
		c-7.081-4.248-8.864-12.231-7.828-18.857c-3.578,3.337-5.828,8.079-5.828,13.358c0,10.1,8.188,18.287,18.287,18.287
		C187.793,402.237,195.981,394.05,195.981,383.95z"/>
	<g>
		<path fill="#6D5E16" d="M246.292,393.14c-0.129,0-0.259-0.017-0.385-0.05l-25.584-6.793c-0.268-0.071-0.51-0.215-0.701-0.416
			l-13.58-14.255c-0.229-0.24-0.372-0.55-0.406-0.881l-2.676-25.984c-0.042-0.404,0.083-0.809,0.345-1.12s0.64-0.502,1.046-0.53
			l44.023-2.973c0.034-0.002,0.067-0.003,0.101-0.003c0.228,0,0.453,0.052,0.658,0.152l42.237,20.616
			c0.64,0.312,0.972,1.03,0.795,1.72l-5.563,21.699c-0.144,0.56-0.596,0.987-1.162,1.1l-38.858,7.689
			C246.487,393.13,246.39,393.14,246.292,393.14z"/>
		<path d="M248.476,341.635l42.237,20.616l-5.563,21.699l-38.858,7.689l-25.584-6.793l-13.58-14.255l-2.676-25.984L248.476,341.635
			 M248.476,338.635c-0.067,0-0.135,0.002-0.202,0.007l-44.023,2.973c-0.812,0.055-1.567,0.438-2.092,1.06
			c-0.524,0.622-0.773,1.432-0.69,2.241l2.676,25.984c0.068,0.661,0.354,1.28,0.813,1.762l13.58,14.255
			c0.382,0.4,0.867,0.688,1.402,0.83l25.584,6.793c0.252,0.067,0.511,0.101,0.77,0.101c0.195,0,0.39-0.019,0.583-0.057l38.858-7.689
			c1.134-0.225,2.037-1.079,2.324-2.198l5.563-21.699c0.354-1.379-0.311-2.816-1.59-3.441l-42.238-20.616
			C249.381,338.738,248.931,338.635,248.476,338.635L248.476,338.635z"/>
	</g>
	<g>
		<path fill="#8E7E20" d="M229.737,385.874c-0.459-0.023-0.882-0.256-1.147-0.632l-22.952-32.424
			c-0.301-0.425-0.36-0.977-0.155-1.455c0.205-0.479,0.644-0.818,1.159-0.895l88.629-13.17c0.074-0.012,0.147-0.017,0.221-0.017
			c0.392,0,0.771,0.153,1.055,0.434c0.336,0.331,0.495,0.802,0.432,1.27l-4.354,31.81c-0.055,0.4-0.27,0.763-0.595,1.003
			l-21.393,15.824c-0.258,0.191-0.571,0.294-0.892,0.294C269.719,387.916,229.737,385.874,229.737,385.874z"/>
		<path d="M295.49,338.782l-4.354,31.81l-21.393,15.824l-39.931-2.04l-22.952-32.424L295.49,338.782 M295.49,335.782
			c-0.146,0-0.294,0.011-0.441,0.032l-88.628,13.17c-1.031,0.153-1.909,0.831-2.318,1.789c-0.41,0.959-0.292,2.062,0.31,2.912
			l22.952,32.424c0.531,0.75,1.377,1.216,2.295,1.263l39.931,2.04c0.052,0.003,0.103,0.004,0.153,0.004
			c0.641,0,1.267-0.205,1.784-0.588l21.393-15.824c0.65-0.481,1.078-1.204,1.188-2.005l4.354-31.81
			c0.128-0.936-0.192-1.877-0.863-2.541C297.033,336.09,296.274,335.782,295.49,335.782L295.49,335.782z"/>
	</g>
	<path fill="#EFB886" stroke="#000000" stroke-width="3" stroke-linecap="round" stroke-miterlimit="10" d="M238.827,336.057
		c0,0,12.261,6.131,26.302,0"/>
	<path fill="#546809" d="M280.342,470.771v-80.885l-11.586,3.898c0,0,10.334,15.047-1.979,22.473c0.725,9.235,0,13.58,0,13.58
		c3.029,2.862,8.975,11.525,6.697,40.934H280.342z"/>
	<path fill="#546809" d="M223.196,389.037l-8.806,4.621l-0.824,9.165c2.604-3.126,5.175-6.718,7.6-10.859v53.526
		c2.485-7.639,5.506-12.255,7.371-15.161c-2.742-1.438-2.887-8.954,3.32-14.439c-12.126-4.476-9.672-22.231-9.672-22.231
		L223.196,389.037z"/>
	<g>
		<path fill="#AA9B29" d="M221.166,429.604c-0.829,0-1.5-0.672-1.5-1.5v-9.886c0-0.828,0.671-1.5,1.5-1.5h59.176
			c0.828,0,1.5,0.672,1.5,1.5v9.886c0,0.828-0.672,1.5-1.5,1.5H221.166z"/>
		<path d="M280.342,418.219v9.886h-59.176v-9.886H280.342 M280.342,415.219h-59.176c-1.657,0-3,1.343-3,3v9.886c0,1.657,1.343,3,3,3
			h59.176c1.657,0,3-1.343,3-3v-9.886C283.342,416.562,281.999,415.219,280.342,415.219L280.342,415.219z"/>
	</g>
	<polygon fill="#6D5E16" points="269.744,386.416 291.137,370.592 295.49,338.782 279.234,341.197 279.146,356.72 266.777,383.95 
		259.686,385.901 	"/>
	<g>
		<path fill="#AA9B29" d="M238.827,381.396c-0.232,0-0.462-0.054-0.671-0.158l-23.599-11.802c-0.328-0.164-0.585-0.443-0.721-0.784
			l-9.414-23.487c-0.186-0.462-0.129-0.985,0.15-1.398c0.279-0.412,0.744-0.659,1.242-0.659h85.322c0.463,0,0.9,0.214,1.185,0.58
			s0.384,0.843,0.269,1.291l-4.781,18.703c-0.065,0.256-0.197,0.49-0.382,0.679l-14.346,14.645
			c-0.261,0.267-0.611,0.426-0.983,0.447C272.098,379.452,238.856,381.396,238.827,381.396z"/>
		<path d="M291.137,344.607l-4.781,18.703l-14.346,14.645l-33.183,1.941l-23.599-11.802l-9.414-23.487H291.137 M291.137,341.607
			h-85.322c-0.996,0-1.927,0.494-2.485,1.319c-0.558,0.824-0.67,1.872-0.3,2.797l9.414,23.487c0.273,0.682,0.787,1.238,1.443,1.567
			l23.599,11.802c0.417,0.208,0.877,0.316,1.342,0.316c0.058,0,0.117-0.002,0.175-0.005l33.182-1.941
			c0.745-0.044,1.446-0.363,1.968-0.896l14.346-14.645c0.37-0.377,0.633-0.845,0.764-1.356l4.781-18.703
			c0.229-0.897,0.031-1.852-0.537-2.583C292.938,342.035,292.063,341.607,291.137,341.607L291.137,341.607z"/>
	</g>
	<polygon fill="#8E7E20" points="289.457,344.607 286.98,344.607 267.813,355.795 261.135,373.229 233.001,376.983 238.827,379.896 
		272.01,377.955 286.355,363.311 289.629,350.507 	"/>
	<g>
		<path fill="#EFB886" d="M250.754,369.595c-43.79,0-79.416-48.415-79.416-107.926c0-40.283,35.626-73.056,79.416-73.056
			s79.416,32.772,79.416,73.056C330.17,321.18,294.544,369.595,250.754,369.595z"/>
		<path d="M250.754,190.113c43.031,0,77.916,32.037,77.916,71.556c0,58.777-34.885,106.426-77.916,106.426
			c-43.032,0-77.916-47.648-77.916-106.426C172.838,222.15,207.722,190.113,250.754,190.113 M250.754,187.113
			c-44.617,0-80.916,33.445-80.916,74.556c0,29.06,8.311,56.415,23.4,77.026c15.296,20.894,35.722,32.399,57.516,32.399
			c21.793,0,42.219-11.506,57.516-32.399c15.09-20.611,23.4-47.967,23.4-77.026C331.67,220.559,295.371,187.113,250.754,187.113
			L250.754,187.113z"/>
	</g>
	<path fill="#B77E53" d="M305.043,253.485c0,0,14.244,98.217-58.751,114.433c1.477,0.113,2.964,0.177,4.462,0.177
		c43.031,0,77.916-47.648,77.916-106.426c0-1.733-0.092-3.446-0.223-5.149l-10.055-12.823L305.043,253.485z"/>
	<path fill="#B77E53" d="M185.442,319.717c0,0-10.596-28.031,2.836-71.104c11.85,11.902,36.371,29.538,75.923,35.552
		c-24.126-20.485-27.433-32.11-27.433-32.11c18.731,13.998,59.073,29.656,82.409,32.11c-0.395,11.947-4.352,29.913-7.91,38.728
		c18.869-17.761,26.104-54.861,26.104-54.861l-71.588-45.88l-51.002-20.172l-44.316,17.799l2.611,50.267L185.442,319.717z"/>
	<circle cx="214.781" cy="282.429" r="7.155"/>
	<circle cx="288.335" cy="282.429" r="7.155"/>
	<g>
		<path fill="#444444" d="M313.157,322.204c6.548-12.692,11.001-27.435,12.912-42.72c-40.242-9.479-74.551-26.568-95.604-47.462
			c3.928,11.02,12.499,33.118,21.428,43.548l3.88,4.533l-5.563-2.159c-41.085-15.948-58.857-37.614-66.175-50.455
			c-6.353,10.407-9.698,22.17-9.698,34.18c0,21.829,4.845,42.762,14.012,60.535l3.714,7.201l-6.046-5.395
			c-21.454-19.142-33.758-46.774-33.758-75.813c0-55.492,44.184-100.638,98.494-100.638c54.31,0,98.494,45.146,98.494,100.638
			c0,29.04-12.305,56.672-33.759,75.813l-6.047,5.395L313.157,322.204z"/>
		<path d="M250.754,149.061c53.568,0,96.994,44.387,96.994,99.138c0,29.807-12.887,56.52-33.258,74.693
			c6.711-13.009,11.34-28.164,13.229-44.563c-48.951-11.293-82.992-31.993-100.918-52.38c0,0,11.508,36.059,23.953,50.597
			c-42.895-16.65-60.073-39.417-66.618-52.008c-7.168,10.825-11.298,23.535-11.298,37.131c0,22.792,5.248,43.907,14.179,61.223
			c-20.369-18.174-33.257-44.887-33.257-74.693C153.76,193.447,197.186,149.061,250.754,149.061 M250.754,146.061
			c-55.137,0-99.994,45.819-99.994,102.138c0,29.466,12.487,57.506,34.26,76.932l12.091,10.789l-7.428-14.402
			c-9.057-17.562-13.845-38.257-13.845-59.848c0-10.904,2.825-21.604,8.208-31.226c8.152,13.204,26.385,33.669,65.623,48.899
			l11.125,4.318l-7.761-9.066c-7.389-8.632-14.566-25.503-18.976-37.146c21.212,18.871,53.24,34.259,90.35,43.182
			c-1.977,14.635-6.306,28.718-12.583,40.886l-7.431,14.402l12.094-10.789c21.773-19.425,34.261-47.465,34.261-76.932
			C350.748,191.879,305.891,146.061,250.754,146.061L250.754,146.061z"/>
	</g>
	<path fill="#2D2D2D" d="M296.377,160.708c12.244,13.501,21.139,29.634,14.891,44.83c-13.232,32.186-26.791,38.502-57.626,42.926
		c18.659,12.051,43.448,22.799,74.077,29.865c-1.889,16.398-6.518,31.554-13.229,44.563c20.371-18.174,33.258-44.887,33.258-74.693
		C347.748,210.307,326.943,177.394,296.377,160.708z"/>
	<path fill="#2D2D2D" d="M239.835,258.675c-11.297,0.799-25.331-4.559-36.468-10.063c10.494,9.467,25.627,19.487,47.387,27.934
		C246.922,272.069,243.181,265.551,239.835,258.675z"/>
	<g>
		<path fill="#3A3A3A" d="M250.754,276.546c0,0-1.739-0.797-4.782-2.192c-1.532-0.672-3.317-1.652-5.379-2.768
			c-2.094-1.066-4.327-2.474-6.78-3.995c-1.248-0.73-2.449-1.636-3.741-2.508c-1.281-0.887-2.61-1.799-3.896-2.846
			c-1.292-1.037-2.673-2.041-3.989-3.183c-1.313-1.145-2.655-2.317-3.989-3.543c-1.29-1.274-2.601-2.57-3.929-3.881
			c-1.256-1.38-2.56-2.752-3.793-4.205c-2.435-2.934-4.819-5.994-6.957-9.23l-1.581-2.439c-0.508-0.824-0.979-1.669-1.47-2.501
			c-1.003-1.651-1.864-3.372-2.748-5.063c-0.878-1.693-1.634-3.431-2.391-5.138c-0.684-1.74-1.43-3.429-2.004-5.152
			c-1.282-3.397-2.18-6.795-2.986-10.013c-0.757-3.233-1.315-6.323-1.684-9.191c-0.371-2.868-0.596-5.508-0.668-7.852
			c-0.106-2.342-0.073-4.385-0.001-6.063c0.054-1.679,0.202-2.992,0.293-3.885c0.1-0.893,0.18-1.365,0.18-1.365
			s-0.081,1.916,0.124,5.245c0.091,1.664,0.271,3.679,0.548,5.977c0.264,2.299,0.699,4.875,1.224,7.665
			c0.548,2.789,1.287,5.774,2.15,8.903c0.934,3.109,1.976,6.369,3.292,9.649c0.604,1.661,1.378,3.285,2.088,4.957
			c0.373,0.828,0.793,1.641,1.19,2.468c0.4,0.826,0.773,1.671,1.226,2.48c0.874,1.633,1.724,3.297,2.713,4.89
			c0.483,0.803,0.947,1.619,1.448,2.414l1.554,2.355c2.044,3.16,4.335,6.153,6.675,9.028c1.197,1.415,2.431,2.78,3.612,4.164
			c1.259,1.314,2.502,2.612,3.725,3.889c1.284,1.218,2.547,2.417,3.783,3.589c1.235,1.176,2.542,2.218,3.762,3.293
			c1.209,1.091,2.485,2.027,3.686,2.979c1.213,0.935,2.34,1.904,3.521,2.699c2.329,1.634,4.422,3.211,6.39,4.426
			c1.949,1.248,3.614,2.409,5.078,3.227C249.116,275.558,250.754,276.546,250.754,276.546z"/>
	</g>
	<g>
		<path fill="#3A3A3A" d="M191.427,179.533c0,0,0.697-0.066,2.008-0.13c1.312-0.065,3.238-0.151,5.691-0.131
			c2.453,0.019,5.433,0.093,8.848,0.306c1.708,0.098,3.522,0.256,5.436,0.417c1.909,0.208,3.92,0.406,6.005,0.719
			c4.185,0.532,8.681,1.375,13.411,2.398c2.345,0.595,4.786,1.092,7.224,1.817c1.224,0.346,2.461,0.695,3.711,1.047
			c1.234,0.403,2.48,0.81,3.737,1.221c2.531,0.774,5.019,1.805,7.581,2.729c1.267,0.5,2.521,1.055,3.793,1.584
			c1.267,0.542,2.549,1.068,3.789,1.699c1.252,0.607,2.509,1.217,3.769,1.829c1.27,0.594,2.475,1.325,3.719,1.983
			c1.227,0.692,2.495,1.317,3.692,2.069l3.611,2.227c0.598,0.379,1.21,0.735,1.791,1.139l1.735,1.221
			c1.155,0.814,2.311,1.627,3.463,2.439c1.127,0.846,2.213,1.744,3.316,2.609c1.083,0.892,2.229,1.701,3.249,2.652
			c4.205,3.658,8.111,7.527,11.568,11.549c1.7,2.035,3.474,3.952,4.917,6.063c0.753,1.029,1.498,2.046,2.233,3.052
			c0.36,0.508,0.75,0.99,1.079,1.51c0.329,0.52,0.656,1.036,0.981,1.548c0.648,1.025,1.288,2.036,1.919,3.032
			c0.616,1.003,1.289,1.952,1.793,2.978c1.072,2.011,2.109,3.954,3.104,5.819c0.957,1.882,1.729,3.757,2.524,5.507
			c0.776,1.76,1.532,3.417,2.069,5.047c0.582,1.609,1.126,3.116,1.629,4.509c0.252,0.695,0.492,1.362,0.723,2
			c0.208,0.645,0.373,1.271,0.548,1.859c0.69,2.355,1.184,4.218,1.541,5.479c0.351,1.264,0.537,1.938,0.537,1.938
			s-0.241-0.657-0.693-1.891c-0.446-1.233-1.129-3.032-1.938-5.336c-0.208-0.574-0.409-1.186-0.654-1.813
			c-0.268-0.619-0.547-1.268-0.839-1.944c-0.582-1.35-1.211-2.81-1.884-4.37c-0.627-1.578-1.477-3.175-2.349-4.866
			c-0.889-1.682-1.709-3.506-2.739-5.317c-1.06-1.792-2.163-3.66-3.305-5.592c-0.543-0.982-1.225-1.9-1.864-2.865
			c-0.649-0.958-1.309-1.93-1.977-2.916c-0.334-0.492-0.67-0.988-1.008-1.487s-0.736-0.96-1.105-1.447
			c-0.751-0.961-1.512-1.935-2.281-2.919c-1.484-2.01-3.232-3.873-4.938-5.824c-3.437-3.883-7.371-7.53-11.472-11.098
			c-1-0.922-2.126-1.704-3.188-2.567c-1.082-0.838-2.146-1.708-3.251-2.526c-1.131-0.786-2.263-1.572-3.396-2.36l-1.7-1.182
			c-0.568-0.392-1.173-0.731-1.755-1.103l-3.514-2.197c-1.165-0.743-2.402-1.36-3.597-2.044c-1.214-0.652-2.386-1.375-3.625-1.964
			c-1.23-0.606-2.457-1.211-3.679-1.813c-1.21-0.628-2.466-1.144-3.7-1.693c-1.237-0.542-2.456-1.109-3.689-1.624
			c-2.497-0.953-4.92-2.014-7.393-2.82c-1.228-0.427-2.446-0.851-3.652-1.27c-1.22-0.379-2.429-0.754-3.625-1.125
			c-2.378-0.791-4.767-1.353-7.062-2.013c-4.638-1.132-9.042-2.163-13.158-2.873c-8.216-1.503-15.166-2.236-20.041-2.556
			c-2.438-0.146-4.358-0.261-5.668-0.288C192.127,179.523,191.427,179.533,191.427,179.533z"/>
	</g>
	<path fill="#2D2D2D" d="M158.214,277.949c5.421,17.605,15.519,33.091,28.803,44.942c-8.931-17.315-14.179-38.431-14.179-61.223
		c0-13.596,4.13-26.306,11.298-37.131C184.136,224.538,162.731,231.289,158.214,277.949z"/>
	<g>
		<path fill="#595959" d="M189.943,176.863c0,0,0.132-0.17,0.387-0.5c0.268-0.32,0.604-0.842,1.159-1.432
			c1.042-1.241,2.728-2.937,5.146-4.767c2.412-1.835,5.564-3.785,9.407-5.555c1.91-0.913,4.01-1.729,6.242-2.538
			c2.244-0.775,4.643-1.479,7.174-2.097c5.065-1.221,10.669-2.11,16.641-2.411c5.967-0.327,12.306-0.143,18.778,0.765
			c6.469,0.888,13.093,2.418,19.56,4.762c6.469,2.33,12.787,5.427,18.662,9.23c5.848,3.839,11.251,8.365,15.942,13.402
			c4.753,4.989,8.682,10.557,12.004,16.178c3.332,5.629,5.899,11.423,7.914,17.041c2.039,5.613,3.474,11.078,4.515,16.164
			c0.288,1.266,0.518,2.516,0.726,3.74c0.205,1.225,0.453,2.412,0.604,3.584c0.307,2.344,0.645,4.558,0.821,6.656
			c0.104,1.046,0.205,2.059,0.303,3.037c0.068,0.98,0.134,1.924,0.196,2.832c0.132,1.814,0.232,3.48,0.267,4.988
			c0.145,3.013,0.112,5.382,0.102,6.995c-0.006,1.613-0.01,2.474-0.01,2.474s-0.053-0.858-0.153-2.469
			c-0.05-0.805-0.11-1.797-0.183-2.963c-0.099-1.164-0.212-2.501-0.339-3.999c-0.106-1.499-0.289-3.153-0.509-4.95
			c-0.106-0.898-0.218-1.833-0.333-2.803c-0.145-0.965-0.294-1.966-0.449-2.999c-0.614-4.132-1.514-8.76-2.722-13.742
			c-1.212-4.98-2.813-10.304-4.933-15.761c-2.115-5.458-4.783-11.037-8.086-16.474c-3.301-5.435-7.246-10.722-11.843-15.542
			c-4.562-4.852-9.807-9.191-15.471-12.878c-5.657-3.703-11.755-6.732-18.015-9.023c-6.262-2.283-12.654-3.932-18.949-4.874
			c-6.291-0.955-12.465-1.318-18.307-1.144c-5.843,0.167-11.354,0.838-16.358,1.855c-4.998,1.049-9.502,2.401-13.348,3.979
			c-3.857,1.553-7.049,3.317-9.512,5.008c-2.455,1.7-4.264,3.234-5.364,4.402c-0.589,0.549-0.961,1.05-1.249,1.351
			C190.086,176.702,189.943,176.863,189.943,176.863z"/>
	</g>
	<g>
		<path fill="#AA9B29" d="M285.964,261.38c-16.255,0-33.996-4.125-45.199-10.508c-8.709-4.963-26.596-10.305-45.287-10.305
			c-12.627,0-23.767,2.377-33.11,7.066c-7.656,3.842-17.246,5.79-28.501,5.79c-23.001,0-45.658-8.236-45.884-8.319
			c-0.427-0.157-0.759-0.499-0.904-0.93c-0.145-0.431-0.086-0.904,0.159-1.287c7.27-11.355,27.239-26.013,44.858-38.946
			c14.171-10.401,27.561-20.23,29.274-24.808c0.416-2.124,6.58-33.637,9.767-52.989c3.132-19.022,12.664-76.909,48.067-84.442
			c32.997-7.021,74.918-9.651,87.002-10.019c0.207-0.006,0.41-0.009,0.613-0.009c9.828,0,14.906,7.098,20.786,15.316l1.191,1.662
			c6.062,8.409,16.182,24.506,19.689,31.316c1.463,2.841,1.578,5.658,0.316,7.728c-1.123,1.841-3.159,2.855-5.734,2.855
			c-2.363,0-5.029-0.834-7.923-2.478c-6.574-3.735-12.053-5.475-17.24-5.475c-0.993,0-1.979,0.062-2.995,0.188
			c-0.925,1.091-3.563,4.604-3.563,9.207c0,5.561,10.891,55.435,29.203,86.783c1.558,2.942,10.262,8.636,20.34,15.228
			c19.749,12.919,49.595,32.441,63.881,55.256c0.378,0.604,0.279,1.392-0.238,1.883c-5.79,5.506-13.225,8.182-22.727,8.182
			c-0.002,0-0.003,0-0.005,0c-10.541-0.001-22.191-3.281-33.458-6.454c-10.792-3.039-20.985-5.909-29.763-5.909
			c-5.735,0-10.268,1.251-13.857,3.825C312.515,259.542,296.907,261.38,285.964,261.38z"/>
		<path d="M306.818,33.175c9.684,0,14.52,7.694,20.762,16.354c6.363,8.829,16.238,24.653,19.572,31.126
			c2.346,4.554,0.515,8.396-4.084,8.396c-1.938,0-4.367-0.683-7.182-2.282c-7.493-4.257-13.131-5.671-17.981-5.671
			c-1.296,0-2.537,0.101-3.741,0.276c0,0-4.316,4.335-4.316,10.619c0,6.284,11.109,56.216,29.408,87.54
			c4.861,9.192,62.492,35.786,84.244,70.523c-6.028,5.732-13.496,7.769-21.698,7.769c-20.197,0-44.823-12.363-63.221-12.363
			c-5.582,0-10.594,1.139-14.731,4.106c-10.356,7.426-24.148,10.312-37.886,10.312c-17.188,0-34.289-4.518-44.456-10.312
			c-8.719-4.969-26.834-10.502-46.03-10.502c-11.467,0-23.321,1.976-33.783,7.226c-8.303,4.167-18.12,5.631-27.829,5.631
			c-23,0-45.367-8.227-45.367-8.227c13.225-20.655,70.591-53.376,74.319-64.163c0,0,6.472-32.957,9.797-53.145
			c3.324-20.188,13.095-76.025,46.899-83.218c33.806-7.193,76.793-9.684,86.736-9.987C306.443,33.178,306.632,33.175,306.818,33.175
			 M306.819,30.175C306.818,30.175,306.818,30.175,306.819,30.175c-0.218,0-0.437,0.003-0.658,0.01
			c-12.12,0.369-54.166,3.007-87.27,10.051c-15.496,3.297-27.956,16.263-37.034,38.538c-7.452,18.287-10.78,38.497-12.201,47.127
			c-3.131,19.008-9.14,49.779-9.733,52.813c-1.729,4.208-16.056,14.725-28.716,24.018c-17.724,13.01-37.813,27.756-45.233,39.346
			c-0.49,0.766-0.607,1.712-0.317,2.574c0.29,0.862,0.955,1.546,1.808,1.859c0.934,0.344,23.135,8.411,46.402,8.411
			c11.492,0,21.307-2.001,29.174-5.95c9.132-4.583,20.046-6.907,32.437-6.907c18.418,0,36.001,5.24,44.544,10.108
			c11.412,6.503,29.445,10.705,45.941,10.705c11.163,0,27.101-1.887,39.634-10.874c3.326-2.385,7.573-3.544,12.983-3.544
			c8.569,0,18.665,2.843,29.354,5.853c11.366,3.201,23.118,6.51,33.867,6.51c9.909,0,17.683-2.811,23.766-8.594
			c1.033-0.983,1.232-2.558,0.476-3.767c-14.461-23.093-44.473-42.725-64.332-55.715c-9.492-6.209-18.457-12.074-19.803-14.618
			c-0.021-0.038-0.041-0.074-0.063-0.111c-18.185-31.128-28.998-80.527-28.998-86.026c0-3.608,1.85-6.495,2.842-7.784
			c0.747-0.074,1.479-0.11,2.216-0.111c4.917,0,10.16,1.678,16.499,5.279c3.123,1.774,6.038,2.674,8.664,2.674
			c3.073,0,5.63-1.303,7.015-3.575c1.541-2.527,1.445-5.878-0.264-9.195c-3.601-6.99-13.596-22.891-19.806-31.506
			c-0.401-0.557-0.797-1.11-1.188-1.657C322.96,37.919,317.419,30.175,306.819,30.175L306.819,30.175z"/>
	</g>
	<path fill="#84741A" d="M312.568,83.422c0.861-1.303,1.596-2.047,1.596-2.047c5.711-0.828,12.227,0,21.723,5.395
		c5.213,2.962,9.09,2.769,10.986,0.931C334.93,85.901,324.68,73.356,326.6,65.933C318.404,71.696,312.568,83.422,312.568,83.422
		L312.568,83.422z"/>
	<path fill="#84741A" d="M339.256,179.533c-13.68-23.416-23.34-57.228-27.346-75.433c-2.387,9.873-4.104,26.61,3.219,46.749
		c11.865,32.63-60.91,34.325-89.98,35.997c32.035,2.265,101.242,4.54,112.223,14.528c9.338,8.494,56.395,32.912,38.002,51.896
		c18.012,4.893,35.994,8.324,48.127-3.214C401.748,215.319,344.117,188.726,339.256,179.533z"/>
	<path fill="#84741A" d="M191.427,185.062c-31.883-4.099-17.35-18.695-23.405-32.805c-2.694,14.509-5.202,27.277-5.202,27.277
		c-0.545,1.575-2.241,3.624-4.772,6.031C177.131,184.779,169.916,183.967,191.427,185.062z"/>
	<path fill="#84741A" d="M293.418,213.998c1.25,14.228,5.924,33.3,13.447,43.323c6.037-1.613,11.684-4.054,16.588-7.485
		C316.256,243.755,302.432,230.763,293.418,213.998z"/>
	<path fill="#84741A" d="M241.508,249.568c8.059,4.592,20.471,8.379,33.83,9.754c-15.219-5.726-27.156-14.722-29.046-20.981
		c-2.676-8.857-6.757-14.971-14.435-25.989c2.985,10.193,1.56,22.564-0.729,32.683C235.304,246.482,238.847,248.051,241.508,249.568
		z"/>
	<path fill="#84741A" d="M151.728,241.8c-11.587,3.597-27.036,4.129-38.623-5.822c-4.063-3.49-4.083-8.714-2.403-14.026
		c-9.708,7.734-18.089,15.322-22.201,21.745c0,0,45.221,16.635,73.195,2.596c4.426-2.22,9.101-3.853,13.889-5
		C166.018,239.532,157.309,240.067,151.728,241.8z"/>
	<path fill="#8E7E20" d="M261.088,428.104h19.254v-9.886h-19.197c2.348,1.339,3.965,2.762,3.994,4.15
		C265.174,424.128,263.67,426.161,261.088,428.104z"/>
</g>
</svg>
